G75*
G70*
%OFA0B0*%
%FSLAX24Y24*%
%IPPOS*%
%LPD*%
%AMOC8*
5,1,8,0,0,1.08239X$1,22.5*
%
%ADD10C,0.0000*%
%ADD11C,0.0040*%
%ADD12C,0.0060*%
%ADD13C,0.0020*%
%ADD14C,0.0010*%
%ADD15C,0.0050*%
%ADD16C,0.0031*%
%ADD17C,0.0020*%
%ADD18C,0.0080*%
%ADD19R,0.0256X0.0551*%
D10*
X007661Y002111D02*
X007661Y022468D01*
X004701Y022468D01*
X004659Y022510D01*
X004617Y022553D01*
X004490Y022680D01*
X004448Y022722D01*
X004406Y022764D01*
X004363Y022806D01*
X004321Y022849D01*
X004279Y022891D01*
X004237Y022933D01*
X004152Y023018D01*
X004110Y023060D01*
X004067Y023102D01*
X003983Y023187D01*
X003941Y023229D01*
X003898Y023271D01*
X003856Y023313D01*
X003814Y023356D01*
X003772Y023398D01*
X003729Y023440D01*
X003687Y023482D01*
X003645Y023525D01*
X003603Y023567D01*
X003560Y023609D01*
X003476Y023694D01*
X003433Y023736D01*
X003391Y023778D01*
X003307Y023863D01*
X003264Y023905D01*
X003222Y023947D01*
X003180Y023990D01*
X003138Y024032D01*
X003095Y024074D01*
X003053Y024117D01*
X002969Y024201D01*
X002926Y024243D01*
X002884Y024286D01*
X002842Y024328D01*
X002799Y024370D01*
X002757Y024412D01*
X002715Y024455D01*
X002673Y024497D01*
X002630Y024539D01*
X002588Y024581D01*
X002546Y024624D01*
X002504Y024666D01*
X002461Y024708D01*
X002419Y024750D01*
X002377Y024793D01*
X002335Y024835D01*
X002292Y024877D01*
X002208Y024962D01*
X002166Y025004D01*
X002123Y025046D01*
X002081Y025089D01*
X002039Y025131D01*
X001996Y025173D01*
X001996Y025300D01*
X001998Y025426D01*
X002001Y025552D01*
X002005Y025679D01*
X002010Y025804D01*
X002016Y025930D01*
X002023Y026055D01*
X002031Y026180D01*
X002041Y026304D01*
X002051Y026429D01*
X002063Y026553D01*
X002076Y026676D01*
X002089Y026800D01*
X002103Y026923D01*
X002120Y027045D01*
X002136Y027168D01*
X002154Y027290D01*
X002173Y027412D01*
X002193Y027533D01*
X002214Y027655D01*
X002236Y027775D01*
X002259Y027896D01*
X002283Y028016D01*
X002308Y028136D01*
X002334Y028255D01*
X002361Y028374D01*
X002389Y028493D01*
X002418Y028611D01*
X002448Y028729D01*
X002480Y028847D01*
X002511Y028964D01*
X002544Y029081D01*
X002579Y029197D01*
X002613Y029314D01*
X002649Y029429D01*
X002686Y029544D01*
X002724Y029660D01*
X002763Y029774D01*
X002803Y029888D01*
X002843Y030002D01*
X002885Y030115D01*
X002928Y030227D01*
X002971Y030340D01*
X003015Y030452D01*
X003061Y030563D01*
X003107Y030674D01*
X003154Y030785D01*
X003203Y030895D01*
X003251Y031005D01*
X003301Y031114D01*
X003352Y031223D01*
X003404Y031331D01*
X003456Y031439D01*
X003510Y031546D01*
X003564Y031653D01*
X003619Y031760D01*
X003676Y031865D01*
X003732Y031971D01*
X003790Y032076D01*
X003849Y032180D01*
X003908Y032284D01*
X003968Y032387D01*
X004030Y032490D01*
X004092Y032593D01*
X004154Y032694D01*
X004218Y032795D01*
X004283Y032897D01*
X004348Y032997D01*
X004414Y033096D01*
X004481Y033196D01*
X004549Y033294D01*
X004618Y033392D01*
X004687Y033490D01*
X004757Y033586D01*
X004828Y033683D01*
X004900Y033779D01*
X004972Y033874D01*
X005119Y034063D01*
X005194Y034156D01*
X005270Y034248D01*
X005346Y034341D01*
X005423Y034433D01*
X005501Y034523D01*
X005580Y034614D01*
X005659Y034704D01*
X005739Y034793D01*
X005820Y034882D01*
X005901Y034970D01*
X006066Y035144D01*
X006150Y035230D01*
X006235Y035315D01*
X006319Y035400D01*
X006405Y035484D01*
X006492Y035567D01*
X006579Y035650D01*
X006667Y035732D01*
X006755Y035814D01*
X006844Y035895D01*
X006934Y035975D01*
X007025Y036054D01*
X007116Y036133D01*
X007208Y036211D01*
X007301Y036288D01*
X007393Y036365D01*
X007487Y036441D01*
X007582Y036516D01*
X007677Y036591D01*
X007772Y036665D01*
X007869Y036738D01*
X007966Y036810D01*
X008063Y036882D01*
X008162Y036952D01*
X008260Y037023D01*
X008360Y037092D01*
X008460Y037161D01*
X008560Y037229D01*
X008661Y037296D01*
X008764Y037362D01*
X008866Y037428D01*
X008969Y037493D01*
X009072Y037557D01*
X009176Y037621D01*
X009281Y037683D01*
X009386Y037745D01*
X009492Y037806D01*
X009598Y037866D01*
X009812Y037984D01*
X009920Y038042D01*
X010029Y038098D01*
X010138Y038155D01*
X010247Y038210D01*
X010358Y038264D01*
X010468Y038319D01*
X010579Y038372D01*
X010691Y038423D01*
X010803Y038475D01*
X010915Y038525D01*
X011029Y038574D01*
X011142Y038623D01*
X011256Y038671D01*
X011371Y038717D01*
X011486Y038764D01*
X011601Y038809D01*
X011717Y038853D01*
X011833Y038897D01*
X011950Y038939D01*
X012068Y038981D01*
X012185Y039022D01*
X012304Y039062D01*
X012541Y039139D01*
X012661Y039176D01*
X012781Y039212D01*
X012901Y039248D01*
X013022Y039282D01*
X013143Y039315D01*
X013265Y039348D01*
X013387Y039380D01*
X013509Y039410D01*
X013632Y039440D01*
X013755Y039469D01*
X013879Y039496D01*
X014003Y039524D01*
X014127Y039549D01*
X014252Y039574D01*
X014377Y039599D01*
X014502Y039621D01*
X014628Y039643D01*
X014754Y039665D01*
X014881Y039685D01*
X015008Y039703D01*
X015135Y039722D01*
X015262Y039739D01*
X015390Y039755D01*
X015518Y039770D01*
X015647Y039784D01*
X015776Y039797D01*
X015905Y039809D01*
X016034Y039820D01*
X016164Y039830D01*
X016294Y039839D01*
X016425Y039847D01*
X016555Y039854D01*
X016686Y039860D01*
X016817Y039865D01*
X016949Y039868D01*
X017081Y039871D01*
X017213Y039873D01*
X017345Y039873D01*
X017330Y039873D02*
X017462Y039873D01*
X017594Y039871D01*
X017726Y039868D01*
X017857Y039865D01*
X017989Y039860D01*
X018120Y039854D01*
X018250Y039847D01*
X018381Y039839D01*
X018511Y039830D01*
X018640Y039820D01*
X018770Y039809D01*
X018899Y039797D01*
X019028Y039784D01*
X019157Y039770D01*
X019285Y039755D01*
X019413Y039739D01*
X019540Y039722D01*
X019667Y039703D01*
X019794Y039685D01*
X019921Y039665D01*
X020047Y039643D01*
X020173Y039621D01*
X020298Y039599D01*
X020423Y039574D01*
X020548Y039549D01*
X020672Y039524D01*
X020796Y039496D01*
X020920Y039469D01*
X021043Y039440D01*
X021288Y039380D01*
X021410Y039348D01*
X021532Y039315D01*
X021653Y039282D01*
X021774Y039248D01*
X021894Y039212D01*
X022014Y039176D01*
X022134Y039139D01*
X022371Y039062D01*
X022490Y039022D01*
X022725Y038939D01*
X022842Y038897D01*
X022958Y038853D01*
X023074Y038809D01*
X023189Y038764D01*
X023304Y038717D01*
X023419Y038671D01*
X023533Y038623D01*
X023646Y038574D01*
X023760Y038525D01*
X023872Y038475D01*
X023984Y038423D01*
X024096Y038372D01*
X024207Y038319D01*
X024317Y038264D01*
X024428Y038210D01*
X024537Y038155D01*
X024646Y038098D01*
X024755Y038042D01*
X024863Y037984D01*
X025077Y037866D01*
X025183Y037806D01*
X025289Y037745D01*
X025394Y037683D01*
X025499Y037621D01*
X025603Y037557D01*
X025706Y037493D01*
X025809Y037428D01*
X025911Y037362D01*
X026013Y037296D01*
X026115Y037229D01*
X026215Y037161D01*
X026315Y037092D01*
X026415Y037023D01*
X026513Y036952D01*
X026612Y036882D01*
X026709Y036810D01*
X026806Y036738D01*
X026903Y036665D01*
X026998Y036591D01*
X027093Y036516D01*
X027188Y036441D01*
X027282Y036365D01*
X027374Y036288D01*
X027467Y036211D01*
X027559Y036133D01*
X027650Y036054D01*
X027741Y035975D01*
X027831Y035895D01*
X027920Y035814D01*
X028008Y035732D01*
X028096Y035650D01*
X028183Y035567D01*
X028270Y035484D01*
X028356Y035400D01*
X028440Y035315D01*
X028525Y035230D01*
X028609Y035144D01*
X028691Y035057D01*
X028774Y034970D01*
X028855Y034882D01*
X028936Y034793D01*
X029016Y034704D01*
X029095Y034614D01*
X029174Y034523D01*
X029252Y034433D01*
X029329Y034341D01*
X029405Y034248D01*
X029481Y034156D01*
X029556Y034063D01*
X029629Y033968D01*
X029703Y033874D01*
X029775Y033779D01*
X029918Y033586D01*
X029988Y033490D01*
X030057Y033392D01*
X030126Y033294D01*
X030194Y033196D01*
X030260Y033096D01*
X030327Y032997D01*
X030392Y032897D01*
X030521Y032694D01*
X030583Y032593D01*
X030645Y032490D01*
X030707Y032387D01*
X030767Y032284D01*
X030826Y032180D01*
X030885Y032076D01*
X030943Y031971D01*
X030999Y031865D01*
X031056Y031760D01*
X031111Y031653D01*
X031165Y031546D01*
X031219Y031439D01*
X031271Y031331D01*
X031323Y031223D01*
X031374Y031114D01*
X031424Y031005D01*
X031521Y030785D01*
X031568Y030674D01*
X031614Y030563D01*
X031660Y030452D01*
X031704Y030340D01*
X031790Y030115D01*
X031832Y030002D01*
X031872Y029888D01*
X031912Y029774D01*
X031951Y029660D01*
X031988Y029544D01*
X032026Y029429D01*
X032062Y029314D01*
X032096Y029197D01*
X032131Y029081D01*
X032164Y028964D01*
X032195Y028847D01*
X032227Y028729D01*
X032257Y028611D01*
X032285Y028493D01*
X032314Y028374D01*
X032341Y028255D01*
X032367Y028136D01*
X032392Y028016D01*
X032416Y027896D01*
X032439Y027775D01*
X032461Y027655D01*
X032482Y027533D01*
X032502Y027412D01*
X032521Y027290D01*
X032539Y027168D01*
X032555Y027045D01*
X032571Y026923D01*
X032586Y026800D01*
X032599Y026676D01*
X032612Y026553D01*
X032624Y026429D01*
X032634Y026304D01*
X032644Y026180D01*
X032652Y026055D01*
X032658Y025930D01*
X032665Y025804D01*
X032670Y025679D01*
X032673Y025552D01*
X032677Y025426D01*
X032678Y025300D01*
X032678Y025173D01*
X032636Y025131D01*
X032594Y025089D01*
X032552Y025046D01*
X032509Y025004D01*
X032467Y024962D01*
X032425Y024919D01*
X032383Y024877D01*
X032340Y024835D01*
X032298Y024793D01*
X032256Y024750D01*
X032213Y024708D01*
X032171Y024666D01*
X032129Y024624D01*
X032087Y024581D01*
X032044Y024539D01*
X031960Y024455D01*
X031918Y024412D01*
X031875Y024370D01*
X031791Y024286D01*
X031749Y024243D01*
X031706Y024201D01*
X031664Y024159D01*
X031622Y024117D01*
X031579Y024074D01*
X031537Y024032D01*
X031495Y023990D01*
X031453Y023947D01*
X031410Y023905D01*
X031368Y023863D01*
X031326Y023821D01*
X031284Y023778D01*
X031241Y023736D01*
X031199Y023694D01*
X031157Y023652D01*
X031115Y023609D01*
X031030Y023525D01*
X030988Y023482D01*
X030946Y023440D01*
X030903Y023398D01*
X030861Y023356D01*
X030819Y023313D01*
X030777Y023271D01*
X030734Y023229D01*
X030692Y023187D01*
X030650Y023144D01*
X030607Y023102D01*
X030565Y023060D01*
X030523Y023018D01*
X030481Y022975D01*
X030438Y022933D01*
X030396Y022891D01*
X030354Y022849D01*
X030269Y022764D01*
X030227Y022722D01*
X030185Y022680D01*
X030143Y022637D01*
X030100Y022595D01*
X030058Y022553D01*
X030016Y022510D01*
X029973Y022468D01*
X027014Y022468D01*
X027014Y002111D01*
X027001Y002099D01*
X026989Y002087D01*
X026965Y002062D01*
X026952Y002050D01*
X026940Y002038D01*
X026928Y002025D01*
X026903Y002001D01*
X026891Y001989D01*
X026879Y001976D01*
X026854Y001952D01*
X026842Y001940D01*
X026830Y001927D01*
X026817Y001915D01*
X026805Y001903D01*
X026793Y001890D01*
X026756Y001854D01*
X026744Y001842D01*
X026732Y001829D01*
X026707Y001805D01*
X026695Y001792D01*
X026683Y001780D01*
X026646Y001743D01*
X026634Y001731D01*
X026621Y001719D01*
X026609Y001707D01*
X026597Y001694D01*
X026572Y001670D01*
X026560Y001658D01*
X026548Y001645D01*
X026536Y001633D01*
X026511Y001609D01*
X026499Y001596D01*
X026486Y001584D01*
X026474Y001572D01*
X026462Y001560D01*
X026450Y001547D01*
X026437Y001535D01*
X026425Y001523D01*
X026413Y001511D01*
X026401Y001498D01*
X026388Y001486D01*
X026352Y001449D01*
X026339Y001437D01*
X026315Y001413D01*
X026303Y001400D01*
X026266Y001364D01*
X026254Y001351D01*
X026241Y001339D01*
X026229Y001327D01*
X021812Y001327D01*
X021799Y001314D01*
X021787Y001301D01*
X021774Y001288D01*
X021761Y001276D01*
X021748Y001263D01*
X021735Y001250D01*
X021722Y001237D01*
X021697Y001211D01*
X021684Y001198D01*
X021658Y001173D01*
X021645Y001160D01*
X021633Y001147D01*
X021620Y001134D01*
X021594Y001109D01*
X021581Y001096D01*
X021568Y001083D01*
X021543Y001057D01*
X021517Y001032D01*
X021491Y001006D01*
X021479Y000993D01*
X021466Y000980D01*
X021453Y000968D01*
X021440Y000955D01*
X021427Y000942D01*
X021414Y000929D01*
X021389Y000903D01*
X021376Y000891D01*
X021363Y000878D01*
X021350Y000865D01*
X021337Y000852D01*
X021325Y000839D01*
X021312Y000826D01*
X021286Y000801D01*
X021261Y000775D01*
X021235Y000750D01*
X021222Y000737D01*
X021209Y000724D01*
X021184Y000698D01*
X021171Y000685D01*
X021158Y000672D01*
X021132Y000647D01*
X021107Y000621D01*
X021094Y000608D01*
X021081Y000596D01*
X021068Y000583D01*
X021055Y000570D01*
X021042Y000557D01*
X021030Y000544D01*
X021017Y000531D01*
X021004Y000519D01*
X020991Y000506D01*
X013684Y000506D01*
X013671Y000519D01*
X013658Y000531D01*
X013645Y000544D01*
X013632Y000557D01*
X013620Y000570D01*
X013607Y000583D01*
X013594Y000596D01*
X013581Y000608D01*
X013568Y000621D01*
X013555Y000634D01*
X013543Y000647D01*
X013530Y000660D01*
X013517Y000672D01*
X013504Y000685D01*
X013491Y000698D01*
X013478Y000711D01*
X013466Y000724D01*
X013453Y000737D01*
X013440Y000750D01*
X013414Y000775D01*
X013401Y000788D01*
X013389Y000801D01*
X013376Y000814D01*
X013363Y000826D01*
X013337Y000852D01*
X013325Y000865D01*
X013312Y000878D01*
X013299Y000891D01*
X013286Y000903D01*
X013273Y000916D01*
X013260Y000929D01*
X013247Y000942D01*
X013222Y000968D01*
X013209Y000980D01*
X013196Y000993D01*
X013183Y001006D01*
X013171Y001019D01*
X013158Y001032D01*
X013145Y001045D01*
X013132Y001057D01*
X013106Y001083D01*
X013094Y001096D01*
X013081Y001109D01*
X013055Y001134D01*
X013042Y001147D01*
X013029Y001160D01*
X013017Y001173D01*
X013004Y001186D01*
X012991Y001198D01*
X012978Y001211D01*
X012965Y001224D01*
X012952Y001237D01*
X012940Y001250D01*
X012927Y001263D01*
X012914Y001276D01*
X012901Y001288D01*
X012888Y001301D01*
X012875Y001314D01*
X012863Y001327D01*
X008446Y001327D01*
X008434Y001339D01*
X008421Y001351D01*
X008409Y001364D01*
X008372Y001400D01*
X008360Y001413D01*
X008348Y001425D01*
X008335Y001437D01*
X008323Y001449D01*
X008299Y001474D01*
X008286Y001486D01*
X008274Y001498D01*
X008262Y001511D01*
X008250Y001523D01*
X008237Y001535D01*
X008225Y001547D01*
X008213Y001560D01*
X008201Y001572D01*
X008188Y001584D01*
X008176Y001596D01*
X008164Y001609D01*
X008139Y001633D01*
X008127Y001645D01*
X008115Y001658D01*
X008078Y001694D01*
X008066Y001707D01*
X008041Y001731D01*
X008029Y001743D01*
X007992Y001780D01*
X007980Y001792D01*
X007968Y001805D01*
X007943Y001829D01*
X007931Y001842D01*
X007919Y001854D01*
X007882Y001890D01*
X007870Y001903D01*
X007857Y001915D01*
X007845Y001927D01*
X007833Y001940D01*
X007821Y001952D01*
X007796Y001976D01*
X007784Y001989D01*
X007772Y002001D01*
X007747Y002025D01*
X007735Y002038D01*
X007723Y002050D01*
X007710Y002062D01*
X007686Y002087D01*
X007674Y002099D01*
X007661Y002111D01*
X008130Y002844D02*
X008059Y002915D01*
X007988Y002987D01*
X007943Y003085D01*
X007943Y003302D01*
X007988Y003401D01*
X008059Y003472D01*
X008130Y003543D01*
X008228Y003587D01*
X008446Y003587D01*
X008544Y003543D01*
X008616Y003472D01*
X008687Y003401D01*
X008731Y003302D01*
X008731Y003085D01*
X008687Y002987D01*
X008616Y002915D01*
X008544Y002844D01*
X008446Y002800D01*
X008228Y002800D01*
X008130Y002844D01*
X008155Y010128D02*
X008155Y014063D01*
X015655Y014063D01*
X015655Y010128D01*
X008155Y010128D01*
X008143Y020491D02*
X007966Y020667D01*
X007966Y021102D01*
X008143Y021278D01*
X008578Y021278D01*
X008754Y021102D01*
X008754Y020667D01*
X008578Y020491D01*
X008143Y020491D01*
X005319Y024782D02*
X004976Y024782D01*
X004976Y027347D01*
X005319Y027347D01*
X005319Y024782D01*
X005001Y024936D02*
X003711Y024966D01*
X002686Y025462D01*
X002686Y026675D01*
X003711Y027170D01*
X005001Y027201D01*
X004429Y027894D02*
X004215Y028160D01*
X004215Y028817D01*
X004429Y029082D01*
X005788Y029082D01*
X005758Y029345D02*
X005758Y027632D01*
X006051Y027632D01*
X006051Y029345D01*
X005758Y029345D01*
X005788Y027894D02*
X004429Y027894D01*
X006622Y030750D02*
X006379Y030993D01*
X008193Y032807D01*
X008436Y032564D01*
X006622Y030750D01*
X006506Y031084D02*
X005615Y032018D01*
X005241Y033093D01*
X005670Y033522D01*
X006099Y033951D01*
X007174Y033576D01*
X008108Y032686D01*
X008380Y033393D02*
X009154Y032619D01*
X008947Y032455D02*
X009155Y032248D01*
X010366Y033459D01*
X010159Y033666D01*
X008947Y032455D01*
X008380Y033393D02*
X008193Y033580D01*
X008230Y033920D01*
X008462Y034152D01*
X008694Y034384D01*
X009034Y034420D01*
X009221Y034233D01*
X009995Y033459D01*
X010926Y035232D02*
X010926Y035525D01*
X012639Y035525D01*
X012639Y035232D01*
X010926Y035232D01*
X011189Y035495D02*
X011189Y036854D01*
X011455Y037069D01*
X012111Y037069D01*
X012377Y036854D01*
X012377Y035495D01*
X012929Y036251D02*
X012929Y036594D01*
X015495Y036594D01*
X015495Y036251D01*
X012929Y036251D01*
X013075Y036569D02*
X013106Y037859D01*
X013602Y038884D01*
X014815Y038884D01*
X015310Y037859D01*
X015341Y036569D01*
X019337Y036594D02*
X019337Y036251D01*
X021902Y036251D01*
X021902Y036594D01*
X019337Y036594D01*
X019491Y036569D02*
X019521Y037859D01*
X020017Y038884D01*
X021230Y038884D01*
X021725Y037859D01*
X021756Y036569D01*
X022455Y036854D02*
X022455Y035495D01*
X022192Y035525D02*
X022192Y035232D01*
X023905Y035232D01*
X023905Y035525D01*
X022192Y035525D01*
X022455Y036854D02*
X022721Y037069D01*
X023377Y037069D01*
X023643Y036854D01*
X023643Y035495D01*
X024705Y033666D02*
X025916Y032455D01*
X025709Y032248D01*
X024498Y033459D01*
X024705Y033666D01*
X024869Y033459D02*
X025643Y034233D01*
X025830Y034420D01*
X026170Y034384D01*
X026402Y034152D01*
X026634Y033920D01*
X026670Y033580D01*
X026483Y033393D01*
X025709Y032619D01*
X026428Y032564D02*
X026670Y032807D01*
X028484Y030993D01*
X028242Y030750D01*
X026428Y032564D01*
X026756Y032686D02*
X027690Y033576D01*
X028765Y033951D01*
X029623Y033093D01*
X029248Y032018D01*
X028358Y031084D01*
X028674Y029345D02*
X028967Y029345D01*
X028967Y027632D01*
X028674Y027632D01*
X028674Y029345D01*
X028937Y029082D02*
X030296Y029082D01*
X030510Y028817D01*
X030510Y028160D01*
X030296Y027894D01*
X028937Y027894D01*
X029406Y027347D02*
X029749Y027347D01*
X029749Y024782D01*
X029406Y024782D01*
X029406Y027347D01*
X029724Y027201D02*
X031014Y027170D01*
X032039Y026675D01*
X032039Y025462D01*
X031014Y024966D01*
X029724Y024936D01*
X026532Y021278D02*
X026097Y021278D01*
X025921Y021102D01*
X025921Y020667D01*
X026097Y020491D01*
X026532Y020491D01*
X026708Y020667D01*
X026708Y021102D01*
X026532Y021278D01*
X026454Y014063D02*
X026454Y010128D01*
X018954Y010128D01*
X018954Y014063D01*
X026454Y014063D01*
X026555Y003587D02*
X026120Y003587D01*
X025944Y003411D01*
X025944Y002976D01*
X026120Y002800D01*
X026555Y002800D01*
X026731Y002976D01*
X026731Y003411D01*
X026555Y003587D01*
D11*
X020967Y001660D02*
X020967Y001200D01*
X020660Y001660D01*
X020660Y001200D01*
X020507Y001277D02*
X020507Y001584D01*
X020430Y001660D01*
X020277Y001660D01*
X020200Y001584D01*
X020200Y001277D01*
X020277Y001200D01*
X020430Y001200D01*
X020507Y001277D01*
X014928Y001660D02*
X014621Y001660D01*
X014621Y001200D01*
X014621Y001430D02*
X014774Y001430D01*
X014467Y001660D02*
X014160Y001660D01*
X014160Y001200D01*
X014007Y001277D02*
X013930Y001200D01*
X013777Y001200D01*
X013700Y001277D01*
X013700Y001584D01*
X013777Y001660D01*
X013930Y001660D01*
X014007Y001584D01*
X014007Y001277D01*
X014160Y001430D02*
X014314Y001430D01*
X013630Y001440D02*
X013630Y001747D01*
X013630Y004340D02*
X013630Y004647D01*
X013476Y004493D02*
X013783Y004493D01*
X011283Y004493D02*
X010976Y004493D01*
X011130Y004340D02*
X011130Y004647D01*
X011130Y001747D02*
X011130Y001440D01*
X013627Y014300D02*
X013780Y014300D01*
X013857Y014377D01*
X014010Y014300D02*
X014317Y014300D01*
X014164Y014300D02*
X014164Y014760D01*
X014010Y014607D01*
X013857Y014684D02*
X013780Y014760D01*
X013627Y014760D01*
X013550Y014684D01*
X013550Y014377D01*
X013627Y014300D01*
X015450Y014377D02*
X015527Y014300D01*
X015680Y014300D01*
X015757Y014377D01*
X015910Y014300D02*
X016217Y014607D01*
X016217Y014684D01*
X016141Y014760D01*
X015987Y014760D01*
X015910Y014684D01*
X015757Y014684D02*
X015680Y014760D01*
X015527Y014760D01*
X015450Y014684D01*
X015450Y014377D01*
X015910Y014300D02*
X016217Y014300D01*
X018550Y014327D02*
X018627Y014250D01*
X018780Y014250D01*
X018857Y014327D01*
X019010Y014327D02*
X019087Y014250D01*
X019241Y014250D01*
X019317Y014327D01*
X019317Y014403D01*
X019241Y014480D01*
X019164Y014480D01*
X019241Y014480D02*
X019317Y014557D01*
X019317Y014634D01*
X019241Y014710D01*
X019087Y014710D01*
X019010Y014634D01*
X018857Y014634D02*
X018780Y014710D01*
X018627Y014710D01*
X018550Y014634D01*
X018550Y014327D01*
X020550Y014327D02*
X020627Y014250D01*
X020780Y014250D01*
X020857Y014327D01*
X021010Y014480D02*
X021241Y014710D01*
X021241Y014250D01*
X021317Y014480D02*
X021010Y014480D01*
X020857Y014634D02*
X020780Y014710D01*
X020627Y014710D01*
X020550Y014634D01*
X020550Y014327D01*
X024400Y023600D02*
X024400Y024060D01*
X024630Y024060D01*
X024707Y023984D01*
X024707Y023830D01*
X024630Y023753D01*
X024400Y023753D01*
X024553Y023753D02*
X024707Y023600D01*
X024860Y023600D02*
X025167Y023600D01*
X025014Y023600D02*
X025014Y024060D01*
X024860Y023907D01*
X025321Y023907D02*
X025474Y024060D01*
X025474Y023600D01*
X025321Y023600D02*
X025628Y023600D01*
X024860Y025100D02*
X024860Y025177D01*
X025167Y025484D01*
X025167Y025560D01*
X024860Y025560D01*
X024707Y025484D02*
X024707Y025330D01*
X024630Y025253D01*
X024400Y025253D01*
X024400Y025100D02*
X024400Y025560D01*
X024630Y025560D01*
X024707Y025484D01*
X024553Y025253D02*
X024707Y025100D01*
X024707Y026600D02*
X024553Y026753D01*
X024630Y026753D02*
X024400Y026753D01*
X024400Y026600D02*
X024400Y027060D01*
X024630Y027060D01*
X024707Y026984D01*
X024707Y026830D01*
X024630Y026753D01*
X024860Y026677D02*
X024937Y026600D01*
X025091Y026600D01*
X025167Y026677D01*
X025167Y026830D01*
X025091Y026907D01*
X025014Y026907D01*
X024860Y026830D01*
X024860Y027060D01*
X025167Y027060D01*
X025167Y028100D02*
X024860Y028100D01*
X024707Y028100D02*
X024553Y028253D01*
X024630Y028253D02*
X024400Y028253D01*
X024400Y028100D02*
X024400Y028560D01*
X024630Y028560D01*
X024707Y028484D01*
X024707Y028330D01*
X024630Y028253D01*
X024860Y028407D02*
X025014Y028560D01*
X025014Y028100D01*
X025321Y028330D02*
X025628Y028330D01*
X025551Y028100D02*
X025551Y028560D01*
X025321Y028330D01*
X025398Y029600D02*
X025321Y029677D01*
X025398Y029600D02*
X025551Y029600D01*
X025628Y029677D01*
X025628Y029830D01*
X025551Y029907D01*
X025474Y029907D01*
X025321Y029830D01*
X025321Y030060D01*
X025628Y030060D01*
X025167Y029600D02*
X024860Y029600D01*
X024707Y029600D02*
X024553Y029753D01*
X024630Y029753D02*
X024400Y029753D01*
X024400Y029600D02*
X024400Y030060D01*
X024630Y030060D01*
X024707Y029984D01*
X024707Y029830D01*
X024630Y029753D01*
X024860Y029907D02*
X025014Y030060D01*
X025014Y029600D01*
X025014Y031100D02*
X025014Y031560D01*
X024860Y031407D01*
X024707Y031484D02*
X024707Y031330D01*
X024630Y031253D01*
X024400Y031253D01*
X024400Y031100D02*
X024400Y031560D01*
X024630Y031560D01*
X024707Y031484D01*
X024553Y031253D02*
X024707Y031100D01*
X024860Y031100D02*
X025167Y031100D01*
X025321Y031177D02*
X025398Y031100D01*
X025551Y031100D01*
X025628Y031177D01*
X025628Y031253D01*
X025551Y031330D01*
X025474Y031330D01*
X025551Y031330D02*
X025628Y031407D01*
X025628Y031484D01*
X025551Y031560D01*
X025398Y031560D01*
X025321Y031484D01*
X018297Y034777D02*
X018220Y034700D01*
X017990Y034700D01*
X017990Y035160D01*
X018220Y035160D01*
X018297Y035084D01*
X018297Y035007D01*
X018220Y034930D01*
X017990Y034930D01*
X017836Y034853D02*
X017836Y034777D01*
X017759Y034700D01*
X017606Y034700D01*
X017529Y034777D01*
X017376Y034777D02*
X017376Y035160D01*
X017529Y035084D02*
X017606Y035160D01*
X017759Y035160D01*
X017836Y035084D01*
X017759Y034930D02*
X017836Y034853D01*
X017759Y034930D02*
X017606Y034930D01*
X017529Y035007D01*
X017529Y035084D01*
X017376Y034777D02*
X017299Y034700D01*
X017146Y034700D01*
X017069Y034777D01*
X017069Y035160D01*
X018220Y034930D02*
X018297Y034853D01*
X018297Y034777D01*
X012628Y032060D02*
X012474Y031984D01*
X012321Y031830D01*
X012551Y031830D01*
X012628Y031753D01*
X012628Y031677D01*
X012551Y031600D01*
X012398Y031600D01*
X012321Y031677D01*
X012321Y031830D01*
X012167Y031600D02*
X011860Y031600D01*
X011707Y031600D02*
X011553Y031753D01*
X011630Y031753D02*
X011400Y031753D01*
X011400Y031600D02*
X011400Y032060D01*
X011630Y032060D01*
X011707Y031984D01*
X011707Y031830D01*
X011630Y031753D01*
X011860Y031907D02*
X012014Y032060D01*
X012014Y031600D01*
X012014Y030560D02*
X012014Y030100D01*
X012167Y030100D02*
X011860Y030100D01*
X011707Y030100D02*
X011553Y030253D01*
X011630Y030253D02*
X011400Y030253D01*
X011400Y030100D02*
X011400Y030560D01*
X011630Y030560D01*
X011707Y030484D01*
X011707Y030330D01*
X011630Y030253D01*
X011860Y030407D02*
X012014Y030560D01*
X012321Y030484D02*
X012398Y030560D01*
X012551Y030560D01*
X012628Y030484D01*
X012628Y030407D01*
X012321Y030100D01*
X012628Y030100D01*
X012167Y029060D02*
X012014Y028984D01*
X011860Y028830D01*
X012091Y028830D01*
X012167Y028753D01*
X012167Y028677D01*
X012091Y028600D01*
X011937Y028600D01*
X011860Y028677D01*
X011860Y028830D01*
X011707Y028830D02*
X011630Y028753D01*
X011400Y028753D01*
X011400Y028600D02*
X011400Y029060D01*
X011630Y029060D01*
X011707Y028984D01*
X011707Y028830D01*
X011553Y028753D02*
X011707Y028600D01*
X011876Y028028D02*
X011800Y027951D01*
X011800Y027798D01*
X011876Y027721D01*
X012183Y027721D01*
X011876Y028028D01*
X012183Y028028D01*
X012260Y027951D01*
X012260Y027798D01*
X012183Y027721D01*
X012260Y027567D02*
X012260Y027260D01*
X012260Y027107D02*
X012107Y026953D01*
X012107Y027030D02*
X012107Y026800D01*
X012260Y026800D02*
X011800Y026800D01*
X011800Y027030D01*
X011876Y027107D01*
X012030Y027107D01*
X012107Y027030D01*
X011953Y027260D02*
X011800Y027414D01*
X012260Y027414D01*
X011260Y027337D02*
X011260Y027491D01*
X011183Y027567D01*
X010876Y027567D01*
X010800Y027491D01*
X010800Y027337D01*
X010876Y027260D01*
X010953Y027260D01*
X011030Y027337D01*
X011030Y027567D01*
X011260Y027337D02*
X011183Y027260D01*
X011260Y027107D02*
X011107Y026953D01*
X011107Y027030D02*
X011107Y026800D01*
X011260Y026800D02*
X010800Y026800D01*
X010800Y027030D01*
X010876Y027107D01*
X011030Y027107D01*
X011107Y027030D01*
X010260Y027107D02*
X010107Y026953D01*
X010107Y027030D02*
X010107Y026800D01*
X010260Y026800D02*
X009800Y026800D01*
X009800Y027030D01*
X009876Y027107D01*
X010030Y027107D01*
X010107Y027030D01*
X010030Y027260D02*
X010030Y027567D01*
X010260Y027491D02*
X009800Y027491D01*
X010030Y027260D01*
X009260Y027337D02*
X009183Y027260D01*
X009260Y027337D02*
X009260Y027491D01*
X009183Y027567D01*
X009107Y027567D01*
X009030Y027491D01*
X009030Y027414D01*
X009030Y027491D02*
X008953Y027567D01*
X008876Y027567D01*
X008800Y027491D01*
X008800Y027337D01*
X008876Y027260D01*
X008876Y027107D02*
X009030Y027107D01*
X009107Y027030D01*
X009107Y026800D01*
X009260Y026800D02*
X008800Y026800D01*
X008800Y027030D01*
X008876Y027107D01*
X009107Y026953D02*
X009260Y027107D01*
X008260Y027107D02*
X008107Y026953D01*
X008107Y027030D02*
X008107Y026800D01*
X008260Y026800D02*
X007800Y026800D01*
X007800Y027030D01*
X007876Y027107D01*
X008030Y027107D01*
X008107Y027030D01*
X008260Y027260D02*
X007953Y027567D01*
X007876Y027567D01*
X007800Y027491D01*
X007800Y027337D01*
X007876Y027260D01*
X008260Y027260D02*
X008260Y027567D01*
X007260Y027567D02*
X007260Y027260D01*
X007260Y027107D02*
X007107Y026953D01*
X007107Y027030D02*
X007107Y026800D01*
X007260Y026800D02*
X006800Y026800D01*
X006800Y027030D01*
X006876Y027107D01*
X007030Y027107D01*
X007107Y027030D01*
X006953Y027260D02*
X006800Y027414D01*
X007260Y027414D01*
X011400Y033100D02*
X011400Y033560D01*
X011630Y033560D01*
X011707Y033484D01*
X011707Y033330D01*
X011630Y033253D01*
X011400Y033253D01*
X011553Y033253D02*
X011707Y033100D01*
X011860Y033177D02*
X011860Y033253D01*
X011937Y033330D01*
X012091Y033330D01*
X012167Y033253D01*
X012167Y033177D01*
X012091Y033100D01*
X011937Y033100D01*
X011860Y033177D01*
X011937Y033330D02*
X011860Y033407D01*
X011860Y033484D01*
X011937Y033560D01*
X012091Y033560D01*
X012167Y033484D01*
X012167Y033407D01*
X012091Y033330D01*
D12*
X012430Y034180D02*
X011430Y034180D01*
X011430Y034330D01*
X011430Y035030D02*
X011430Y035180D01*
X012430Y035180D01*
X012430Y035030D01*
X012320Y034368D02*
X012294Y034337D01*
X012265Y034308D01*
X012233Y034282D01*
X012200Y034259D01*
X012165Y034239D01*
X012128Y034221D01*
X012090Y034206D01*
X012051Y034195D01*
X012011Y034187D01*
X011971Y034182D01*
X011930Y034180D01*
X011540Y034992D02*
X011566Y035023D01*
X011595Y035052D01*
X011627Y035078D01*
X011660Y035101D01*
X011695Y035121D01*
X011732Y035139D01*
X011770Y035154D01*
X011809Y035165D01*
X011849Y035173D01*
X011889Y035178D01*
X011930Y035180D01*
X011540Y034368D02*
X011566Y034337D01*
X011595Y034308D01*
X011627Y034282D01*
X011660Y034259D01*
X011695Y034239D01*
X011732Y034221D01*
X011770Y034206D01*
X011809Y034195D01*
X011849Y034187D01*
X011889Y034182D01*
X011930Y034180D01*
X012320Y034992D02*
X012294Y035023D01*
X012265Y035052D01*
X012233Y035078D01*
X012200Y035101D01*
X012165Y035121D01*
X012128Y035139D01*
X012090Y035154D01*
X012051Y035165D01*
X012011Y035173D01*
X011971Y035178D01*
X011930Y035180D01*
X012430Y034330D02*
X012430Y034180D01*
X010387Y033180D02*
X010281Y033286D01*
X010387Y033180D02*
X009680Y032473D01*
X009574Y032579D01*
X009625Y032683D02*
X009665Y032680D01*
X009706Y032681D01*
X009747Y032684D01*
X009787Y032692D01*
X009826Y032702D01*
X009865Y032715D01*
X009902Y032732D01*
X009938Y032751D01*
X009972Y032774D01*
X010004Y032799D01*
X010034Y032826D01*
X010061Y032856D01*
X010086Y032888D01*
X010109Y032922D01*
X010128Y032958D01*
X010145Y032995D01*
X010158Y033034D01*
X010168Y033073D01*
X010176Y033113D01*
X010179Y033154D01*
X010180Y033195D01*
X010177Y033235D01*
X009735Y033677D02*
X009695Y033680D01*
X009654Y033679D01*
X009613Y033676D01*
X009573Y033668D01*
X009534Y033658D01*
X009495Y033645D01*
X009458Y033628D01*
X009422Y033609D01*
X009388Y033586D01*
X009356Y033561D01*
X009326Y033534D01*
X008973Y033180D02*
X009079Y033074D01*
X008973Y033180D02*
X009680Y033887D01*
X009786Y033781D01*
X009326Y033534D02*
X009299Y033504D01*
X009274Y033472D01*
X009251Y033438D01*
X009232Y033402D01*
X009215Y033365D01*
X009202Y033326D01*
X009192Y033287D01*
X009184Y033247D01*
X009181Y033206D01*
X009180Y033165D01*
X009183Y033125D01*
X006180Y032180D02*
X006182Y032243D01*
X006188Y032305D01*
X006198Y032367D01*
X006211Y032429D01*
X006229Y032489D01*
X006250Y032548D01*
X006275Y032606D01*
X006304Y032662D01*
X006336Y032716D01*
X006371Y032768D01*
X006409Y032817D01*
X006451Y032865D01*
X006495Y032909D01*
X006543Y032951D01*
X006592Y032989D01*
X006644Y033024D01*
X006698Y033056D01*
X006754Y033085D01*
X006812Y033110D01*
X006871Y033131D01*
X006931Y033149D01*
X006993Y033162D01*
X007055Y033172D01*
X007117Y033178D01*
X007180Y033180D01*
X007243Y033178D01*
X007305Y033172D01*
X007367Y033162D01*
X007429Y033149D01*
X007489Y033131D01*
X007548Y033110D01*
X007606Y033085D01*
X007662Y033056D01*
X007716Y033024D01*
X007768Y032989D01*
X007817Y032951D01*
X007865Y032909D01*
X007909Y032865D01*
X007951Y032817D01*
X007989Y032768D01*
X008024Y032716D01*
X008056Y032662D01*
X008085Y032606D01*
X008110Y032548D01*
X008131Y032489D01*
X008149Y032429D01*
X008162Y032367D01*
X008172Y032305D01*
X008178Y032243D01*
X008180Y032180D01*
X008178Y032117D01*
X008172Y032055D01*
X008162Y031993D01*
X008149Y031931D01*
X008131Y031871D01*
X008110Y031812D01*
X008085Y031754D01*
X008056Y031698D01*
X008024Y031644D01*
X007989Y031592D01*
X007951Y031543D01*
X007909Y031495D01*
X007865Y031451D01*
X007817Y031409D01*
X007768Y031371D01*
X007716Y031336D01*
X007662Y031304D01*
X007606Y031275D01*
X007548Y031250D01*
X007489Y031229D01*
X007429Y031211D01*
X007367Y031198D01*
X007305Y031188D01*
X007243Y031182D01*
X007180Y031180D01*
X007117Y031182D01*
X007055Y031188D01*
X006993Y031198D01*
X006931Y031211D01*
X006871Y031229D01*
X006812Y031250D01*
X006754Y031275D01*
X006698Y031304D01*
X006644Y031336D01*
X006592Y031371D01*
X006543Y031409D01*
X006495Y031451D01*
X006451Y031495D01*
X006409Y031543D01*
X006371Y031592D01*
X006336Y031644D01*
X006304Y031698D01*
X006275Y031754D01*
X006250Y031812D01*
X006229Y031871D01*
X006211Y031931D01*
X006198Y031993D01*
X006188Y032055D01*
X006182Y032117D01*
X006180Y032180D01*
X005830Y028930D02*
X005680Y028930D01*
X005680Y027930D01*
X005830Y027930D01*
X006492Y028040D02*
X006523Y028066D01*
X006552Y028095D01*
X006578Y028127D01*
X006601Y028160D01*
X006621Y028195D01*
X006639Y028232D01*
X006654Y028270D01*
X006665Y028309D01*
X006673Y028349D01*
X006678Y028389D01*
X006680Y028430D01*
X006680Y027930D02*
X006530Y027930D01*
X006680Y027930D02*
X006680Y028930D01*
X006530Y028930D01*
X005868Y028820D02*
X005837Y028794D01*
X005808Y028765D01*
X005782Y028733D01*
X005759Y028700D01*
X005739Y028665D01*
X005721Y028628D01*
X005706Y028590D01*
X005695Y028551D01*
X005687Y028511D01*
X005682Y028471D01*
X005680Y028430D01*
X006492Y028820D02*
X006523Y028794D01*
X006552Y028765D01*
X006578Y028733D01*
X006601Y028700D01*
X006621Y028665D01*
X006639Y028628D01*
X006654Y028590D01*
X006665Y028551D01*
X006673Y028511D01*
X006678Y028471D01*
X006680Y028430D01*
X005868Y028040D02*
X005837Y028066D01*
X005808Y028095D01*
X005782Y028127D01*
X005759Y028160D01*
X005739Y028195D01*
X005721Y028232D01*
X005706Y028270D01*
X005695Y028309D01*
X005687Y028349D01*
X005682Y028389D01*
X005680Y028430D01*
X003680Y026180D02*
X003682Y026243D01*
X003688Y026305D01*
X003698Y026367D01*
X003711Y026429D01*
X003729Y026489D01*
X003750Y026548D01*
X003775Y026606D01*
X003804Y026662D01*
X003836Y026716D01*
X003871Y026768D01*
X003909Y026817D01*
X003951Y026865D01*
X003995Y026909D01*
X004043Y026951D01*
X004092Y026989D01*
X004144Y027024D01*
X004198Y027056D01*
X004254Y027085D01*
X004312Y027110D01*
X004371Y027131D01*
X004431Y027149D01*
X004493Y027162D01*
X004555Y027172D01*
X004617Y027178D01*
X004680Y027180D01*
X004743Y027178D01*
X004805Y027172D01*
X004867Y027162D01*
X004929Y027149D01*
X004989Y027131D01*
X005048Y027110D01*
X005106Y027085D01*
X005162Y027056D01*
X005216Y027024D01*
X005268Y026989D01*
X005317Y026951D01*
X005365Y026909D01*
X005409Y026865D01*
X005451Y026817D01*
X005489Y026768D01*
X005524Y026716D01*
X005556Y026662D01*
X005585Y026606D01*
X005610Y026548D01*
X005631Y026489D01*
X005649Y026429D01*
X005662Y026367D01*
X005672Y026305D01*
X005678Y026243D01*
X005680Y026180D01*
X005678Y026117D01*
X005672Y026055D01*
X005662Y025993D01*
X005649Y025931D01*
X005631Y025871D01*
X005610Y025812D01*
X005585Y025754D01*
X005556Y025698D01*
X005524Y025644D01*
X005489Y025592D01*
X005451Y025543D01*
X005409Y025495D01*
X005365Y025451D01*
X005317Y025409D01*
X005268Y025371D01*
X005216Y025336D01*
X005162Y025304D01*
X005106Y025275D01*
X005048Y025250D01*
X004989Y025229D01*
X004929Y025211D01*
X004867Y025198D01*
X004805Y025188D01*
X004743Y025182D01*
X004680Y025180D01*
X004617Y025182D01*
X004555Y025188D01*
X004493Y025198D01*
X004431Y025211D01*
X004371Y025229D01*
X004312Y025250D01*
X004254Y025275D01*
X004198Y025304D01*
X004144Y025336D01*
X004092Y025371D01*
X004043Y025409D01*
X003995Y025451D01*
X003951Y025495D01*
X003909Y025543D01*
X003871Y025592D01*
X003836Y025644D01*
X003804Y025698D01*
X003775Y025754D01*
X003750Y025812D01*
X003729Y025871D01*
X003711Y025931D01*
X003698Y025993D01*
X003688Y026055D01*
X003682Y026117D01*
X003680Y026180D01*
X010196Y022918D02*
X010196Y021442D01*
X010284Y021668D02*
X010286Y021690D01*
X010292Y021712D01*
X010301Y021732D01*
X010314Y021750D01*
X010330Y021766D01*
X010348Y021779D01*
X010368Y021788D01*
X010390Y021794D01*
X010412Y021796D01*
X010434Y021794D01*
X010456Y021788D01*
X010476Y021779D01*
X010494Y021766D01*
X010510Y021750D01*
X010523Y021732D01*
X010532Y021712D01*
X010538Y021690D01*
X010540Y021668D01*
X010538Y021646D01*
X010532Y021624D01*
X010523Y021604D01*
X010510Y021586D01*
X010494Y021570D01*
X010476Y021557D01*
X010456Y021548D01*
X010434Y021542D01*
X010412Y021540D01*
X010390Y021542D01*
X010368Y021548D01*
X010348Y021557D01*
X010330Y021570D01*
X010314Y021586D01*
X010301Y021604D01*
X010292Y021624D01*
X010286Y021646D01*
X010284Y021668D01*
X012164Y021442D02*
X012164Y022918D01*
X022180Y022930D02*
X022430Y022680D01*
X022930Y022680D01*
X023180Y022930D01*
X023180Y023430D01*
X022930Y023680D01*
X023180Y023930D01*
X023180Y024430D01*
X022930Y024680D01*
X023180Y024930D01*
X023180Y025430D01*
X022930Y025680D01*
X023180Y025930D01*
X023180Y026430D01*
X022930Y026680D01*
X023180Y026930D01*
X023180Y027430D01*
X022930Y027680D01*
X022430Y027680D01*
X022180Y027430D01*
X022180Y026930D01*
X022430Y026680D01*
X022180Y026430D01*
X022180Y025930D01*
X022430Y025680D01*
X022180Y025430D01*
X022180Y024930D01*
X022430Y024680D01*
X022180Y024430D01*
X022180Y023930D01*
X022430Y023680D01*
X022180Y023430D01*
X022180Y022930D01*
X028180Y028180D02*
X028330Y028180D01*
X028180Y028180D02*
X028180Y029180D01*
X028330Y029180D01*
X028368Y029070D02*
X028337Y029044D01*
X028308Y029015D01*
X028282Y028983D01*
X028259Y028950D01*
X028239Y028915D01*
X028221Y028878D01*
X028206Y028840D01*
X028195Y028801D01*
X028187Y028761D01*
X028182Y028721D01*
X028180Y028680D01*
X028992Y029070D02*
X029023Y029044D01*
X029052Y029015D01*
X029078Y028983D01*
X029101Y028950D01*
X029121Y028915D01*
X029139Y028878D01*
X029154Y028840D01*
X029165Y028801D01*
X029173Y028761D01*
X029178Y028721D01*
X029180Y028680D01*
X029180Y029180D02*
X029030Y029180D01*
X029180Y029180D02*
X029180Y028180D01*
X029030Y028180D01*
X028368Y028290D02*
X028337Y028316D01*
X028308Y028345D01*
X028282Y028377D01*
X028259Y028410D01*
X028239Y028445D01*
X028221Y028482D01*
X028206Y028520D01*
X028195Y028559D01*
X028187Y028599D01*
X028182Y028639D01*
X028180Y028680D01*
X028992Y028290D02*
X029023Y028316D01*
X029052Y028345D01*
X029078Y028377D01*
X029101Y028410D01*
X029121Y028445D01*
X029139Y028482D01*
X029154Y028520D01*
X029165Y028559D01*
X029173Y028599D01*
X029178Y028639D01*
X029180Y028680D01*
X029180Y026180D02*
X029182Y026243D01*
X029188Y026305D01*
X029198Y026367D01*
X029211Y026429D01*
X029229Y026489D01*
X029250Y026548D01*
X029275Y026606D01*
X029304Y026662D01*
X029336Y026716D01*
X029371Y026768D01*
X029409Y026817D01*
X029451Y026865D01*
X029495Y026909D01*
X029543Y026951D01*
X029592Y026989D01*
X029644Y027024D01*
X029698Y027056D01*
X029754Y027085D01*
X029812Y027110D01*
X029871Y027131D01*
X029931Y027149D01*
X029993Y027162D01*
X030055Y027172D01*
X030117Y027178D01*
X030180Y027180D01*
X030243Y027178D01*
X030305Y027172D01*
X030367Y027162D01*
X030429Y027149D01*
X030489Y027131D01*
X030548Y027110D01*
X030606Y027085D01*
X030662Y027056D01*
X030716Y027024D01*
X030768Y026989D01*
X030817Y026951D01*
X030865Y026909D01*
X030909Y026865D01*
X030951Y026817D01*
X030989Y026768D01*
X031024Y026716D01*
X031056Y026662D01*
X031085Y026606D01*
X031110Y026548D01*
X031131Y026489D01*
X031149Y026429D01*
X031162Y026367D01*
X031172Y026305D01*
X031178Y026243D01*
X031180Y026180D01*
X031178Y026117D01*
X031172Y026055D01*
X031162Y025993D01*
X031149Y025931D01*
X031131Y025871D01*
X031110Y025812D01*
X031085Y025754D01*
X031056Y025698D01*
X031024Y025644D01*
X030989Y025592D01*
X030951Y025543D01*
X030909Y025495D01*
X030865Y025451D01*
X030817Y025409D01*
X030768Y025371D01*
X030716Y025336D01*
X030662Y025304D01*
X030606Y025275D01*
X030548Y025250D01*
X030489Y025229D01*
X030429Y025211D01*
X030367Y025198D01*
X030305Y025188D01*
X030243Y025182D01*
X030180Y025180D01*
X030117Y025182D01*
X030055Y025188D01*
X029993Y025198D01*
X029931Y025211D01*
X029871Y025229D01*
X029812Y025250D01*
X029754Y025275D01*
X029698Y025304D01*
X029644Y025336D01*
X029592Y025371D01*
X029543Y025409D01*
X029495Y025451D01*
X029451Y025495D01*
X029409Y025543D01*
X029371Y025592D01*
X029336Y025644D01*
X029304Y025698D01*
X029275Y025754D01*
X029250Y025812D01*
X029229Y025871D01*
X029211Y025931D01*
X029198Y025993D01*
X029188Y026055D01*
X029182Y026117D01*
X029180Y026180D01*
X026680Y031680D02*
X026682Y031743D01*
X026688Y031805D01*
X026698Y031867D01*
X026711Y031929D01*
X026729Y031989D01*
X026750Y032048D01*
X026775Y032106D01*
X026804Y032162D01*
X026836Y032216D01*
X026871Y032268D01*
X026909Y032317D01*
X026951Y032365D01*
X026995Y032409D01*
X027043Y032451D01*
X027092Y032489D01*
X027144Y032524D01*
X027198Y032556D01*
X027254Y032585D01*
X027312Y032610D01*
X027371Y032631D01*
X027431Y032649D01*
X027493Y032662D01*
X027555Y032672D01*
X027617Y032678D01*
X027680Y032680D01*
X027743Y032678D01*
X027805Y032672D01*
X027867Y032662D01*
X027929Y032649D01*
X027989Y032631D01*
X028048Y032610D01*
X028106Y032585D01*
X028162Y032556D01*
X028216Y032524D01*
X028268Y032489D01*
X028317Y032451D01*
X028365Y032409D01*
X028409Y032365D01*
X028451Y032317D01*
X028489Y032268D01*
X028524Y032216D01*
X028556Y032162D01*
X028585Y032106D01*
X028610Y032048D01*
X028631Y031989D01*
X028649Y031929D01*
X028662Y031867D01*
X028672Y031805D01*
X028678Y031743D01*
X028680Y031680D01*
X028678Y031617D01*
X028672Y031555D01*
X028662Y031493D01*
X028649Y031431D01*
X028631Y031371D01*
X028610Y031312D01*
X028585Y031254D01*
X028556Y031198D01*
X028524Y031144D01*
X028489Y031092D01*
X028451Y031043D01*
X028409Y030995D01*
X028365Y030951D01*
X028317Y030909D01*
X028268Y030871D01*
X028216Y030836D01*
X028162Y030804D01*
X028106Y030775D01*
X028048Y030750D01*
X027989Y030729D01*
X027929Y030711D01*
X027867Y030698D01*
X027805Y030688D01*
X027743Y030682D01*
X027680Y030680D01*
X027617Y030682D01*
X027555Y030688D01*
X027493Y030698D01*
X027431Y030711D01*
X027371Y030729D01*
X027312Y030750D01*
X027254Y030775D01*
X027198Y030804D01*
X027144Y030836D01*
X027092Y030871D01*
X027043Y030909D01*
X026995Y030951D01*
X026951Y030995D01*
X026909Y031043D01*
X026871Y031092D01*
X026836Y031144D01*
X026804Y031198D01*
X026775Y031254D01*
X026750Y031312D01*
X026729Y031371D01*
X026711Y031431D01*
X026698Y031493D01*
X026688Y031555D01*
X026682Y031617D01*
X026680Y031680D01*
X025781Y032574D02*
X025887Y032680D01*
X025180Y033387D01*
X025074Y033281D01*
X024683Y032735D02*
X024680Y032695D01*
X024681Y032654D01*
X024684Y032613D01*
X024692Y032573D01*
X024702Y032534D01*
X024715Y032495D01*
X024732Y032458D01*
X024751Y032422D01*
X024774Y032388D01*
X024799Y032356D01*
X024826Y032326D01*
X024473Y032680D02*
X024579Y032786D01*
X024473Y032680D02*
X025180Y031973D01*
X025286Y032079D01*
X025235Y032183D02*
X025195Y032180D01*
X025154Y032181D01*
X025113Y032184D01*
X025073Y032192D01*
X025034Y032202D01*
X024995Y032215D01*
X024958Y032232D01*
X024922Y032251D01*
X024888Y032274D01*
X024856Y032299D01*
X024826Y032326D01*
X025125Y033177D02*
X025165Y033180D01*
X025206Y033179D01*
X025247Y033176D01*
X025287Y033168D01*
X025326Y033158D01*
X025365Y033145D01*
X025402Y033128D01*
X025438Y033109D01*
X025472Y033086D01*
X025504Y033061D01*
X025534Y033034D01*
X025561Y033004D01*
X025586Y032972D01*
X025609Y032938D01*
X025628Y032902D01*
X025645Y032865D01*
X025658Y032826D01*
X025668Y032787D01*
X025676Y032747D01*
X025679Y032706D01*
X025680Y032665D01*
X025677Y032625D01*
X023680Y034180D02*
X023680Y034330D01*
X023680Y034180D02*
X022680Y034180D01*
X022680Y034330D01*
X022680Y035030D02*
X022680Y035180D01*
X023680Y035180D01*
X023680Y035030D01*
X023570Y034368D02*
X023544Y034337D01*
X023515Y034308D01*
X023483Y034282D01*
X023450Y034259D01*
X023415Y034239D01*
X023378Y034221D01*
X023340Y034206D01*
X023301Y034195D01*
X023261Y034187D01*
X023221Y034182D01*
X023180Y034180D01*
X022790Y034992D02*
X022816Y035023D01*
X022845Y035052D01*
X022877Y035078D01*
X022910Y035101D01*
X022945Y035121D01*
X022982Y035139D01*
X023020Y035154D01*
X023059Y035165D01*
X023099Y035173D01*
X023139Y035178D01*
X023180Y035180D01*
X022790Y034368D02*
X022816Y034337D01*
X022845Y034308D01*
X022877Y034282D01*
X022910Y034259D01*
X022945Y034239D01*
X022982Y034221D01*
X023020Y034206D01*
X023059Y034195D01*
X023099Y034187D01*
X023139Y034182D01*
X023180Y034180D01*
X023570Y034992D02*
X023544Y035023D01*
X023515Y035052D01*
X023483Y035078D01*
X023450Y035101D01*
X023415Y035121D01*
X023378Y035139D01*
X023340Y035154D01*
X023301Y035165D01*
X023261Y035173D01*
X023221Y035178D01*
X023180Y035180D01*
X019680Y036680D02*
X019682Y036743D01*
X019688Y036805D01*
X019698Y036867D01*
X019711Y036929D01*
X019729Y036989D01*
X019750Y037048D01*
X019775Y037106D01*
X019804Y037162D01*
X019836Y037216D01*
X019871Y037268D01*
X019909Y037317D01*
X019951Y037365D01*
X019995Y037409D01*
X020043Y037451D01*
X020092Y037489D01*
X020144Y037524D01*
X020198Y037556D01*
X020254Y037585D01*
X020312Y037610D01*
X020371Y037631D01*
X020431Y037649D01*
X020493Y037662D01*
X020555Y037672D01*
X020617Y037678D01*
X020680Y037680D01*
X020743Y037678D01*
X020805Y037672D01*
X020867Y037662D01*
X020929Y037649D01*
X020989Y037631D01*
X021048Y037610D01*
X021106Y037585D01*
X021162Y037556D01*
X021216Y037524D01*
X021268Y037489D01*
X021317Y037451D01*
X021365Y037409D01*
X021409Y037365D01*
X021451Y037317D01*
X021489Y037268D01*
X021524Y037216D01*
X021556Y037162D01*
X021585Y037106D01*
X021610Y037048D01*
X021631Y036989D01*
X021649Y036929D01*
X021662Y036867D01*
X021672Y036805D01*
X021678Y036743D01*
X021680Y036680D01*
X021678Y036617D01*
X021672Y036555D01*
X021662Y036493D01*
X021649Y036431D01*
X021631Y036371D01*
X021610Y036312D01*
X021585Y036254D01*
X021556Y036198D01*
X021524Y036144D01*
X021489Y036092D01*
X021451Y036043D01*
X021409Y035995D01*
X021365Y035951D01*
X021317Y035909D01*
X021268Y035871D01*
X021216Y035836D01*
X021162Y035804D01*
X021106Y035775D01*
X021048Y035750D01*
X020989Y035729D01*
X020929Y035711D01*
X020867Y035698D01*
X020805Y035688D01*
X020743Y035682D01*
X020680Y035680D01*
X020617Y035682D01*
X020555Y035688D01*
X020493Y035698D01*
X020431Y035711D01*
X020371Y035729D01*
X020312Y035750D01*
X020254Y035775D01*
X020198Y035804D01*
X020144Y035836D01*
X020092Y035871D01*
X020043Y035909D01*
X019995Y035951D01*
X019951Y035995D01*
X019909Y036043D01*
X019871Y036092D01*
X019836Y036144D01*
X019804Y036198D01*
X019775Y036254D01*
X019750Y036312D01*
X019729Y036371D01*
X019711Y036431D01*
X019698Y036493D01*
X019688Y036555D01*
X019682Y036617D01*
X019680Y036680D01*
X013180Y036680D02*
X013182Y036743D01*
X013188Y036805D01*
X013198Y036867D01*
X013211Y036929D01*
X013229Y036989D01*
X013250Y037048D01*
X013275Y037106D01*
X013304Y037162D01*
X013336Y037216D01*
X013371Y037268D01*
X013409Y037317D01*
X013451Y037365D01*
X013495Y037409D01*
X013543Y037451D01*
X013592Y037489D01*
X013644Y037524D01*
X013698Y037556D01*
X013754Y037585D01*
X013812Y037610D01*
X013871Y037631D01*
X013931Y037649D01*
X013993Y037662D01*
X014055Y037672D01*
X014117Y037678D01*
X014180Y037680D01*
X014243Y037678D01*
X014305Y037672D01*
X014367Y037662D01*
X014429Y037649D01*
X014489Y037631D01*
X014548Y037610D01*
X014606Y037585D01*
X014662Y037556D01*
X014716Y037524D01*
X014768Y037489D01*
X014817Y037451D01*
X014865Y037409D01*
X014909Y037365D01*
X014951Y037317D01*
X014989Y037268D01*
X015024Y037216D01*
X015056Y037162D01*
X015085Y037106D01*
X015110Y037048D01*
X015131Y036989D01*
X015149Y036929D01*
X015162Y036867D01*
X015172Y036805D01*
X015178Y036743D01*
X015180Y036680D01*
X015178Y036617D01*
X015172Y036555D01*
X015162Y036493D01*
X015149Y036431D01*
X015131Y036371D01*
X015110Y036312D01*
X015085Y036254D01*
X015056Y036198D01*
X015024Y036144D01*
X014989Y036092D01*
X014951Y036043D01*
X014909Y035995D01*
X014865Y035951D01*
X014817Y035909D01*
X014768Y035871D01*
X014716Y035836D01*
X014662Y035804D01*
X014606Y035775D01*
X014548Y035750D01*
X014489Y035729D01*
X014429Y035711D01*
X014367Y035698D01*
X014305Y035688D01*
X014243Y035682D01*
X014180Y035680D01*
X014117Y035682D01*
X014055Y035688D01*
X013993Y035698D01*
X013931Y035711D01*
X013871Y035729D01*
X013812Y035750D01*
X013754Y035775D01*
X013698Y035804D01*
X013644Y035836D01*
X013592Y035871D01*
X013543Y035909D01*
X013495Y035951D01*
X013451Y035995D01*
X013409Y036043D01*
X013371Y036092D01*
X013336Y036144D01*
X013304Y036198D01*
X013275Y036254D01*
X013250Y036312D01*
X013229Y036371D01*
X013211Y036431D01*
X013198Y036493D01*
X013188Y036555D01*
X013182Y036617D01*
X013180Y036680D01*
X022410Y004151D02*
X022730Y004151D01*
X022837Y004044D01*
X022837Y003830D01*
X022730Y003724D01*
X022410Y003724D01*
X022624Y003724D02*
X022837Y003510D01*
X023055Y003510D02*
X023482Y003510D01*
X023699Y003724D02*
X023913Y003510D01*
X024126Y003724D01*
X024126Y004151D01*
X023699Y004151D02*
X023699Y003724D01*
X023268Y003830D02*
X023055Y003830D01*
X023055Y003510D02*
X023055Y004151D01*
X023482Y004151D01*
X022410Y004151D02*
X022410Y003510D01*
X022424Y003051D02*
X022424Y002410D01*
X022637Y002410D02*
X022210Y002410D01*
X022210Y002837D02*
X022424Y003051D01*
X022855Y002517D02*
X022961Y002517D01*
X022961Y002410D01*
X022855Y002410D01*
X022855Y002517D01*
X023177Y002410D02*
X023604Y002837D01*
X023604Y002944D01*
X023497Y003051D01*
X023284Y003051D01*
X023177Y002944D01*
X023177Y002410D02*
X023604Y002410D01*
X023821Y002410D02*
X023821Y002517D01*
X023928Y002517D01*
X023928Y002410D01*
X023821Y002410D01*
X024144Y002517D02*
X024571Y002944D01*
X024571Y002517D01*
X024464Y002410D01*
X024250Y002410D01*
X024144Y002517D01*
X024144Y002944D01*
X024250Y003051D01*
X024464Y003051D01*
X024571Y002944D01*
D13*
X020980Y015680D02*
X020380Y015680D01*
X020380Y017605D01*
X020980Y017605D01*
X020980Y015680D01*
X020380Y015680D02*
X018830Y015680D01*
X018830Y017605D01*
X018230Y017605D01*
X018230Y015680D01*
X018830Y015680D01*
X018978Y015828D01*
X018979Y015828D01*
X018980Y015828D02*
X018980Y017453D01*
X018980Y017452D01*
X018981Y017452D02*
X020366Y017452D01*
X020380Y017605D02*
X018830Y017605D01*
X018830Y017603D02*
X018980Y017453D01*
X018980Y015830D02*
X020367Y015830D01*
X016480Y015680D02*
X016480Y017605D01*
X015880Y017605D01*
X015880Y015680D01*
X016480Y015680D01*
X015880Y015680D02*
X014330Y015680D01*
X014330Y017605D01*
X013730Y017605D01*
X013730Y015680D01*
X014330Y015680D01*
X014478Y015828D01*
X014479Y015828D01*
X014480Y015828D02*
X014480Y017453D01*
X014480Y017452D01*
X014481Y017452D02*
X015866Y017452D01*
X015880Y017605D02*
X014330Y017605D01*
X014330Y017603D02*
X014480Y017453D01*
X014480Y015830D02*
X015867Y015830D01*
D14*
X014576Y017180D02*
X014578Y017200D01*
X014583Y017219D01*
X014593Y017236D01*
X014605Y017252D01*
X014620Y017265D01*
X014637Y017275D01*
X014655Y017281D01*
X014675Y017284D01*
X014695Y017283D01*
X014714Y017278D01*
X014732Y017270D01*
X014748Y017259D01*
X014762Y017244D01*
X014772Y017228D01*
X014780Y017209D01*
X014784Y017190D01*
X014784Y017170D01*
X014780Y017151D01*
X014772Y017132D01*
X014762Y017116D01*
X014748Y017101D01*
X014732Y017090D01*
X014714Y017082D01*
X014695Y017077D01*
X014675Y017076D01*
X014655Y017079D01*
X014637Y017085D01*
X014620Y017095D01*
X014605Y017108D01*
X014593Y017124D01*
X014583Y017141D01*
X014578Y017160D01*
X014576Y017180D01*
X014573Y017741D02*
X014475Y017888D01*
X014428Y017839D02*
X014428Y017741D01*
X014475Y017741D02*
X014573Y017888D01*
X014620Y017814D02*
X014718Y017814D01*
X014765Y017814D02*
X014863Y017814D01*
X014910Y017864D02*
X014934Y017888D01*
X014983Y017888D01*
X015008Y017864D01*
X015008Y017839D01*
X014910Y017741D01*
X015008Y017741D01*
X015055Y017741D02*
X015055Y017765D01*
X015153Y017864D01*
X015153Y017888D01*
X015055Y017888D01*
X015200Y017864D02*
X015200Y017765D01*
X015224Y017741D01*
X015273Y017741D01*
X015298Y017765D01*
X015345Y017765D02*
X015369Y017741D01*
X015418Y017741D01*
X015443Y017765D01*
X015443Y017790D01*
X015418Y017814D01*
X015369Y017814D01*
X015345Y017839D01*
X015345Y017864D01*
X015369Y017888D01*
X015418Y017888D01*
X015443Y017864D01*
X015490Y017839D02*
X015539Y017888D01*
X015588Y017839D01*
X015588Y017741D01*
X015588Y017814D02*
X015490Y017814D01*
X015490Y017839D02*
X015490Y017741D01*
X015635Y017814D02*
X015733Y017814D01*
X015780Y017814D02*
X015878Y017814D01*
X015925Y017741D02*
X015925Y017888D01*
X016023Y017741D01*
X016023Y017888D01*
X016070Y017888D02*
X016143Y017888D01*
X016168Y017864D01*
X016168Y017765D01*
X016143Y017741D01*
X016070Y017741D01*
X016070Y017888D01*
X015684Y017864D02*
X015684Y017765D01*
X015298Y017864D02*
X015273Y017888D01*
X015224Y017888D01*
X015200Y017864D01*
X014838Y017888D02*
X014765Y017814D01*
X014693Y017741D02*
X014693Y017888D01*
X014620Y017814D01*
X014428Y017814D02*
X014330Y017814D01*
X014330Y017839D02*
X014379Y017888D01*
X014428Y017839D01*
X014330Y017839D02*
X014330Y017741D01*
X014283Y017741D02*
X014283Y017888D01*
X014234Y017839D01*
X014185Y017888D01*
X014185Y017741D01*
X014838Y017741D02*
X014838Y017888D01*
X018685Y017888D02*
X018734Y017839D01*
X018783Y017888D01*
X018783Y017741D01*
X018830Y017741D02*
X018830Y017839D01*
X018879Y017888D01*
X018928Y017839D01*
X018928Y017741D01*
X018975Y017741D02*
X019073Y017888D01*
X019120Y017814D02*
X019218Y017814D01*
X019265Y017814D02*
X019363Y017814D01*
X019410Y017864D02*
X019434Y017888D01*
X019483Y017888D01*
X019508Y017864D01*
X019508Y017839D01*
X019410Y017741D01*
X019508Y017741D01*
X019555Y017741D02*
X019555Y017765D01*
X019653Y017864D01*
X019653Y017888D01*
X019555Y017888D01*
X019700Y017864D02*
X019700Y017765D01*
X019724Y017741D01*
X019773Y017741D01*
X019798Y017765D01*
X019845Y017765D02*
X019869Y017741D01*
X019918Y017741D01*
X019943Y017765D01*
X019943Y017790D01*
X019918Y017814D01*
X019869Y017814D01*
X019845Y017839D01*
X019845Y017864D01*
X019869Y017888D01*
X019918Y017888D01*
X019943Y017864D01*
X019990Y017839D02*
X020039Y017888D01*
X020088Y017839D01*
X020088Y017741D01*
X020088Y017814D02*
X019990Y017814D01*
X019990Y017839D02*
X019990Y017741D01*
X020135Y017814D02*
X020233Y017814D01*
X020280Y017814D02*
X020378Y017814D01*
X020425Y017741D02*
X020425Y017888D01*
X020523Y017741D01*
X020523Y017888D01*
X020570Y017888D02*
X020643Y017888D01*
X020668Y017864D01*
X020668Y017765D01*
X020643Y017741D01*
X020570Y017741D01*
X020570Y017888D01*
X020184Y017864D02*
X020184Y017765D01*
X019798Y017864D02*
X019773Y017888D01*
X019724Y017888D01*
X019700Y017864D01*
X019338Y017888D02*
X019265Y017814D01*
X019193Y017741D02*
X019193Y017888D01*
X019120Y017814D01*
X019073Y017741D02*
X018975Y017888D01*
X018928Y017814D02*
X018830Y017814D01*
X018685Y017741D02*
X018685Y017888D01*
X019076Y017180D02*
X019078Y017200D01*
X019083Y017219D01*
X019093Y017236D01*
X019105Y017252D01*
X019120Y017265D01*
X019137Y017275D01*
X019155Y017281D01*
X019175Y017284D01*
X019195Y017283D01*
X019214Y017278D01*
X019232Y017270D01*
X019248Y017259D01*
X019262Y017244D01*
X019272Y017228D01*
X019280Y017209D01*
X019284Y017190D01*
X019284Y017170D01*
X019280Y017151D01*
X019272Y017132D01*
X019262Y017116D01*
X019248Y017101D01*
X019232Y017090D01*
X019214Y017082D01*
X019195Y017077D01*
X019175Y017076D01*
X019155Y017079D01*
X019137Y017085D01*
X019120Y017095D01*
X019105Y017108D01*
X019093Y017124D01*
X019083Y017141D01*
X019078Y017160D01*
X019076Y017180D01*
X019338Y017741D02*
X019338Y017888D01*
X017681Y006610D02*
X017631Y006610D01*
X017606Y006585D01*
X017558Y006585D02*
X017533Y006610D01*
X017483Y006610D01*
X017458Y006585D01*
X017458Y006485D01*
X017483Y006460D01*
X017533Y006460D01*
X017558Y006485D01*
X017606Y006460D02*
X017706Y006560D01*
X017706Y006585D01*
X017681Y006610D01*
X017706Y006460D02*
X017606Y006460D01*
X017410Y006460D02*
X017360Y006460D01*
X017385Y006460D02*
X017385Y006610D01*
X017360Y006610D02*
X017410Y006610D01*
X021079Y003421D02*
X021229Y003421D01*
X021229Y003371D02*
X021229Y003471D01*
X021129Y003371D02*
X021079Y003421D01*
X021104Y003324D02*
X021079Y003298D01*
X021079Y003223D01*
X021229Y003223D01*
X021229Y003298D01*
X021204Y003324D01*
X021104Y003324D01*
X030960Y025148D02*
X030906Y025220D01*
X030907Y025219D02*
X030960Y025262D01*
X031011Y025307D01*
X031059Y025356D01*
X031104Y025407D01*
X031147Y025461D01*
X031186Y025517D01*
X031222Y025575D01*
X031255Y025635D01*
X031284Y025696D01*
X031309Y025760D01*
X031331Y025824D01*
X031350Y025890D01*
X031364Y025957D01*
X031375Y026024D01*
X031382Y026092D01*
X031385Y026160D01*
X031384Y026229D01*
X031379Y026297D01*
X031371Y026365D01*
X031358Y026432D01*
X031342Y026498D01*
X031322Y026563D01*
X031299Y026628D01*
X031272Y026690D01*
X031241Y026751D01*
X031207Y026810D01*
X031170Y026868D01*
X031129Y026923D01*
X031085Y026975D01*
X031039Y027025D01*
X030990Y027072D01*
X030938Y027117D01*
X030884Y027158D01*
X030827Y027197D01*
X030768Y027232D01*
X030708Y027263D01*
X030646Y027291D01*
X030582Y027316D01*
X030517Y027337D01*
X030451Y027354D01*
X030384Y027368D01*
X030316Y027377D01*
X030248Y027383D01*
X030180Y027385D01*
X030112Y027383D01*
X030044Y027377D01*
X029976Y027368D01*
X029909Y027354D01*
X029843Y027337D01*
X029778Y027316D01*
X029714Y027291D01*
X029652Y027263D01*
X029592Y027232D01*
X029533Y027197D01*
X029476Y027158D01*
X029422Y027117D01*
X029370Y027072D01*
X029321Y027025D01*
X029275Y026975D01*
X029231Y026923D01*
X029190Y026868D01*
X029153Y026810D01*
X029119Y026751D01*
X029088Y026690D01*
X029061Y026628D01*
X029038Y026563D01*
X029018Y026498D01*
X029002Y026432D01*
X028989Y026365D01*
X028981Y026297D01*
X028976Y026229D01*
X028975Y026160D01*
X028978Y026092D01*
X028985Y026024D01*
X028996Y025957D01*
X029010Y025890D01*
X029029Y025824D01*
X029051Y025760D01*
X029076Y025696D01*
X029105Y025635D01*
X029138Y025575D01*
X029174Y025517D01*
X029213Y025461D01*
X029256Y025407D01*
X029301Y025356D01*
X029349Y025307D01*
X029400Y025262D01*
X029453Y025219D01*
X029400Y025148D01*
X029399Y025147D01*
X029344Y025191D01*
X029291Y025239D01*
X029240Y025289D01*
X029193Y025342D01*
X029149Y025397D01*
X029107Y025455D01*
X029069Y025515D01*
X029034Y025576D01*
X029003Y025640D01*
X028975Y025705D01*
X028951Y025772D01*
X028930Y025840D01*
X028914Y025909D01*
X028901Y025979D01*
X028892Y026049D01*
X028886Y026120D01*
X028885Y026191D01*
X028888Y026262D01*
X028894Y026333D01*
X028904Y026403D01*
X028918Y026472D01*
X028936Y026541D01*
X028958Y026609D01*
X028983Y026675D01*
X029012Y026740D01*
X029045Y026803D01*
X029081Y026864D01*
X029120Y026923D01*
X029162Y026980D01*
X029207Y027035D01*
X029256Y027087D01*
X029307Y027136D01*
X029360Y027183D01*
X029417Y027226D01*
X029475Y027266D01*
X029536Y027303D01*
X029598Y027337D01*
X029662Y027367D01*
X029728Y027394D01*
X029795Y027417D01*
X029864Y027436D01*
X029933Y027451D01*
X030003Y027463D01*
X030074Y027471D01*
X030145Y027475D01*
X030215Y027475D01*
X030286Y027471D01*
X030357Y027463D01*
X030427Y027451D01*
X030496Y027436D01*
X030565Y027417D01*
X030632Y027394D01*
X030698Y027367D01*
X030762Y027337D01*
X030824Y027303D01*
X030885Y027266D01*
X030943Y027226D01*
X031000Y027183D01*
X031053Y027136D01*
X031104Y027087D01*
X031153Y027035D01*
X031198Y026980D01*
X031240Y026923D01*
X031279Y026864D01*
X031315Y026803D01*
X031348Y026740D01*
X031377Y026675D01*
X031402Y026609D01*
X031424Y026541D01*
X031442Y026472D01*
X031456Y026403D01*
X031466Y026333D01*
X031472Y026262D01*
X031475Y026191D01*
X031474Y026120D01*
X031468Y026049D01*
X031459Y025979D01*
X031446Y025909D01*
X031430Y025840D01*
X031409Y025772D01*
X031385Y025705D01*
X031357Y025640D01*
X031326Y025576D01*
X031291Y025515D01*
X031253Y025455D01*
X031211Y025397D01*
X031167Y025342D01*
X031120Y025289D01*
X031069Y025239D01*
X031016Y025191D01*
X030961Y025147D01*
X030956Y025154D01*
X031011Y025199D01*
X031064Y025246D01*
X031115Y025297D01*
X031162Y025350D01*
X031207Y025406D01*
X031248Y025464D01*
X031286Y025524D01*
X031321Y025586D01*
X031352Y025650D01*
X031379Y025716D01*
X031403Y025783D01*
X031423Y025852D01*
X031440Y025921D01*
X031452Y025991D01*
X031461Y026062D01*
X031465Y026133D01*
X031466Y026204D01*
X031462Y026275D01*
X031455Y026346D01*
X031444Y026417D01*
X031429Y026486D01*
X031410Y026555D01*
X031387Y026623D01*
X031361Y026689D01*
X031331Y026754D01*
X031297Y026816D01*
X031261Y026877D01*
X031220Y026936D01*
X031177Y026993D01*
X031130Y027047D01*
X031081Y027098D01*
X031028Y027146D01*
X030974Y027192D01*
X030916Y027234D01*
X030857Y027273D01*
X030795Y027309D01*
X030732Y027342D01*
X030667Y027370D01*
X030600Y027396D01*
X030532Y027417D01*
X030463Y027435D01*
X030393Y027448D01*
X030322Y027458D01*
X030251Y027464D01*
X030180Y027466D01*
X030109Y027464D01*
X030038Y027458D01*
X029967Y027448D01*
X029897Y027435D01*
X029828Y027417D01*
X029760Y027396D01*
X029693Y027370D01*
X029628Y027342D01*
X029565Y027309D01*
X029503Y027273D01*
X029444Y027234D01*
X029386Y027192D01*
X029332Y027146D01*
X029279Y027098D01*
X029230Y027047D01*
X029183Y026993D01*
X029140Y026936D01*
X029099Y026877D01*
X029063Y026816D01*
X029029Y026754D01*
X028999Y026689D01*
X028973Y026623D01*
X028950Y026555D01*
X028931Y026486D01*
X028916Y026417D01*
X028905Y026346D01*
X028898Y026275D01*
X028894Y026204D01*
X028895Y026133D01*
X028899Y026062D01*
X028908Y025991D01*
X028920Y025921D01*
X028937Y025852D01*
X028957Y025783D01*
X028981Y025716D01*
X029008Y025650D01*
X029039Y025586D01*
X029074Y025524D01*
X029112Y025464D01*
X029153Y025406D01*
X029198Y025350D01*
X029245Y025297D01*
X029296Y025246D01*
X029349Y025199D01*
X029404Y025154D01*
X029410Y025161D01*
X029355Y025206D01*
X029302Y025253D01*
X029252Y025303D01*
X029205Y025356D01*
X029161Y025411D01*
X029119Y025469D01*
X029082Y025528D01*
X029047Y025590D01*
X029016Y025654D01*
X028989Y025719D01*
X028965Y025786D01*
X028945Y025854D01*
X028929Y025923D01*
X028917Y025992D01*
X028908Y026063D01*
X028904Y026133D01*
X028903Y026204D01*
X028907Y026275D01*
X028914Y026345D01*
X028925Y026415D01*
X028940Y026484D01*
X028959Y026552D01*
X028981Y026620D01*
X029007Y026685D01*
X029037Y026750D01*
X029070Y026812D01*
X029107Y026872D01*
X029147Y026931D01*
X029190Y026987D01*
X029236Y027041D01*
X029286Y027091D01*
X029337Y027140D01*
X029392Y027185D01*
X029449Y027227D01*
X029508Y027266D01*
X029569Y027301D01*
X029632Y027334D01*
X029697Y027362D01*
X029763Y027387D01*
X029831Y027408D01*
X029899Y027426D01*
X029969Y027439D01*
X030039Y027449D01*
X030109Y027455D01*
X030180Y027457D01*
X030251Y027455D01*
X030321Y027449D01*
X030391Y027439D01*
X030461Y027426D01*
X030529Y027408D01*
X030597Y027387D01*
X030663Y027362D01*
X030728Y027334D01*
X030791Y027301D01*
X030852Y027266D01*
X030911Y027227D01*
X030968Y027185D01*
X031023Y027140D01*
X031074Y027091D01*
X031124Y027041D01*
X031170Y026987D01*
X031213Y026931D01*
X031253Y026872D01*
X031290Y026812D01*
X031323Y026750D01*
X031353Y026685D01*
X031379Y026620D01*
X031401Y026552D01*
X031420Y026484D01*
X031435Y026415D01*
X031446Y026345D01*
X031453Y026275D01*
X031457Y026204D01*
X031456Y026133D01*
X031452Y026063D01*
X031443Y025992D01*
X031431Y025923D01*
X031415Y025854D01*
X031395Y025786D01*
X031371Y025719D01*
X031344Y025654D01*
X031313Y025590D01*
X031278Y025528D01*
X031241Y025469D01*
X031199Y025411D01*
X031155Y025356D01*
X031108Y025303D01*
X031058Y025253D01*
X031005Y025206D01*
X030950Y025161D01*
X030945Y025169D01*
X031000Y025213D01*
X031053Y025261D01*
X031103Y025311D01*
X031151Y025364D01*
X031195Y025420D01*
X031236Y025478D01*
X031273Y025538D01*
X031308Y025600D01*
X031338Y025664D01*
X031365Y025730D01*
X031389Y025797D01*
X031408Y025865D01*
X031424Y025935D01*
X031436Y026005D01*
X031444Y026075D01*
X031448Y026146D01*
X031447Y026217D01*
X031443Y026288D01*
X031435Y026359D01*
X031423Y026429D01*
X031407Y026498D01*
X031388Y026566D01*
X031364Y026634D01*
X031337Y026699D01*
X031306Y026763D01*
X031272Y026825D01*
X031234Y026885D01*
X031192Y026943D01*
X031148Y026999D01*
X031101Y027052D01*
X031050Y027102D01*
X030997Y027149D01*
X030942Y027194D01*
X030884Y027235D01*
X030824Y027272D01*
X030761Y027307D01*
X030697Y027338D01*
X030632Y027365D01*
X030565Y027388D01*
X030496Y027408D01*
X030427Y027424D01*
X030357Y027436D01*
X030286Y027444D01*
X030216Y027448D01*
X030144Y027448D01*
X030074Y027444D01*
X030003Y027436D01*
X029933Y027424D01*
X029864Y027408D01*
X029795Y027388D01*
X029728Y027365D01*
X029663Y027338D01*
X029599Y027307D01*
X029536Y027272D01*
X029476Y027235D01*
X029418Y027194D01*
X029363Y027149D01*
X029310Y027102D01*
X029259Y027052D01*
X029212Y026999D01*
X029168Y026943D01*
X029126Y026885D01*
X029088Y026825D01*
X029054Y026763D01*
X029023Y026699D01*
X028996Y026634D01*
X028972Y026566D01*
X028953Y026498D01*
X028937Y026429D01*
X028925Y026359D01*
X028917Y026288D01*
X028913Y026217D01*
X028912Y026146D01*
X028916Y026075D01*
X028924Y026005D01*
X028936Y025935D01*
X028952Y025865D01*
X028971Y025797D01*
X028995Y025730D01*
X029022Y025664D01*
X029052Y025600D01*
X029087Y025538D01*
X029124Y025478D01*
X029165Y025420D01*
X029209Y025364D01*
X029257Y025311D01*
X029307Y025261D01*
X029360Y025213D01*
X029415Y025169D01*
X029421Y025176D01*
X029366Y025220D01*
X029313Y025267D01*
X029263Y025317D01*
X029216Y025370D01*
X029172Y025425D01*
X029132Y025483D01*
X029094Y025542D01*
X029060Y025604D01*
X029030Y025668D01*
X029003Y025733D01*
X028980Y025800D01*
X028960Y025868D01*
X028945Y025936D01*
X028933Y026006D01*
X028925Y026076D01*
X028921Y026147D01*
X028922Y026217D01*
X028926Y026288D01*
X028934Y026358D01*
X028946Y026427D01*
X028961Y026496D01*
X028981Y026564D01*
X029004Y026630D01*
X029031Y026695D01*
X029062Y026759D01*
X029096Y026821D01*
X029134Y026880D01*
X029175Y026938D01*
X029219Y026993D01*
X029266Y027046D01*
X029316Y027095D01*
X029368Y027142D01*
X029424Y027186D01*
X029481Y027227D01*
X029541Y027265D01*
X029603Y027299D01*
X029666Y027329D01*
X029731Y027356D01*
X029798Y027380D01*
X029866Y027399D01*
X029935Y027415D01*
X030004Y027427D01*
X030074Y027435D01*
X030145Y027439D01*
X030215Y027439D01*
X030286Y027435D01*
X030356Y027427D01*
X030425Y027415D01*
X030494Y027399D01*
X030562Y027380D01*
X030629Y027356D01*
X030694Y027329D01*
X030757Y027299D01*
X030819Y027265D01*
X030879Y027227D01*
X030936Y027186D01*
X030992Y027142D01*
X031044Y027095D01*
X031094Y027046D01*
X031141Y026993D01*
X031185Y026938D01*
X031226Y026880D01*
X031264Y026821D01*
X031298Y026759D01*
X031329Y026695D01*
X031356Y026630D01*
X031379Y026564D01*
X031399Y026496D01*
X031414Y026427D01*
X031426Y026358D01*
X031434Y026288D01*
X031438Y026217D01*
X031439Y026147D01*
X031435Y026076D01*
X031427Y026006D01*
X031415Y025936D01*
X031400Y025868D01*
X031380Y025800D01*
X031357Y025733D01*
X031330Y025668D01*
X031300Y025604D01*
X031266Y025542D01*
X031228Y025483D01*
X031188Y025425D01*
X031144Y025370D01*
X031097Y025317D01*
X031047Y025267D01*
X030994Y025220D01*
X030939Y025176D01*
X030934Y025183D01*
X030989Y025227D01*
X031041Y025274D01*
X031090Y025323D01*
X031137Y025376D01*
X031180Y025430D01*
X031221Y025488D01*
X031258Y025547D01*
X031292Y025608D01*
X031322Y025672D01*
X031349Y025736D01*
X031372Y025803D01*
X031391Y025870D01*
X031406Y025938D01*
X031418Y026007D01*
X031426Y026077D01*
X031430Y026147D01*
X031429Y026217D01*
X031425Y026287D01*
X031417Y026356D01*
X031406Y026425D01*
X031390Y026494D01*
X031371Y026561D01*
X031347Y026627D01*
X031320Y026692D01*
X031290Y026755D01*
X031256Y026816D01*
X031219Y026875D01*
X031178Y026933D01*
X031134Y026987D01*
X031088Y027039D01*
X031038Y027089D01*
X030986Y027136D01*
X030931Y027179D01*
X030874Y027220D01*
X030815Y027257D01*
X030753Y027291D01*
X030690Y027321D01*
X030625Y027348D01*
X030559Y027371D01*
X030492Y027390D01*
X030424Y027406D01*
X030355Y027418D01*
X030285Y027426D01*
X030215Y027430D01*
X030145Y027430D01*
X030075Y027426D01*
X030005Y027418D01*
X029936Y027406D01*
X029868Y027390D01*
X029801Y027371D01*
X029735Y027348D01*
X029670Y027321D01*
X029607Y027291D01*
X029545Y027257D01*
X029486Y027220D01*
X029429Y027179D01*
X029374Y027136D01*
X029322Y027089D01*
X029272Y027039D01*
X029226Y026987D01*
X029182Y026933D01*
X029141Y026875D01*
X029104Y026816D01*
X029070Y026755D01*
X029040Y026692D01*
X029013Y026627D01*
X028989Y026561D01*
X028970Y026494D01*
X028954Y026425D01*
X028943Y026356D01*
X028935Y026287D01*
X028931Y026217D01*
X028930Y026147D01*
X028934Y026077D01*
X028942Y026007D01*
X028954Y025938D01*
X028969Y025870D01*
X028988Y025803D01*
X029011Y025736D01*
X029038Y025672D01*
X029068Y025608D01*
X029102Y025547D01*
X029139Y025488D01*
X029180Y025430D01*
X029223Y025376D01*
X029270Y025323D01*
X029319Y025274D01*
X029371Y025227D01*
X029426Y025183D01*
X029431Y025190D01*
X029377Y025234D01*
X029325Y025280D01*
X029276Y025329D01*
X029230Y025381D01*
X029187Y025436D01*
X029147Y025493D01*
X029110Y025552D01*
X029076Y025613D01*
X029046Y025675D01*
X029020Y025740D01*
X028997Y025805D01*
X028978Y025872D01*
X028962Y025940D01*
X028951Y026009D01*
X028943Y026078D01*
X028939Y026147D01*
X028940Y026217D01*
X028944Y026286D01*
X028951Y026355D01*
X028963Y026424D01*
X028979Y026491D01*
X028998Y026558D01*
X029021Y026624D01*
X029048Y026688D01*
X029078Y026751D01*
X029112Y026812D01*
X029149Y026870D01*
X029189Y026927D01*
X029232Y026981D01*
X029279Y027033D01*
X029328Y027082D01*
X029380Y027129D01*
X029434Y027172D01*
X029491Y027212D01*
X029550Y027249D01*
X029611Y027283D01*
X029674Y027313D01*
X029738Y027340D01*
X029803Y027363D01*
X029870Y027382D01*
X029938Y027397D01*
X030007Y027409D01*
X030076Y027417D01*
X030145Y027421D01*
X030215Y027421D01*
X030284Y027417D01*
X030353Y027409D01*
X030422Y027397D01*
X030490Y027382D01*
X030557Y027363D01*
X030622Y027340D01*
X030686Y027313D01*
X030749Y027283D01*
X030810Y027249D01*
X030869Y027212D01*
X030926Y027172D01*
X030980Y027129D01*
X031032Y027082D01*
X031081Y027033D01*
X031128Y026981D01*
X031171Y026927D01*
X031211Y026870D01*
X031248Y026812D01*
X031282Y026751D01*
X031312Y026688D01*
X031339Y026624D01*
X031362Y026558D01*
X031381Y026491D01*
X031397Y026424D01*
X031409Y026355D01*
X031416Y026286D01*
X031420Y026217D01*
X031421Y026147D01*
X031417Y026078D01*
X031409Y026009D01*
X031398Y025940D01*
X031382Y025872D01*
X031363Y025805D01*
X031340Y025740D01*
X031314Y025675D01*
X031284Y025613D01*
X031250Y025552D01*
X031213Y025493D01*
X031173Y025436D01*
X031130Y025381D01*
X031084Y025329D01*
X031035Y025280D01*
X030983Y025234D01*
X030929Y025190D01*
X030923Y025197D01*
X030977Y025241D01*
X031028Y025287D01*
X031077Y025336D01*
X031123Y025387D01*
X031166Y025441D01*
X031206Y025498D01*
X031242Y025556D01*
X031276Y025617D01*
X031306Y025679D01*
X031332Y025743D01*
X031354Y025808D01*
X031373Y025874D01*
X031389Y025942D01*
X031400Y026010D01*
X031408Y026078D01*
X031412Y026147D01*
X031411Y026216D01*
X031407Y026285D01*
X031400Y026354D01*
X031388Y026422D01*
X031373Y026489D01*
X031353Y026556D01*
X031330Y026621D01*
X031304Y026684D01*
X031274Y026747D01*
X031241Y026807D01*
X031204Y026865D01*
X031164Y026922D01*
X031121Y026976D01*
X031075Y027027D01*
X031026Y027076D01*
X030974Y027122D01*
X030920Y027165D01*
X030864Y027205D01*
X030805Y027241D01*
X030745Y027275D01*
X030683Y027305D01*
X030619Y027331D01*
X030554Y027354D01*
X030487Y027373D01*
X030420Y027388D01*
X030352Y027400D01*
X030283Y027408D01*
X030215Y027412D01*
X030145Y027412D01*
X030077Y027408D01*
X030008Y027400D01*
X029940Y027388D01*
X029873Y027373D01*
X029806Y027354D01*
X029741Y027331D01*
X029677Y027305D01*
X029615Y027275D01*
X029555Y027241D01*
X029496Y027205D01*
X029440Y027165D01*
X029386Y027122D01*
X029334Y027076D01*
X029285Y027027D01*
X029239Y026976D01*
X029196Y026922D01*
X029156Y026865D01*
X029119Y026807D01*
X029086Y026747D01*
X029056Y026684D01*
X029030Y026621D01*
X029007Y026556D01*
X028987Y026489D01*
X028972Y026422D01*
X028960Y026354D01*
X028953Y026285D01*
X028949Y026216D01*
X028948Y026147D01*
X028952Y026078D01*
X028960Y026010D01*
X028971Y025942D01*
X028987Y025874D01*
X029006Y025808D01*
X029028Y025743D01*
X029054Y025679D01*
X029084Y025617D01*
X029118Y025556D01*
X029154Y025498D01*
X029194Y025441D01*
X029237Y025387D01*
X029283Y025336D01*
X029332Y025287D01*
X029383Y025241D01*
X029437Y025197D01*
X029442Y025205D01*
X029388Y025248D01*
X029337Y025294D01*
X029288Y025344D01*
X029242Y025395D01*
X029199Y025450D01*
X029159Y025507D01*
X029123Y025565D01*
X029089Y025626D01*
X029060Y025689D01*
X029034Y025753D01*
X029012Y025819D01*
X028993Y025886D01*
X028978Y025953D01*
X028967Y026022D01*
X028960Y026091D01*
X028957Y026160D01*
X028958Y026229D01*
X028963Y026299D01*
X028971Y026367D01*
X028984Y026435D01*
X029000Y026503D01*
X029021Y026569D01*
X029044Y026634D01*
X029072Y026698D01*
X029103Y026760D01*
X029138Y026820D01*
X029176Y026878D01*
X029217Y026934D01*
X029261Y026987D01*
X029308Y027038D01*
X029358Y027086D01*
X029411Y027131D01*
X029466Y027173D01*
X029523Y027212D01*
X029583Y027247D01*
X029644Y027279D01*
X029707Y027308D01*
X029772Y027333D01*
X029838Y027354D01*
X029905Y027372D01*
X029973Y027385D01*
X030042Y027395D01*
X030111Y027401D01*
X030180Y027403D01*
X030249Y027401D01*
X030318Y027395D01*
X030387Y027385D01*
X030455Y027372D01*
X030522Y027354D01*
X030588Y027333D01*
X030653Y027308D01*
X030716Y027279D01*
X030777Y027247D01*
X030837Y027212D01*
X030894Y027173D01*
X030949Y027131D01*
X031002Y027086D01*
X031052Y027038D01*
X031099Y026987D01*
X031143Y026934D01*
X031184Y026878D01*
X031222Y026820D01*
X031257Y026760D01*
X031288Y026698D01*
X031316Y026634D01*
X031339Y026569D01*
X031360Y026503D01*
X031376Y026435D01*
X031389Y026367D01*
X031397Y026299D01*
X031402Y026229D01*
X031403Y026160D01*
X031400Y026091D01*
X031393Y026022D01*
X031382Y025953D01*
X031367Y025886D01*
X031348Y025819D01*
X031326Y025753D01*
X031300Y025689D01*
X031271Y025626D01*
X031237Y025565D01*
X031201Y025507D01*
X031161Y025450D01*
X031118Y025395D01*
X031072Y025344D01*
X031023Y025294D01*
X030972Y025248D01*
X030918Y025205D01*
X030912Y025212D01*
X030966Y025255D01*
X031017Y025301D01*
X031066Y025350D01*
X031111Y025401D01*
X031154Y025455D01*
X031193Y025512D01*
X031230Y025570D01*
X031263Y025630D01*
X031292Y025693D01*
X031318Y025756D01*
X031340Y025822D01*
X031358Y025888D01*
X031373Y025955D01*
X031384Y026023D01*
X031391Y026092D01*
X031394Y026160D01*
X031393Y026229D01*
X031388Y026298D01*
X031380Y026366D01*
X031367Y026434D01*
X031351Y026500D01*
X031331Y026566D01*
X031307Y026631D01*
X031280Y026694D01*
X031249Y026755D01*
X031215Y026815D01*
X031177Y026873D01*
X031136Y026928D01*
X031092Y026981D01*
X031045Y027031D01*
X030996Y027079D01*
X030944Y027124D01*
X030889Y027166D01*
X030832Y027204D01*
X030773Y027239D01*
X030712Y027271D01*
X030649Y027300D01*
X030585Y027324D01*
X030519Y027346D01*
X030453Y027363D01*
X030385Y027376D01*
X030317Y027386D01*
X030249Y027392D01*
X030180Y027394D01*
X030111Y027392D01*
X030043Y027386D01*
X029975Y027376D01*
X029907Y027363D01*
X029841Y027346D01*
X029775Y027324D01*
X029711Y027300D01*
X029648Y027271D01*
X029587Y027239D01*
X029528Y027204D01*
X029471Y027166D01*
X029416Y027124D01*
X029364Y027079D01*
X029315Y027031D01*
X029268Y026981D01*
X029224Y026928D01*
X029183Y026873D01*
X029145Y026815D01*
X029111Y026755D01*
X029080Y026694D01*
X029053Y026631D01*
X029029Y026566D01*
X029009Y026500D01*
X028993Y026434D01*
X028980Y026366D01*
X028972Y026298D01*
X028967Y026229D01*
X028966Y026160D01*
X028969Y026092D01*
X028976Y026023D01*
X028987Y025955D01*
X029002Y025888D01*
X029020Y025822D01*
X029042Y025756D01*
X029068Y025693D01*
X029097Y025630D01*
X029130Y025570D01*
X029167Y025512D01*
X029206Y025455D01*
X029249Y025401D01*
X029294Y025350D01*
X029343Y025301D01*
X029394Y025255D01*
X029448Y025212D01*
X028962Y031502D02*
X028873Y031515D01*
X028874Y031515D02*
X028881Y031582D01*
X028885Y031651D01*
X028884Y031719D01*
X028880Y031787D01*
X028872Y031855D01*
X028860Y031922D01*
X028845Y031989D01*
X028825Y032054D01*
X028802Y032118D01*
X028776Y032181D01*
X028746Y032243D01*
X028712Y032302D01*
X028675Y032359D01*
X028635Y032415D01*
X028592Y032468D01*
X028546Y032518D01*
X028497Y032566D01*
X028445Y032611D01*
X028391Y032653D01*
X028335Y032691D01*
X028277Y032727D01*
X028217Y032759D01*
X028155Y032788D01*
X028091Y032813D01*
X028026Y032834D01*
X027960Y032852D01*
X027894Y032866D01*
X027826Y032876D01*
X027758Y032882D01*
X027690Y032885D01*
X027622Y032884D01*
X027553Y032878D01*
X027486Y032869D01*
X027419Y032856D01*
X027352Y032840D01*
X027287Y032819D01*
X027223Y032795D01*
X027161Y032767D01*
X027100Y032736D01*
X027041Y032702D01*
X026984Y032664D01*
X026930Y032623D01*
X026878Y032579D01*
X026828Y032532D01*
X026781Y032482D01*
X026737Y032430D01*
X026696Y032376D01*
X026658Y032319D01*
X026624Y032260D01*
X026593Y032199D01*
X026565Y032137D01*
X026541Y032073D01*
X026520Y032008D01*
X026504Y031941D01*
X026491Y031874D01*
X026482Y031807D01*
X026476Y031738D01*
X026475Y031670D01*
X026478Y031602D01*
X026484Y031534D01*
X026494Y031466D01*
X026508Y031400D01*
X026526Y031334D01*
X026547Y031269D01*
X026572Y031205D01*
X026601Y031143D01*
X026633Y031083D01*
X026669Y031025D01*
X026707Y030969D01*
X026749Y030915D01*
X026794Y030863D01*
X026842Y030814D01*
X026892Y030768D01*
X026945Y030725D01*
X027001Y030685D01*
X027058Y030648D01*
X027117Y030614D01*
X027179Y030584D01*
X027242Y030558D01*
X027306Y030535D01*
X027371Y030515D01*
X027438Y030500D01*
X027505Y030488D01*
X027573Y030480D01*
X027641Y030476D01*
X027709Y030475D01*
X027778Y030479D01*
X027845Y030486D01*
X027858Y030398D01*
X027858Y030397D01*
X027788Y030389D01*
X027717Y030386D01*
X027646Y030385D01*
X027575Y030389D01*
X027504Y030397D01*
X027434Y030409D01*
X027365Y030424D01*
X027297Y030443D01*
X027229Y030466D01*
X027164Y030492D01*
X027099Y030522D01*
X027037Y030556D01*
X026976Y030593D01*
X026918Y030633D01*
X026861Y030677D01*
X026808Y030723D01*
X026757Y030772D01*
X026708Y030824D01*
X026663Y030879D01*
X026620Y030936D01*
X026581Y030995D01*
X026545Y031056D01*
X026513Y031119D01*
X026484Y031184D01*
X026458Y031250D01*
X026437Y031318D01*
X026419Y031386D01*
X026405Y031456D01*
X026394Y031526D01*
X026388Y031597D01*
X026385Y031668D01*
X026386Y031739D01*
X026391Y031810D01*
X026401Y031880D01*
X026413Y031950D01*
X026430Y032019D01*
X026451Y032087D01*
X026475Y032153D01*
X026502Y032219D01*
X026534Y032282D01*
X026568Y032344D01*
X026606Y032404D01*
X026648Y032462D01*
X026692Y032517D01*
X026740Y032570D01*
X026790Y032620D01*
X026843Y032668D01*
X026898Y032712D01*
X026956Y032754D01*
X027016Y032792D01*
X027078Y032826D01*
X027141Y032858D01*
X027207Y032885D01*
X027273Y032909D01*
X027341Y032930D01*
X027410Y032947D01*
X027480Y032959D01*
X027550Y032969D01*
X027621Y032974D01*
X027692Y032975D01*
X027763Y032972D01*
X027834Y032966D01*
X027904Y032955D01*
X027974Y032941D01*
X028042Y032923D01*
X028110Y032902D01*
X028176Y032876D01*
X028241Y032847D01*
X028304Y032815D01*
X028365Y032779D01*
X028424Y032740D01*
X028481Y032697D01*
X028536Y032652D01*
X028588Y032603D01*
X028637Y032552D01*
X028683Y032499D01*
X028727Y032442D01*
X028767Y032384D01*
X028804Y032323D01*
X028838Y032261D01*
X028868Y032196D01*
X028894Y032131D01*
X028917Y032063D01*
X028936Y031995D01*
X028951Y031926D01*
X028963Y031856D01*
X028971Y031785D01*
X028975Y031714D01*
X028974Y031643D01*
X028971Y031572D01*
X028963Y031502D01*
X028954Y031503D01*
X028962Y031574D01*
X028966Y031645D01*
X028965Y031716D01*
X028961Y031788D01*
X028954Y031858D01*
X028942Y031929D01*
X028926Y031998D01*
X028906Y032067D01*
X028883Y032134D01*
X028856Y032200D01*
X028826Y032264D01*
X028791Y032327D01*
X028754Y032387D01*
X028713Y032446D01*
X028669Y032502D01*
X028622Y032555D01*
X028572Y032606D01*
X028519Y032654D01*
X028464Y032699D01*
X028406Y032741D01*
X028347Y032780D01*
X028285Y032815D01*
X028221Y032847D01*
X028155Y032875D01*
X028088Y032899D01*
X028020Y032920D01*
X027951Y032937D01*
X027881Y032950D01*
X027810Y032959D01*
X027739Y032965D01*
X027668Y032966D01*
X027597Y032963D01*
X027526Y032957D01*
X027455Y032946D01*
X027385Y032932D01*
X027317Y032914D01*
X027249Y032892D01*
X027182Y032866D01*
X027117Y032836D01*
X027054Y032803D01*
X026993Y032767D01*
X026934Y032727D01*
X026877Y032684D01*
X026822Y032638D01*
X026771Y032589D01*
X026722Y032538D01*
X026676Y032483D01*
X026633Y032426D01*
X026593Y032367D01*
X026557Y032306D01*
X026524Y032243D01*
X026494Y032178D01*
X026468Y032111D01*
X026446Y032043D01*
X026428Y031975D01*
X026414Y031905D01*
X026403Y031834D01*
X026397Y031763D01*
X026394Y031692D01*
X026395Y031621D01*
X026401Y031550D01*
X026410Y031479D01*
X026423Y031409D01*
X026440Y031340D01*
X026461Y031272D01*
X026485Y031205D01*
X026513Y031139D01*
X026545Y031075D01*
X026580Y031013D01*
X026619Y030954D01*
X026661Y030896D01*
X026706Y030841D01*
X026754Y030788D01*
X026805Y030738D01*
X026858Y030691D01*
X026914Y030647D01*
X026973Y030606D01*
X027033Y030569D01*
X027096Y030534D01*
X027160Y030504D01*
X027226Y030477D01*
X027293Y030454D01*
X027362Y030434D01*
X027431Y030418D01*
X027502Y030406D01*
X027572Y030399D01*
X027644Y030395D01*
X027715Y030394D01*
X027786Y030398D01*
X027857Y030406D01*
X027856Y030415D01*
X027785Y030407D01*
X027715Y030403D01*
X027644Y030404D01*
X027573Y030407D01*
X027503Y030415D01*
X027433Y030427D01*
X027364Y030443D01*
X027296Y030462D01*
X027229Y030485D01*
X027164Y030512D01*
X027100Y030542D01*
X027038Y030576D01*
X026977Y030614D01*
X026919Y030654D01*
X026864Y030698D01*
X026811Y030745D01*
X026760Y030794D01*
X026712Y030847D01*
X026668Y030901D01*
X026626Y030959D01*
X026588Y031018D01*
X026553Y031080D01*
X026521Y031143D01*
X026493Y031208D01*
X026469Y031275D01*
X026448Y031342D01*
X026432Y031411D01*
X026419Y031481D01*
X026410Y031551D01*
X026404Y031621D01*
X026403Y031692D01*
X026406Y031763D01*
X026412Y031833D01*
X026423Y031903D01*
X026437Y031973D01*
X026455Y032041D01*
X026477Y032108D01*
X026503Y032174D01*
X026532Y032239D01*
X026564Y032301D01*
X026601Y032362D01*
X026640Y032421D01*
X026683Y032478D01*
X026728Y032532D01*
X026777Y032583D01*
X026828Y032632D01*
X026882Y032677D01*
X026939Y032720D01*
X026998Y032759D01*
X027059Y032796D01*
X027121Y032828D01*
X027186Y032857D01*
X027252Y032883D01*
X027319Y032905D01*
X027387Y032923D01*
X027457Y032937D01*
X027527Y032948D01*
X027597Y032954D01*
X027668Y032957D01*
X027739Y032956D01*
X027809Y032950D01*
X027879Y032941D01*
X027949Y032928D01*
X028018Y032912D01*
X028085Y032891D01*
X028152Y032867D01*
X028217Y032839D01*
X028280Y032807D01*
X028342Y032772D01*
X028401Y032734D01*
X028459Y032692D01*
X028513Y032648D01*
X028566Y032600D01*
X028615Y032549D01*
X028662Y032496D01*
X028706Y032441D01*
X028746Y032383D01*
X028784Y032322D01*
X028818Y032260D01*
X028848Y032196D01*
X028875Y032131D01*
X028898Y032064D01*
X028917Y031996D01*
X028933Y031927D01*
X028945Y031857D01*
X028953Y031787D01*
X028956Y031716D01*
X028957Y031645D01*
X028953Y031575D01*
X028945Y031504D01*
X028936Y031506D01*
X028944Y031576D01*
X028948Y031647D01*
X028947Y031718D01*
X028943Y031789D01*
X028935Y031860D01*
X028923Y031930D01*
X028907Y031999D01*
X028887Y032067D01*
X028864Y032134D01*
X028836Y032200D01*
X028806Y032264D01*
X028771Y032326D01*
X028733Y032386D01*
X028692Y032444D01*
X028648Y032500D01*
X028600Y032552D01*
X028550Y032603D01*
X028497Y032650D01*
X028441Y032694D01*
X028383Y032735D01*
X028323Y032773D01*
X028261Y032807D01*
X028197Y032838D01*
X028131Y032865D01*
X028064Y032889D01*
X027996Y032908D01*
X027926Y032924D01*
X027856Y032936D01*
X027786Y032944D01*
X027715Y032948D01*
X027644Y032947D01*
X027573Y032943D01*
X027502Y032935D01*
X027432Y032924D01*
X027363Y032908D01*
X027294Y032888D01*
X027227Y032864D01*
X027162Y032837D01*
X027098Y032806D01*
X027036Y032772D01*
X026975Y032734D01*
X026917Y032693D01*
X026862Y032649D01*
X026809Y032601D01*
X026759Y032551D01*
X026711Y032498D01*
X026667Y032443D01*
X026626Y032385D01*
X026588Y032324D01*
X026554Y032262D01*
X026523Y032198D01*
X026496Y032133D01*
X026472Y032066D01*
X026452Y031997D01*
X026436Y031928D01*
X026425Y031858D01*
X026417Y031787D01*
X026413Y031716D01*
X026412Y031645D01*
X026416Y031574D01*
X026424Y031504D01*
X026436Y031434D01*
X026452Y031364D01*
X026471Y031296D01*
X026495Y031229D01*
X026522Y031163D01*
X026553Y031099D01*
X026587Y031037D01*
X026625Y030977D01*
X026666Y030919D01*
X026710Y030863D01*
X026757Y030810D01*
X026808Y030760D01*
X026860Y030712D01*
X026916Y030668D01*
X026974Y030627D01*
X027034Y030589D01*
X027096Y030554D01*
X027160Y030524D01*
X027226Y030496D01*
X027293Y030473D01*
X027361Y030453D01*
X027430Y030437D01*
X027500Y030425D01*
X027571Y030417D01*
X027642Y030413D01*
X027713Y030412D01*
X027784Y030416D01*
X027854Y030424D01*
X027853Y030433D01*
X027783Y030425D01*
X027713Y030421D01*
X027642Y030422D01*
X027572Y030426D01*
X027501Y030434D01*
X027432Y030446D01*
X027363Y030462D01*
X027295Y030481D01*
X027229Y030505D01*
X027164Y030532D01*
X027100Y030562D01*
X027038Y030597D01*
X026979Y030634D01*
X026921Y030675D01*
X026866Y030719D01*
X026814Y030766D01*
X026764Y030816D01*
X026717Y030869D01*
X026673Y030924D01*
X026632Y030982D01*
X026595Y031042D01*
X026561Y031103D01*
X026530Y031167D01*
X026503Y031232D01*
X026480Y031299D01*
X026461Y031367D01*
X026445Y031436D01*
X026433Y031505D01*
X026425Y031575D01*
X026421Y031646D01*
X026422Y031716D01*
X026426Y031787D01*
X026433Y031857D01*
X026445Y031926D01*
X026461Y031995D01*
X026481Y032063D01*
X026504Y032129D01*
X026531Y032195D01*
X026562Y032258D01*
X026596Y032320D01*
X026633Y032380D01*
X026674Y032437D01*
X026718Y032492D01*
X026765Y032545D01*
X026815Y032595D01*
X026868Y032642D01*
X026923Y032686D01*
X026980Y032727D01*
X027040Y032764D01*
X027102Y032798D01*
X027165Y032829D01*
X027231Y032856D01*
X027297Y032879D01*
X027365Y032899D01*
X027434Y032915D01*
X027503Y032927D01*
X027573Y032934D01*
X027644Y032938D01*
X027714Y032939D01*
X027785Y032935D01*
X027855Y032927D01*
X027924Y032915D01*
X027993Y032899D01*
X028061Y032880D01*
X028128Y032857D01*
X028193Y032830D01*
X028257Y032799D01*
X028318Y032765D01*
X028378Y032728D01*
X028436Y032687D01*
X028491Y032643D01*
X028544Y032596D01*
X028594Y032546D01*
X028641Y032494D01*
X028685Y032439D01*
X028726Y032381D01*
X028763Y032322D01*
X028798Y032260D01*
X028828Y032196D01*
X028855Y032131D01*
X028879Y032065D01*
X028898Y031997D01*
X028914Y031928D01*
X028926Y031859D01*
X028934Y031788D01*
X028938Y031718D01*
X028939Y031647D01*
X028935Y031577D01*
X028927Y031507D01*
X028918Y031508D01*
X028926Y031578D01*
X028930Y031648D01*
X028929Y031718D01*
X028925Y031788D01*
X028917Y031857D01*
X028905Y031926D01*
X028890Y031995D01*
X028870Y032062D01*
X028847Y032128D01*
X028820Y032193D01*
X028790Y032256D01*
X028756Y032317D01*
X028718Y032376D01*
X028678Y032433D01*
X028634Y032488D01*
X028587Y032540D01*
X028537Y032590D01*
X028485Y032636D01*
X028430Y032680D01*
X028373Y032720D01*
X028314Y032757D01*
X028252Y032791D01*
X028189Y032822D01*
X028125Y032848D01*
X028058Y032871D01*
X027991Y032891D01*
X027923Y032906D01*
X027854Y032918D01*
X027784Y032926D01*
X027714Y032930D01*
X027644Y032929D01*
X027574Y032926D01*
X027505Y032918D01*
X027435Y032906D01*
X027367Y032890D01*
X027300Y032871D01*
X027234Y032848D01*
X027169Y032821D01*
X027106Y032790D01*
X027045Y032756D01*
X026985Y032719D01*
X026928Y032679D01*
X026873Y032635D01*
X026821Y032588D01*
X026772Y032539D01*
X026725Y032487D01*
X026681Y032432D01*
X026641Y032375D01*
X026604Y032315D01*
X026570Y032254D01*
X026539Y032191D01*
X026512Y032126D01*
X026489Y032060D01*
X026470Y031993D01*
X026454Y031925D01*
X026442Y031855D01*
X026434Y031786D01*
X026431Y031716D01*
X026430Y031646D01*
X026434Y031576D01*
X026442Y031506D01*
X026454Y031437D01*
X026469Y031369D01*
X026489Y031302D01*
X026512Y031235D01*
X026538Y031171D01*
X026569Y031108D01*
X026603Y031046D01*
X026640Y030987D01*
X026680Y030930D01*
X026724Y030875D01*
X026770Y030823D01*
X026820Y030773D01*
X026872Y030726D01*
X026927Y030682D01*
X026984Y030642D01*
X027043Y030604D01*
X027104Y030570D01*
X027167Y030540D01*
X027232Y030513D01*
X027298Y030490D01*
X027365Y030470D01*
X027434Y030455D01*
X027503Y030443D01*
X027572Y030435D01*
X027642Y030431D01*
X027712Y030430D01*
X027782Y030434D01*
X027852Y030442D01*
X027851Y030451D01*
X027781Y030443D01*
X027712Y030439D01*
X027642Y030440D01*
X027573Y030444D01*
X027504Y030452D01*
X027435Y030463D01*
X027368Y030479D01*
X027301Y030498D01*
X027235Y030521D01*
X027171Y030548D01*
X027108Y030578D01*
X027048Y030612D01*
X026989Y030649D01*
X026932Y030690D01*
X026878Y030733D01*
X026826Y030780D01*
X026777Y030829D01*
X026731Y030881D01*
X026687Y030935D01*
X026647Y030992D01*
X026610Y031051D01*
X026577Y031112D01*
X026547Y031174D01*
X026520Y031239D01*
X026497Y031304D01*
X026478Y031371D01*
X026463Y031439D01*
X026451Y031508D01*
X026443Y031577D01*
X026439Y031646D01*
X026440Y031716D01*
X026443Y031785D01*
X026451Y031854D01*
X026463Y031923D01*
X026478Y031991D01*
X026498Y032057D01*
X026521Y032123D01*
X026547Y032187D01*
X026578Y032250D01*
X026611Y032311D01*
X026648Y032370D01*
X026689Y032426D01*
X026732Y032481D01*
X026778Y032533D01*
X026827Y032582D01*
X026879Y032628D01*
X026934Y032671D01*
X026990Y032712D01*
X027049Y032749D01*
X027110Y032782D01*
X027173Y032813D01*
X027237Y032839D01*
X027303Y032862D01*
X027369Y032882D01*
X027437Y032897D01*
X027506Y032909D01*
X027575Y032917D01*
X027644Y032920D01*
X027714Y032921D01*
X027783Y032917D01*
X027852Y032909D01*
X027921Y032897D01*
X027989Y032882D01*
X028056Y032863D01*
X028121Y032840D01*
X028186Y032813D01*
X028248Y032783D01*
X028309Y032750D01*
X028368Y032713D01*
X028425Y032673D01*
X028479Y032629D01*
X028531Y032583D01*
X028580Y032534D01*
X028627Y032482D01*
X028670Y032428D01*
X028711Y032371D01*
X028748Y032312D01*
X028782Y032252D01*
X028812Y032189D01*
X028839Y032125D01*
X028862Y032059D01*
X028881Y031992D01*
X028897Y031925D01*
X028908Y031856D01*
X028916Y031787D01*
X028920Y031718D01*
X028921Y031648D01*
X028917Y031579D01*
X028909Y031509D01*
X028900Y031511D01*
X028908Y031579D01*
X028912Y031648D01*
X028911Y031717D01*
X028907Y031786D01*
X028900Y031855D01*
X028888Y031923D01*
X028872Y031990D01*
X028853Y032056D01*
X028830Y032122D01*
X028804Y032185D01*
X028774Y032247D01*
X028740Y032308D01*
X028703Y032366D01*
X028663Y032422D01*
X028620Y032476D01*
X028574Y032528D01*
X028525Y032577D01*
X028473Y032622D01*
X028419Y032665D01*
X028363Y032705D01*
X028305Y032742D01*
X028244Y032775D01*
X028182Y032805D01*
X028118Y032831D01*
X028053Y032854D01*
X027987Y032873D01*
X027919Y032889D01*
X027851Y032900D01*
X027783Y032908D01*
X027714Y032912D01*
X027645Y032911D01*
X027576Y032908D01*
X027507Y032900D01*
X027439Y032888D01*
X027372Y032873D01*
X027305Y032854D01*
X027240Y032831D01*
X027176Y032804D01*
X027114Y032774D01*
X027054Y032741D01*
X026995Y032704D01*
X026939Y032664D01*
X026885Y032621D01*
X026834Y032575D01*
X026785Y032526D01*
X026739Y032475D01*
X026696Y032421D01*
X026656Y032365D01*
X026619Y032306D01*
X026586Y032246D01*
X026556Y032184D01*
X026529Y032120D01*
X026506Y032055D01*
X026487Y031988D01*
X026472Y031921D01*
X026460Y031853D01*
X026452Y031784D01*
X026449Y031715D01*
X026448Y031646D01*
X026452Y031577D01*
X026460Y031509D01*
X026471Y031441D01*
X026487Y031373D01*
X026506Y031307D01*
X026529Y031242D01*
X026555Y031178D01*
X026585Y031116D01*
X026618Y031055D01*
X026655Y030997D01*
X026695Y030941D01*
X026738Y030887D01*
X026783Y030835D01*
X026832Y030786D01*
X026884Y030740D01*
X026938Y030697D01*
X026994Y030657D01*
X027052Y030620D01*
X027113Y030586D01*
X027175Y030556D01*
X027238Y030530D01*
X027304Y030507D01*
X027370Y030488D01*
X027437Y030472D01*
X027505Y030460D01*
X027574Y030453D01*
X027643Y030449D01*
X027712Y030448D01*
X027781Y030452D01*
X027849Y030460D01*
X027848Y030469D01*
X027779Y030461D01*
X027710Y030457D01*
X027641Y030458D01*
X027571Y030462D01*
X027503Y030470D01*
X027434Y030482D01*
X027367Y030498D01*
X027300Y030517D01*
X027235Y030541D01*
X027171Y030568D01*
X027109Y030598D01*
X027049Y030633D01*
X026990Y030670D01*
X026934Y030711D01*
X026881Y030754D01*
X026829Y030801D01*
X026781Y030851D01*
X026735Y030903D01*
X026693Y030958D01*
X026654Y031015D01*
X026618Y031074D01*
X026585Y031135D01*
X026556Y031198D01*
X026530Y031263D01*
X026509Y031328D01*
X026491Y031395D01*
X026476Y031463D01*
X026466Y031532D01*
X026460Y031601D01*
X026457Y031670D01*
X026458Y031739D01*
X026464Y031808D01*
X026473Y031877D01*
X026486Y031945D01*
X026503Y032012D01*
X026524Y032079D01*
X026548Y032143D01*
X026576Y032207D01*
X026608Y032268D01*
X026643Y032328D01*
X026681Y032386D01*
X026723Y032441D01*
X026768Y032494D01*
X026815Y032545D01*
X026866Y032592D01*
X026919Y032637D01*
X026974Y032679D01*
X027032Y032717D01*
X027092Y032752D01*
X027153Y032784D01*
X027217Y032812D01*
X027281Y032836D01*
X027348Y032857D01*
X027415Y032874D01*
X027483Y032887D01*
X027552Y032896D01*
X027621Y032902D01*
X027690Y032903D01*
X027759Y032900D01*
X027828Y032894D01*
X027897Y032884D01*
X027965Y032869D01*
X028032Y032851D01*
X028097Y032830D01*
X028162Y032804D01*
X028225Y032775D01*
X028286Y032742D01*
X028345Y032706D01*
X028402Y032667D01*
X028457Y032625D01*
X028509Y032579D01*
X028559Y032531D01*
X028606Y032479D01*
X028649Y032426D01*
X028690Y032370D01*
X028727Y032311D01*
X028762Y032251D01*
X028792Y032189D01*
X028819Y032125D01*
X028843Y032060D01*
X028862Y031993D01*
X028878Y031926D01*
X028890Y031857D01*
X028898Y031789D01*
X028902Y031719D01*
X028903Y031650D01*
X028899Y031581D01*
X028891Y031512D01*
X028882Y031513D01*
X028890Y031582D01*
X028894Y031650D01*
X028893Y031719D01*
X028889Y031788D01*
X028881Y031856D01*
X028869Y031924D01*
X028854Y031991D01*
X028834Y032057D01*
X028811Y032122D01*
X028784Y032185D01*
X028754Y032247D01*
X028720Y032307D01*
X028683Y032365D01*
X028642Y032420D01*
X028599Y032474D01*
X028552Y032524D01*
X028503Y032572D01*
X028451Y032618D01*
X028397Y032660D01*
X028340Y032699D01*
X028281Y032735D01*
X028221Y032767D01*
X028158Y032796D01*
X028094Y032821D01*
X028029Y032843D01*
X027963Y032861D01*
X027895Y032875D01*
X027827Y032885D01*
X027759Y032891D01*
X027690Y032894D01*
X027621Y032893D01*
X027552Y032887D01*
X027484Y032878D01*
X027417Y032865D01*
X027350Y032848D01*
X027284Y032828D01*
X027220Y032803D01*
X027157Y032776D01*
X027096Y032744D01*
X027037Y032709D01*
X026979Y032671D01*
X026924Y032630D01*
X026872Y032586D01*
X026822Y032538D01*
X026774Y032488D01*
X026730Y032436D01*
X026689Y032381D01*
X026651Y032323D01*
X026616Y032264D01*
X026584Y032203D01*
X026557Y032140D01*
X026532Y032076D01*
X026512Y032010D01*
X026495Y031943D01*
X026482Y031876D01*
X026473Y031808D01*
X026467Y031739D01*
X026466Y031670D01*
X026469Y031601D01*
X026475Y031533D01*
X026485Y031465D01*
X026499Y031397D01*
X026517Y031331D01*
X026539Y031266D01*
X026564Y031202D01*
X026593Y031139D01*
X026625Y031079D01*
X026661Y031020D01*
X026700Y030963D01*
X026742Y030909D01*
X026788Y030857D01*
X026836Y030808D01*
X026886Y030761D01*
X026940Y030718D01*
X026995Y030677D01*
X027053Y030640D01*
X027113Y030606D01*
X027175Y030576D01*
X027238Y030549D01*
X027303Y030526D01*
X027369Y030506D01*
X027436Y030491D01*
X027504Y030479D01*
X027572Y030471D01*
X027641Y030467D01*
X027710Y030466D01*
X027778Y030470D01*
X027847Y030478D01*
X021712Y037460D02*
X021640Y037406D01*
X021641Y037407D02*
X021598Y037460D01*
X021553Y037511D01*
X021504Y037559D01*
X021453Y037604D01*
X021399Y037647D01*
X021343Y037686D01*
X021285Y037722D01*
X021225Y037755D01*
X021164Y037784D01*
X021100Y037809D01*
X021036Y037831D01*
X020970Y037850D01*
X020903Y037864D01*
X020836Y037875D01*
X020768Y037882D01*
X020700Y037885D01*
X020631Y037884D01*
X020563Y037879D01*
X020495Y037871D01*
X020428Y037858D01*
X020362Y037842D01*
X020297Y037822D01*
X020232Y037799D01*
X020170Y037772D01*
X020109Y037741D01*
X020050Y037707D01*
X019992Y037670D01*
X019937Y037629D01*
X019885Y037585D01*
X019835Y037539D01*
X019788Y037490D01*
X019743Y037438D01*
X019702Y037384D01*
X019663Y037327D01*
X019628Y037268D01*
X019597Y037208D01*
X019569Y037146D01*
X019544Y037082D01*
X019523Y037017D01*
X019506Y036951D01*
X019492Y036884D01*
X019483Y036816D01*
X019477Y036748D01*
X019475Y036680D01*
X019477Y036612D01*
X019483Y036544D01*
X019492Y036476D01*
X019506Y036409D01*
X019523Y036343D01*
X019544Y036278D01*
X019569Y036214D01*
X019597Y036152D01*
X019628Y036092D01*
X019663Y036033D01*
X019702Y035976D01*
X019743Y035922D01*
X019788Y035870D01*
X019835Y035821D01*
X019885Y035775D01*
X019937Y035731D01*
X019992Y035690D01*
X020050Y035653D01*
X020109Y035619D01*
X020170Y035588D01*
X020232Y035561D01*
X020297Y035538D01*
X020362Y035518D01*
X020428Y035502D01*
X020495Y035489D01*
X020563Y035481D01*
X020631Y035476D01*
X020700Y035475D01*
X020768Y035478D01*
X020836Y035485D01*
X020903Y035496D01*
X020970Y035510D01*
X021036Y035529D01*
X021100Y035551D01*
X021164Y035576D01*
X021225Y035605D01*
X021285Y035638D01*
X021343Y035674D01*
X021399Y035713D01*
X021453Y035756D01*
X021504Y035801D01*
X021553Y035849D01*
X021598Y035900D01*
X021641Y035953D01*
X021712Y035900D01*
X021713Y035899D01*
X021669Y035844D01*
X021621Y035791D01*
X021571Y035740D01*
X021518Y035693D01*
X021463Y035649D01*
X021405Y035607D01*
X021345Y035569D01*
X021284Y035534D01*
X021220Y035503D01*
X021155Y035475D01*
X021088Y035451D01*
X021020Y035430D01*
X020951Y035414D01*
X020881Y035401D01*
X020811Y035392D01*
X020740Y035386D01*
X020669Y035385D01*
X020598Y035388D01*
X020527Y035394D01*
X020457Y035404D01*
X020388Y035418D01*
X020319Y035436D01*
X020251Y035458D01*
X020185Y035483D01*
X020120Y035512D01*
X020057Y035545D01*
X019996Y035581D01*
X019937Y035620D01*
X019880Y035662D01*
X019825Y035707D01*
X019773Y035756D01*
X019724Y035807D01*
X019677Y035860D01*
X019634Y035917D01*
X019594Y035975D01*
X019557Y036036D01*
X019523Y036098D01*
X019493Y036162D01*
X019466Y036228D01*
X019443Y036295D01*
X019424Y036364D01*
X019409Y036433D01*
X019397Y036503D01*
X019389Y036574D01*
X019385Y036645D01*
X019385Y036715D01*
X019389Y036786D01*
X019397Y036857D01*
X019409Y036927D01*
X019424Y036996D01*
X019443Y037065D01*
X019466Y037132D01*
X019493Y037198D01*
X019523Y037262D01*
X019557Y037324D01*
X019594Y037385D01*
X019634Y037443D01*
X019677Y037500D01*
X019724Y037553D01*
X019773Y037604D01*
X019825Y037653D01*
X019880Y037698D01*
X019937Y037740D01*
X019996Y037779D01*
X020057Y037815D01*
X020120Y037848D01*
X020185Y037877D01*
X020251Y037902D01*
X020319Y037924D01*
X020388Y037942D01*
X020457Y037956D01*
X020527Y037966D01*
X020598Y037972D01*
X020669Y037975D01*
X020740Y037974D01*
X020811Y037968D01*
X020881Y037959D01*
X020951Y037946D01*
X021020Y037930D01*
X021088Y037909D01*
X021155Y037885D01*
X021220Y037857D01*
X021284Y037826D01*
X021345Y037791D01*
X021405Y037753D01*
X021463Y037711D01*
X021518Y037667D01*
X021571Y037620D01*
X021621Y037569D01*
X021669Y037516D01*
X021713Y037461D01*
X021706Y037456D01*
X021661Y037511D01*
X021614Y037564D01*
X021563Y037615D01*
X021510Y037662D01*
X021454Y037707D01*
X021396Y037748D01*
X021336Y037786D01*
X021274Y037821D01*
X021210Y037852D01*
X021144Y037879D01*
X021077Y037903D01*
X021008Y037923D01*
X020939Y037940D01*
X020869Y037952D01*
X020798Y037961D01*
X020727Y037965D01*
X020656Y037966D01*
X020585Y037962D01*
X020514Y037955D01*
X020443Y037944D01*
X020374Y037929D01*
X020305Y037910D01*
X020237Y037887D01*
X020171Y037861D01*
X020106Y037831D01*
X020044Y037797D01*
X019983Y037761D01*
X019924Y037720D01*
X019867Y037677D01*
X019813Y037630D01*
X019762Y037581D01*
X019714Y037528D01*
X019668Y037474D01*
X019626Y037416D01*
X019587Y037357D01*
X019551Y037295D01*
X019518Y037232D01*
X019490Y037167D01*
X019464Y037100D01*
X019443Y037032D01*
X019425Y036963D01*
X019412Y036893D01*
X019402Y036822D01*
X019396Y036751D01*
X019394Y036680D01*
X019396Y036609D01*
X019402Y036538D01*
X019412Y036467D01*
X019425Y036397D01*
X019443Y036328D01*
X019464Y036260D01*
X019490Y036193D01*
X019518Y036128D01*
X019551Y036065D01*
X019587Y036003D01*
X019626Y035944D01*
X019668Y035886D01*
X019714Y035832D01*
X019762Y035779D01*
X019813Y035730D01*
X019867Y035683D01*
X019924Y035640D01*
X019983Y035599D01*
X020044Y035563D01*
X020106Y035529D01*
X020171Y035499D01*
X020237Y035473D01*
X020305Y035450D01*
X020374Y035431D01*
X020443Y035416D01*
X020514Y035405D01*
X020585Y035398D01*
X020656Y035394D01*
X020727Y035395D01*
X020798Y035399D01*
X020869Y035408D01*
X020939Y035420D01*
X021008Y035437D01*
X021077Y035457D01*
X021144Y035481D01*
X021210Y035508D01*
X021274Y035539D01*
X021336Y035574D01*
X021396Y035612D01*
X021454Y035653D01*
X021510Y035698D01*
X021563Y035745D01*
X021614Y035796D01*
X021661Y035849D01*
X021706Y035904D01*
X021699Y035910D01*
X021654Y035855D01*
X021607Y035802D01*
X021557Y035752D01*
X021504Y035705D01*
X021449Y035661D01*
X021391Y035619D01*
X021332Y035582D01*
X021270Y035547D01*
X021206Y035516D01*
X021141Y035489D01*
X021074Y035465D01*
X021006Y035445D01*
X020937Y035429D01*
X020868Y035417D01*
X020797Y035408D01*
X020727Y035404D01*
X020656Y035403D01*
X020585Y035407D01*
X020515Y035414D01*
X020445Y035425D01*
X020376Y035440D01*
X020308Y035459D01*
X020240Y035481D01*
X020175Y035507D01*
X020110Y035537D01*
X020048Y035570D01*
X019988Y035607D01*
X019929Y035647D01*
X019873Y035690D01*
X019819Y035736D01*
X019769Y035786D01*
X019720Y035837D01*
X019675Y035892D01*
X019633Y035949D01*
X019594Y036008D01*
X019559Y036069D01*
X019526Y036132D01*
X019498Y036197D01*
X019473Y036263D01*
X019452Y036331D01*
X019434Y036399D01*
X019421Y036469D01*
X019411Y036539D01*
X019405Y036609D01*
X019403Y036680D01*
X019405Y036751D01*
X019411Y036821D01*
X019421Y036891D01*
X019434Y036961D01*
X019452Y037029D01*
X019473Y037097D01*
X019498Y037163D01*
X019526Y037228D01*
X019559Y037291D01*
X019594Y037352D01*
X019633Y037411D01*
X019675Y037468D01*
X019720Y037523D01*
X019769Y037574D01*
X019819Y037624D01*
X019873Y037670D01*
X019929Y037713D01*
X019988Y037753D01*
X020048Y037790D01*
X020110Y037823D01*
X020175Y037853D01*
X020240Y037879D01*
X020308Y037901D01*
X020376Y037920D01*
X020445Y037935D01*
X020515Y037946D01*
X020585Y037953D01*
X020656Y037957D01*
X020727Y037956D01*
X020797Y037952D01*
X020868Y037943D01*
X020937Y037931D01*
X021006Y037915D01*
X021074Y037895D01*
X021141Y037871D01*
X021206Y037844D01*
X021270Y037813D01*
X021332Y037778D01*
X021391Y037741D01*
X021449Y037699D01*
X021504Y037655D01*
X021557Y037608D01*
X021607Y037558D01*
X021654Y037505D01*
X021699Y037450D01*
X021691Y037445D01*
X021647Y037500D01*
X021599Y037553D01*
X021549Y037603D01*
X021496Y037651D01*
X021440Y037695D01*
X021382Y037736D01*
X021322Y037773D01*
X021260Y037808D01*
X021196Y037838D01*
X021130Y037865D01*
X021063Y037889D01*
X020995Y037908D01*
X020925Y037924D01*
X020855Y037936D01*
X020785Y037944D01*
X020714Y037948D01*
X020643Y037947D01*
X020572Y037943D01*
X020501Y037935D01*
X020431Y037923D01*
X020362Y037907D01*
X020294Y037888D01*
X020226Y037864D01*
X020161Y037837D01*
X020097Y037806D01*
X020035Y037772D01*
X019975Y037734D01*
X019917Y037692D01*
X019861Y037648D01*
X019808Y037601D01*
X019758Y037550D01*
X019711Y037497D01*
X019666Y037442D01*
X019625Y037384D01*
X019588Y037324D01*
X019553Y037261D01*
X019522Y037197D01*
X019495Y037132D01*
X019472Y037065D01*
X019452Y036996D01*
X019436Y036927D01*
X019424Y036857D01*
X019416Y036786D01*
X019412Y036716D01*
X019412Y036644D01*
X019416Y036574D01*
X019424Y036503D01*
X019436Y036433D01*
X019452Y036364D01*
X019472Y036295D01*
X019495Y036228D01*
X019522Y036163D01*
X019553Y036099D01*
X019588Y036036D01*
X019625Y035976D01*
X019666Y035918D01*
X019711Y035863D01*
X019758Y035810D01*
X019808Y035759D01*
X019861Y035712D01*
X019917Y035668D01*
X019975Y035626D01*
X020035Y035588D01*
X020097Y035554D01*
X020161Y035523D01*
X020226Y035496D01*
X020294Y035472D01*
X020362Y035453D01*
X020431Y035437D01*
X020501Y035425D01*
X020572Y035417D01*
X020643Y035413D01*
X020714Y035412D01*
X020785Y035416D01*
X020855Y035424D01*
X020925Y035436D01*
X020995Y035452D01*
X021063Y035471D01*
X021130Y035495D01*
X021196Y035522D01*
X021260Y035552D01*
X021322Y035587D01*
X021382Y035624D01*
X021440Y035665D01*
X021496Y035709D01*
X021549Y035757D01*
X021599Y035807D01*
X021647Y035860D01*
X021691Y035915D01*
X021684Y035921D01*
X021640Y035866D01*
X021593Y035813D01*
X021543Y035763D01*
X021490Y035716D01*
X021435Y035672D01*
X021377Y035632D01*
X021318Y035594D01*
X021256Y035560D01*
X021192Y035530D01*
X021127Y035503D01*
X021060Y035480D01*
X020992Y035460D01*
X020924Y035445D01*
X020854Y035433D01*
X020784Y035425D01*
X020713Y035421D01*
X020643Y035422D01*
X020572Y035426D01*
X020502Y035434D01*
X020433Y035446D01*
X020364Y035461D01*
X020296Y035481D01*
X020230Y035504D01*
X020165Y035531D01*
X020101Y035562D01*
X020039Y035596D01*
X019980Y035634D01*
X019922Y035675D01*
X019867Y035719D01*
X019814Y035766D01*
X019765Y035816D01*
X019718Y035868D01*
X019674Y035924D01*
X019633Y035981D01*
X019595Y036041D01*
X019561Y036103D01*
X019531Y036166D01*
X019504Y036231D01*
X019480Y036298D01*
X019461Y036366D01*
X019445Y036435D01*
X019433Y036504D01*
X019425Y036574D01*
X019421Y036645D01*
X019421Y036715D01*
X019425Y036786D01*
X019433Y036856D01*
X019445Y036925D01*
X019461Y036994D01*
X019480Y037062D01*
X019504Y037129D01*
X019531Y037194D01*
X019561Y037257D01*
X019595Y037319D01*
X019633Y037379D01*
X019674Y037436D01*
X019718Y037492D01*
X019765Y037544D01*
X019814Y037594D01*
X019867Y037641D01*
X019922Y037685D01*
X019980Y037726D01*
X020039Y037764D01*
X020101Y037798D01*
X020165Y037829D01*
X020230Y037856D01*
X020296Y037879D01*
X020364Y037899D01*
X020433Y037914D01*
X020502Y037926D01*
X020572Y037934D01*
X020643Y037938D01*
X020713Y037939D01*
X020784Y037935D01*
X020854Y037927D01*
X020924Y037915D01*
X020992Y037900D01*
X021060Y037880D01*
X021127Y037857D01*
X021192Y037830D01*
X021256Y037800D01*
X021318Y037766D01*
X021377Y037728D01*
X021435Y037688D01*
X021490Y037644D01*
X021543Y037597D01*
X021593Y037547D01*
X021640Y037494D01*
X021684Y037439D01*
X021677Y037434D01*
X021633Y037489D01*
X021586Y037541D01*
X021537Y037590D01*
X021484Y037637D01*
X021430Y037680D01*
X021372Y037721D01*
X021313Y037758D01*
X021252Y037792D01*
X021188Y037822D01*
X021124Y037849D01*
X021057Y037872D01*
X020990Y037891D01*
X020922Y037906D01*
X020853Y037918D01*
X020783Y037926D01*
X020713Y037930D01*
X020643Y037929D01*
X020573Y037925D01*
X020504Y037917D01*
X020435Y037906D01*
X020366Y037890D01*
X020299Y037871D01*
X020233Y037847D01*
X020168Y037820D01*
X020105Y037790D01*
X020044Y037756D01*
X019985Y037719D01*
X019927Y037678D01*
X019873Y037634D01*
X019821Y037588D01*
X019771Y037538D01*
X019724Y037486D01*
X019681Y037431D01*
X019640Y037374D01*
X019603Y037315D01*
X019569Y037253D01*
X019539Y037190D01*
X019512Y037125D01*
X019489Y037059D01*
X019470Y036992D01*
X019454Y036924D01*
X019442Y036855D01*
X019434Y036785D01*
X019430Y036715D01*
X019430Y036645D01*
X019434Y036575D01*
X019442Y036505D01*
X019454Y036436D01*
X019470Y036368D01*
X019489Y036301D01*
X019512Y036235D01*
X019539Y036170D01*
X019569Y036107D01*
X019603Y036045D01*
X019640Y035986D01*
X019681Y035929D01*
X019724Y035874D01*
X019771Y035822D01*
X019821Y035772D01*
X019873Y035726D01*
X019927Y035682D01*
X019985Y035641D01*
X020044Y035604D01*
X020105Y035570D01*
X020168Y035540D01*
X020233Y035513D01*
X020299Y035489D01*
X020366Y035470D01*
X020435Y035454D01*
X020504Y035443D01*
X020573Y035435D01*
X020643Y035431D01*
X020713Y035430D01*
X020783Y035434D01*
X020853Y035442D01*
X020922Y035454D01*
X020990Y035469D01*
X021057Y035488D01*
X021124Y035511D01*
X021188Y035538D01*
X021252Y035568D01*
X021313Y035602D01*
X021372Y035639D01*
X021430Y035680D01*
X021484Y035723D01*
X021537Y035770D01*
X021586Y035819D01*
X021633Y035871D01*
X021677Y035926D01*
X021670Y035931D01*
X021626Y035877D01*
X021580Y035825D01*
X021531Y035776D01*
X021479Y035730D01*
X021424Y035687D01*
X021367Y035647D01*
X021308Y035610D01*
X021247Y035576D01*
X021185Y035546D01*
X021120Y035520D01*
X021055Y035497D01*
X020988Y035478D01*
X020920Y035462D01*
X020851Y035451D01*
X020782Y035443D01*
X020713Y035439D01*
X020643Y035440D01*
X020574Y035444D01*
X020505Y035451D01*
X020436Y035463D01*
X020369Y035479D01*
X020302Y035498D01*
X020236Y035521D01*
X020172Y035548D01*
X020109Y035578D01*
X020048Y035612D01*
X019990Y035649D01*
X019933Y035689D01*
X019879Y035732D01*
X019827Y035779D01*
X019778Y035828D01*
X019731Y035880D01*
X019688Y035934D01*
X019648Y035991D01*
X019611Y036050D01*
X019577Y036111D01*
X019547Y036174D01*
X019520Y036238D01*
X019497Y036303D01*
X019478Y036370D01*
X019463Y036438D01*
X019451Y036507D01*
X019443Y036576D01*
X019439Y036645D01*
X019439Y036715D01*
X019443Y036784D01*
X019451Y036853D01*
X019463Y036922D01*
X019478Y036990D01*
X019497Y037057D01*
X019520Y037122D01*
X019547Y037186D01*
X019577Y037249D01*
X019611Y037310D01*
X019648Y037369D01*
X019688Y037426D01*
X019731Y037480D01*
X019778Y037532D01*
X019827Y037581D01*
X019879Y037628D01*
X019933Y037671D01*
X019990Y037711D01*
X020048Y037748D01*
X020109Y037782D01*
X020172Y037812D01*
X020236Y037839D01*
X020302Y037862D01*
X020369Y037881D01*
X020436Y037897D01*
X020505Y037909D01*
X020574Y037916D01*
X020643Y037920D01*
X020713Y037921D01*
X020782Y037917D01*
X020851Y037909D01*
X020920Y037898D01*
X020988Y037882D01*
X021055Y037863D01*
X021120Y037840D01*
X021185Y037814D01*
X021247Y037784D01*
X021308Y037750D01*
X021367Y037713D01*
X021424Y037673D01*
X021479Y037630D01*
X021531Y037584D01*
X021580Y037535D01*
X021626Y037483D01*
X021670Y037429D01*
X021663Y037423D01*
X021619Y037477D01*
X021573Y037528D01*
X021524Y037577D01*
X021473Y037623D01*
X021419Y037666D01*
X021362Y037706D01*
X021304Y037742D01*
X021243Y037776D01*
X021181Y037806D01*
X021117Y037832D01*
X021052Y037854D01*
X020986Y037873D01*
X020918Y037889D01*
X020850Y037900D01*
X020782Y037908D01*
X020713Y037912D01*
X020644Y037911D01*
X020575Y037907D01*
X020506Y037900D01*
X020438Y037888D01*
X020371Y037873D01*
X020304Y037853D01*
X020239Y037830D01*
X020176Y037804D01*
X020113Y037774D01*
X020053Y037741D01*
X019995Y037704D01*
X019938Y037664D01*
X019884Y037621D01*
X019833Y037575D01*
X019784Y037526D01*
X019738Y037474D01*
X019695Y037420D01*
X019655Y037364D01*
X019619Y037305D01*
X019585Y037245D01*
X019555Y037183D01*
X019529Y037119D01*
X019506Y037054D01*
X019487Y036987D01*
X019472Y036920D01*
X019460Y036852D01*
X019452Y036783D01*
X019448Y036715D01*
X019448Y036645D01*
X019452Y036577D01*
X019460Y036508D01*
X019472Y036440D01*
X019487Y036373D01*
X019506Y036306D01*
X019529Y036241D01*
X019555Y036177D01*
X019585Y036115D01*
X019619Y036055D01*
X019655Y035996D01*
X019695Y035940D01*
X019738Y035886D01*
X019784Y035834D01*
X019833Y035785D01*
X019884Y035739D01*
X019938Y035696D01*
X019995Y035656D01*
X020053Y035619D01*
X020113Y035586D01*
X020176Y035556D01*
X020239Y035530D01*
X020304Y035507D01*
X020371Y035487D01*
X020438Y035472D01*
X020506Y035460D01*
X020575Y035453D01*
X020644Y035449D01*
X020713Y035448D01*
X020782Y035452D01*
X020850Y035460D01*
X020918Y035471D01*
X020986Y035487D01*
X021052Y035506D01*
X021117Y035528D01*
X021181Y035554D01*
X021243Y035584D01*
X021304Y035618D01*
X021362Y035654D01*
X021419Y035694D01*
X021473Y035737D01*
X021524Y035783D01*
X021573Y035832D01*
X021619Y035883D01*
X021663Y035937D01*
X021655Y035942D01*
X021612Y035888D01*
X021566Y035837D01*
X021516Y035788D01*
X021465Y035742D01*
X021410Y035699D01*
X021353Y035659D01*
X021295Y035623D01*
X021234Y035589D01*
X021171Y035560D01*
X021107Y035534D01*
X021041Y035512D01*
X020974Y035493D01*
X020907Y035478D01*
X020838Y035467D01*
X020769Y035460D01*
X020700Y035457D01*
X020631Y035458D01*
X020561Y035463D01*
X020493Y035471D01*
X020425Y035484D01*
X020357Y035500D01*
X020291Y035521D01*
X020226Y035544D01*
X020162Y035572D01*
X020100Y035603D01*
X020040Y035638D01*
X019982Y035676D01*
X019926Y035717D01*
X019873Y035761D01*
X019822Y035808D01*
X019774Y035858D01*
X019729Y035911D01*
X019687Y035966D01*
X019648Y036023D01*
X019613Y036083D01*
X019581Y036144D01*
X019552Y036207D01*
X019527Y036272D01*
X019506Y036338D01*
X019488Y036405D01*
X019475Y036473D01*
X019465Y036542D01*
X019459Y036611D01*
X019457Y036680D01*
X019459Y036749D01*
X019465Y036818D01*
X019475Y036887D01*
X019488Y036955D01*
X019506Y037022D01*
X019527Y037088D01*
X019552Y037153D01*
X019581Y037216D01*
X019613Y037277D01*
X019648Y037337D01*
X019687Y037394D01*
X019729Y037449D01*
X019774Y037502D01*
X019822Y037552D01*
X019873Y037599D01*
X019926Y037643D01*
X019982Y037684D01*
X020040Y037722D01*
X020100Y037757D01*
X020162Y037788D01*
X020226Y037816D01*
X020291Y037839D01*
X020357Y037860D01*
X020425Y037876D01*
X020493Y037889D01*
X020561Y037897D01*
X020631Y037902D01*
X020700Y037903D01*
X020769Y037900D01*
X020838Y037893D01*
X020907Y037882D01*
X020974Y037867D01*
X021041Y037848D01*
X021107Y037826D01*
X021171Y037800D01*
X021234Y037771D01*
X021295Y037737D01*
X021353Y037701D01*
X021410Y037661D01*
X021465Y037618D01*
X021516Y037572D01*
X021566Y037523D01*
X021612Y037472D01*
X021655Y037418D01*
X021648Y037412D01*
X021605Y037466D01*
X021559Y037517D01*
X021510Y037566D01*
X021459Y037611D01*
X021405Y037654D01*
X021348Y037693D01*
X021290Y037730D01*
X021230Y037763D01*
X021167Y037792D01*
X021104Y037818D01*
X021038Y037840D01*
X020972Y037858D01*
X020905Y037873D01*
X020837Y037884D01*
X020768Y037891D01*
X020700Y037894D01*
X020631Y037893D01*
X020562Y037888D01*
X020494Y037880D01*
X020426Y037867D01*
X020360Y037851D01*
X020294Y037831D01*
X020229Y037807D01*
X020166Y037780D01*
X020105Y037749D01*
X020045Y037715D01*
X019987Y037677D01*
X019932Y037636D01*
X019879Y037592D01*
X019829Y037545D01*
X019781Y037496D01*
X019736Y037444D01*
X019694Y037389D01*
X019656Y037332D01*
X019621Y037273D01*
X019589Y037212D01*
X019560Y037149D01*
X019536Y037085D01*
X019514Y037019D01*
X019497Y036953D01*
X019484Y036885D01*
X019474Y036817D01*
X019468Y036749D01*
X019466Y036680D01*
X019468Y036611D01*
X019474Y036543D01*
X019484Y036475D01*
X019497Y036407D01*
X019514Y036341D01*
X019536Y036275D01*
X019560Y036211D01*
X019589Y036148D01*
X019621Y036087D01*
X019656Y036028D01*
X019694Y035971D01*
X019736Y035916D01*
X019781Y035864D01*
X019829Y035815D01*
X019879Y035768D01*
X019932Y035724D01*
X019987Y035683D01*
X020045Y035645D01*
X020105Y035611D01*
X020166Y035580D01*
X020229Y035553D01*
X020294Y035529D01*
X020360Y035509D01*
X020426Y035493D01*
X020494Y035480D01*
X020562Y035472D01*
X020631Y035467D01*
X020700Y035466D01*
X020768Y035469D01*
X020837Y035476D01*
X020905Y035487D01*
X020972Y035502D01*
X021038Y035520D01*
X021104Y035542D01*
X021167Y035568D01*
X021230Y035597D01*
X021290Y035630D01*
X021348Y035667D01*
X021405Y035706D01*
X021459Y035749D01*
X021510Y035794D01*
X021559Y035843D01*
X021605Y035894D01*
X021648Y035948D01*
X015212Y037460D02*
X015140Y037406D01*
X015141Y037407D02*
X015098Y037460D01*
X015053Y037511D01*
X015004Y037559D01*
X014953Y037604D01*
X014899Y037647D01*
X014843Y037686D01*
X014785Y037722D01*
X014725Y037755D01*
X014664Y037784D01*
X014600Y037809D01*
X014536Y037831D01*
X014470Y037850D01*
X014403Y037864D01*
X014336Y037875D01*
X014268Y037882D01*
X014200Y037885D01*
X014131Y037884D01*
X014063Y037879D01*
X013995Y037871D01*
X013928Y037858D01*
X013862Y037842D01*
X013797Y037822D01*
X013732Y037799D01*
X013670Y037772D01*
X013609Y037741D01*
X013550Y037707D01*
X013492Y037670D01*
X013437Y037629D01*
X013385Y037585D01*
X013335Y037539D01*
X013288Y037490D01*
X013243Y037438D01*
X013202Y037384D01*
X013163Y037327D01*
X013128Y037268D01*
X013097Y037208D01*
X013069Y037146D01*
X013044Y037082D01*
X013023Y037017D01*
X013006Y036951D01*
X012992Y036884D01*
X012983Y036816D01*
X012977Y036748D01*
X012975Y036680D01*
X012977Y036612D01*
X012983Y036544D01*
X012992Y036476D01*
X013006Y036409D01*
X013023Y036343D01*
X013044Y036278D01*
X013069Y036214D01*
X013097Y036152D01*
X013128Y036092D01*
X013163Y036033D01*
X013202Y035976D01*
X013243Y035922D01*
X013288Y035870D01*
X013335Y035821D01*
X013385Y035775D01*
X013437Y035731D01*
X013492Y035690D01*
X013550Y035653D01*
X013609Y035619D01*
X013670Y035588D01*
X013732Y035561D01*
X013797Y035538D01*
X013862Y035518D01*
X013928Y035502D01*
X013995Y035489D01*
X014063Y035481D01*
X014131Y035476D01*
X014200Y035475D01*
X014268Y035478D01*
X014336Y035485D01*
X014403Y035496D01*
X014470Y035510D01*
X014536Y035529D01*
X014600Y035551D01*
X014664Y035576D01*
X014725Y035605D01*
X014785Y035638D01*
X014843Y035674D01*
X014899Y035713D01*
X014953Y035756D01*
X015004Y035801D01*
X015053Y035849D01*
X015098Y035900D01*
X015141Y035953D01*
X015212Y035900D01*
X015213Y035899D01*
X015169Y035844D01*
X015121Y035791D01*
X015071Y035740D01*
X015018Y035693D01*
X014963Y035649D01*
X014905Y035607D01*
X014845Y035569D01*
X014784Y035534D01*
X014720Y035503D01*
X014655Y035475D01*
X014588Y035451D01*
X014520Y035430D01*
X014451Y035414D01*
X014381Y035401D01*
X014311Y035392D01*
X014240Y035386D01*
X014169Y035385D01*
X014098Y035388D01*
X014027Y035394D01*
X013957Y035404D01*
X013888Y035418D01*
X013819Y035436D01*
X013751Y035458D01*
X013685Y035483D01*
X013620Y035512D01*
X013557Y035545D01*
X013496Y035581D01*
X013437Y035620D01*
X013380Y035662D01*
X013325Y035707D01*
X013273Y035756D01*
X013224Y035807D01*
X013177Y035860D01*
X013134Y035917D01*
X013094Y035975D01*
X013057Y036036D01*
X013023Y036098D01*
X012993Y036162D01*
X012966Y036228D01*
X012943Y036295D01*
X012924Y036364D01*
X012909Y036433D01*
X012897Y036503D01*
X012889Y036574D01*
X012885Y036645D01*
X012885Y036715D01*
X012889Y036786D01*
X012897Y036857D01*
X012909Y036927D01*
X012924Y036996D01*
X012943Y037065D01*
X012966Y037132D01*
X012993Y037198D01*
X013023Y037262D01*
X013057Y037324D01*
X013094Y037385D01*
X013134Y037443D01*
X013177Y037500D01*
X013224Y037553D01*
X013273Y037604D01*
X013325Y037653D01*
X013380Y037698D01*
X013437Y037740D01*
X013496Y037779D01*
X013557Y037815D01*
X013620Y037848D01*
X013685Y037877D01*
X013751Y037902D01*
X013819Y037924D01*
X013888Y037942D01*
X013957Y037956D01*
X014027Y037966D01*
X014098Y037972D01*
X014169Y037975D01*
X014240Y037974D01*
X014311Y037968D01*
X014381Y037959D01*
X014451Y037946D01*
X014520Y037930D01*
X014588Y037909D01*
X014655Y037885D01*
X014720Y037857D01*
X014784Y037826D01*
X014845Y037791D01*
X014905Y037753D01*
X014963Y037711D01*
X015018Y037667D01*
X015071Y037620D01*
X015121Y037569D01*
X015169Y037516D01*
X015213Y037461D01*
X015206Y037456D01*
X015161Y037511D01*
X015114Y037564D01*
X015063Y037615D01*
X015010Y037662D01*
X014954Y037707D01*
X014896Y037748D01*
X014836Y037786D01*
X014774Y037821D01*
X014710Y037852D01*
X014644Y037879D01*
X014577Y037903D01*
X014508Y037923D01*
X014439Y037940D01*
X014369Y037952D01*
X014298Y037961D01*
X014227Y037965D01*
X014156Y037966D01*
X014085Y037962D01*
X014014Y037955D01*
X013943Y037944D01*
X013874Y037929D01*
X013805Y037910D01*
X013737Y037887D01*
X013671Y037861D01*
X013606Y037831D01*
X013544Y037797D01*
X013483Y037761D01*
X013424Y037720D01*
X013367Y037677D01*
X013313Y037630D01*
X013262Y037581D01*
X013214Y037528D01*
X013168Y037474D01*
X013126Y037416D01*
X013087Y037357D01*
X013051Y037295D01*
X013018Y037232D01*
X012990Y037167D01*
X012964Y037100D01*
X012943Y037032D01*
X012925Y036963D01*
X012912Y036893D01*
X012902Y036822D01*
X012896Y036751D01*
X012894Y036680D01*
X012896Y036609D01*
X012902Y036538D01*
X012912Y036467D01*
X012925Y036397D01*
X012943Y036328D01*
X012964Y036260D01*
X012990Y036193D01*
X013018Y036128D01*
X013051Y036065D01*
X013087Y036003D01*
X013126Y035944D01*
X013168Y035886D01*
X013214Y035832D01*
X013262Y035779D01*
X013313Y035730D01*
X013367Y035683D01*
X013424Y035640D01*
X013483Y035599D01*
X013544Y035563D01*
X013606Y035529D01*
X013671Y035499D01*
X013737Y035473D01*
X013805Y035450D01*
X013874Y035431D01*
X013943Y035416D01*
X014014Y035405D01*
X014085Y035398D01*
X014156Y035394D01*
X014227Y035395D01*
X014298Y035399D01*
X014369Y035408D01*
X014439Y035420D01*
X014508Y035437D01*
X014577Y035457D01*
X014644Y035481D01*
X014710Y035508D01*
X014774Y035539D01*
X014836Y035574D01*
X014896Y035612D01*
X014954Y035653D01*
X015010Y035698D01*
X015063Y035745D01*
X015114Y035796D01*
X015161Y035849D01*
X015206Y035904D01*
X015199Y035910D01*
X015154Y035855D01*
X015107Y035802D01*
X015057Y035752D01*
X015004Y035705D01*
X014949Y035661D01*
X014891Y035619D01*
X014832Y035582D01*
X014770Y035547D01*
X014706Y035516D01*
X014641Y035489D01*
X014574Y035465D01*
X014506Y035445D01*
X014437Y035429D01*
X014368Y035417D01*
X014297Y035408D01*
X014227Y035404D01*
X014156Y035403D01*
X014085Y035407D01*
X014015Y035414D01*
X013945Y035425D01*
X013876Y035440D01*
X013808Y035459D01*
X013740Y035481D01*
X013675Y035507D01*
X013610Y035537D01*
X013548Y035570D01*
X013488Y035607D01*
X013429Y035647D01*
X013373Y035690D01*
X013319Y035736D01*
X013269Y035786D01*
X013220Y035837D01*
X013175Y035892D01*
X013133Y035949D01*
X013094Y036008D01*
X013059Y036069D01*
X013026Y036132D01*
X012998Y036197D01*
X012973Y036263D01*
X012952Y036331D01*
X012934Y036399D01*
X012921Y036469D01*
X012911Y036539D01*
X012905Y036609D01*
X012903Y036680D01*
X012905Y036751D01*
X012911Y036821D01*
X012921Y036891D01*
X012934Y036961D01*
X012952Y037029D01*
X012973Y037097D01*
X012998Y037163D01*
X013026Y037228D01*
X013059Y037291D01*
X013094Y037352D01*
X013133Y037411D01*
X013175Y037468D01*
X013220Y037523D01*
X013269Y037574D01*
X013319Y037624D01*
X013373Y037670D01*
X013429Y037713D01*
X013488Y037753D01*
X013548Y037790D01*
X013610Y037823D01*
X013675Y037853D01*
X013740Y037879D01*
X013808Y037901D01*
X013876Y037920D01*
X013945Y037935D01*
X014015Y037946D01*
X014085Y037953D01*
X014156Y037957D01*
X014227Y037956D01*
X014297Y037952D01*
X014368Y037943D01*
X014437Y037931D01*
X014506Y037915D01*
X014574Y037895D01*
X014641Y037871D01*
X014706Y037844D01*
X014770Y037813D01*
X014832Y037778D01*
X014891Y037741D01*
X014949Y037699D01*
X015004Y037655D01*
X015057Y037608D01*
X015107Y037558D01*
X015154Y037505D01*
X015199Y037450D01*
X015191Y037445D01*
X015147Y037500D01*
X015099Y037553D01*
X015049Y037603D01*
X014996Y037651D01*
X014940Y037695D01*
X014882Y037736D01*
X014822Y037773D01*
X014760Y037808D01*
X014696Y037838D01*
X014630Y037865D01*
X014563Y037889D01*
X014495Y037908D01*
X014425Y037924D01*
X014355Y037936D01*
X014285Y037944D01*
X014214Y037948D01*
X014143Y037947D01*
X014072Y037943D01*
X014001Y037935D01*
X013931Y037923D01*
X013862Y037907D01*
X013794Y037888D01*
X013726Y037864D01*
X013661Y037837D01*
X013597Y037806D01*
X013535Y037772D01*
X013475Y037734D01*
X013417Y037692D01*
X013361Y037648D01*
X013308Y037601D01*
X013258Y037550D01*
X013211Y037497D01*
X013166Y037442D01*
X013125Y037384D01*
X013088Y037324D01*
X013053Y037261D01*
X013022Y037197D01*
X012995Y037132D01*
X012972Y037065D01*
X012952Y036996D01*
X012936Y036927D01*
X012924Y036857D01*
X012916Y036786D01*
X012912Y036716D01*
X012912Y036644D01*
X012916Y036574D01*
X012924Y036503D01*
X012936Y036433D01*
X012952Y036364D01*
X012972Y036295D01*
X012995Y036228D01*
X013022Y036163D01*
X013053Y036099D01*
X013088Y036036D01*
X013125Y035976D01*
X013166Y035918D01*
X013211Y035863D01*
X013258Y035810D01*
X013308Y035759D01*
X013361Y035712D01*
X013417Y035668D01*
X013475Y035626D01*
X013535Y035588D01*
X013597Y035554D01*
X013661Y035523D01*
X013726Y035496D01*
X013794Y035472D01*
X013862Y035453D01*
X013931Y035437D01*
X014001Y035425D01*
X014072Y035417D01*
X014143Y035413D01*
X014214Y035412D01*
X014285Y035416D01*
X014355Y035424D01*
X014425Y035436D01*
X014495Y035452D01*
X014563Y035471D01*
X014630Y035495D01*
X014696Y035522D01*
X014760Y035552D01*
X014822Y035587D01*
X014882Y035624D01*
X014940Y035665D01*
X014996Y035709D01*
X015049Y035757D01*
X015099Y035807D01*
X015147Y035860D01*
X015191Y035915D01*
X015184Y035921D01*
X015140Y035866D01*
X015093Y035813D01*
X015043Y035763D01*
X014990Y035716D01*
X014935Y035672D01*
X014877Y035632D01*
X014818Y035594D01*
X014756Y035560D01*
X014692Y035530D01*
X014627Y035503D01*
X014560Y035480D01*
X014492Y035460D01*
X014424Y035445D01*
X014354Y035433D01*
X014284Y035425D01*
X014213Y035421D01*
X014143Y035422D01*
X014072Y035426D01*
X014002Y035434D01*
X013933Y035446D01*
X013864Y035461D01*
X013796Y035481D01*
X013730Y035504D01*
X013665Y035531D01*
X013601Y035562D01*
X013539Y035596D01*
X013480Y035634D01*
X013422Y035675D01*
X013367Y035719D01*
X013314Y035766D01*
X013265Y035816D01*
X013218Y035868D01*
X013174Y035924D01*
X013133Y035981D01*
X013095Y036041D01*
X013061Y036103D01*
X013031Y036166D01*
X013004Y036231D01*
X012980Y036298D01*
X012961Y036366D01*
X012945Y036435D01*
X012933Y036504D01*
X012925Y036574D01*
X012921Y036645D01*
X012921Y036715D01*
X012925Y036786D01*
X012933Y036856D01*
X012945Y036925D01*
X012961Y036994D01*
X012980Y037062D01*
X013004Y037129D01*
X013031Y037194D01*
X013061Y037257D01*
X013095Y037319D01*
X013133Y037379D01*
X013174Y037436D01*
X013218Y037492D01*
X013265Y037544D01*
X013314Y037594D01*
X013367Y037641D01*
X013422Y037685D01*
X013480Y037726D01*
X013539Y037764D01*
X013601Y037798D01*
X013665Y037829D01*
X013730Y037856D01*
X013796Y037879D01*
X013864Y037899D01*
X013933Y037914D01*
X014002Y037926D01*
X014072Y037934D01*
X014143Y037938D01*
X014213Y037939D01*
X014284Y037935D01*
X014354Y037927D01*
X014424Y037915D01*
X014492Y037900D01*
X014560Y037880D01*
X014627Y037857D01*
X014692Y037830D01*
X014756Y037800D01*
X014818Y037766D01*
X014877Y037728D01*
X014935Y037688D01*
X014990Y037644D01*
X015043Y037597D01*
X015093Y037547D01*
X015140Y037494D01*
X015184Y037439D01*
X015177Y037434D01*
X015133Y037489D01*
X015086Y037541D01*
X015037Y037590D01*
X014984Y037637D01*
X014930Y037680D01*
X014872Y037721D01*
X014813Y037758D01*
X014752Y037792D01*
X014688Y037822D01*
X014624Y037849D01*
X014557Y037872D01*
X014490Y037891D01*
X014422Y037906D01*
X014353Y037918D01*
X014283Y037926D01*
X014213Y037930D01*
X014143Y037929D01*
X014073Y037925D01*
X014004Y037917D01*
X013935Y037906D01*
X013866Y037890D01*
X013799Y037871D01*
X013733Y037847D01*
X013668Y037820D01*
X013605Y037790D01*
X013544Y037756D01*
X013485Y037719D01*
X013427Y037678D01*
X013373Y037634D01*
X013321Y037588D01*
X013271Y037538D01*
X013224Y037486D01*
X013181Y037431D01*
X013140Y037374D01*
X013103Y037315D01*
X013069Y037253D01*
X013039Y037190D01*
X013012Y037125D01*
X012989Y037059D01*
X012970Y036992D01*
X012954Y036924D01*
X012942Y036855D01*
X012934Y036785D01*
X012930Y036715D01*
X012930Y036645D01*
X012934Y036575D01*
X012942Y036505D01*
X012954Y036436D01*
X012970Y036368D01*
X012989Y036301D01*
X013012Y036235D01*
X013039Y036170D01*
X013069Y036107D01*
X013103Y036045D01*
X013140Y035986D01*
X013181Y035929D01*
X013224Y035874D01*
X013271Y035822D01*
X013321Y035772D01*
X013373Y035726D01*
X013427Y035682D01*
X013485Y035641D01*
X013544Y035604D01*
X013605Y035570D01*
X013668Y035540D01*
X013733Y035513D01*
X013799Y035489D01*
X013866Y035470D01*
X013935Y035454D01*
X014004Y035443D01*
X014073Y035435D01*
X014143Y035431D01*
X014213Y035430D01*
X014283Y035434D01*
X014353Y035442D01*
X014422Y035454D01*
X014490Y035469D01*
X014557Y035488D01*
X014624Y035511D01*
X014688Y035538D01*
X014752Y035568D01*
X014813Y035602D01*
X014872Y035639D01*
X014930Y035680D01*
X014984Y035723D01*
X015037Y035770D01*
X015086Y035819D01*
X015133Y035871D01*
X015177Y035926D01*
X015170Y035931D01*
X015126Y035877D01*
X015080Y035825D01*
X015031Y035776D01*
X014979Y035730D01*
X014924Y035687D01*
X014867Y035647D01*
X014808Y035610D01*
X014747Y035576D01*
X014685Y035546D01*
X014620Y035520D01*
X014555Y035497D01*
X014488Y035478D01*
X014420Y035462D01*
X014351Y035451D01*
X014282Y035443D01*
X014213Y035439D01*
X014143Y035440D01*
X014074Y035444D01*
X014005Y035451D01*
X013936Y035463D01*
X013869Y035479D01*
X013802Y035498D01*
X013736Y035521D01*
X013672Y035548D01*
X013609Y035578D01*
X013548Y035612D01*
X013490Y035649D01*
X013433Y035689D01*
X013379Y035732D01*
X013327Y035779D01*
X013278Y035828D01*
X013231Y035880D01*
X013188Y035934D01*
X013148Y035991D01*
X013111Y036050D01*
X013077Y036111D01*
X013047Y036174D01*
X013020Y036238D01*
X012997Y036303D01*
X012978Y036370D01*
X012963Y036438D01*
X012951Y036507D01*
X012943Y036576D01*
X012939Y036645D01*
X012939Y036715D01*
X012943Y036784D01*
X012951Y036853D01*
X012963Y036922D01*
X012978Y036990D01*
X012997Y037057D01*
X013020Y037122D01*
X013047Y037186D01*
X013077Y037249D01*
X013111Y037310D01*
X013148Y037369D01*
X013188Y037426D01*
X013231Y037480D01*
X013278Y037532D01*
X013327Y037581D01*
X013379Y037628D01*
X013433Y037671D01*
X013490Y037711D01*
X013548Y037748D01*
X013609Y037782D01*
X013672Y037812D01*
X013736Y037839D01*
X013802Y037862D01*
X013869Y037881D01*
X013936Y037897D01*
X014005Y037909D01*
X014074Y037916D01*
X014143Y037920D01*
X014213Y037921D01*
X014282Y037917D01*
X014351Y037909D01*
X014420Y037898D01*
X014488Y037882D01*
X014555Y037863D01*
X014620Y037840D01*
X014685Y037814D01*
X014747Y037784D01*
X014808Y037750D01*
X014867Y037713D01*
X014924Y037673D01*
X014979Y037630D01*
X015031Y037584D01*
X015080Y037535D01*
X015126Y037483D01*
X015170Y037429D01*
X015163Y037423D01*
X015119Y037477D01*
X015073Y037528D01*
X015024Y037577D01*
X014973Y037623D01*
X014919Y037666D01*
X014862Y037706D01*
X014804Y037742D01*
X014743Y037776D01*
X014681Y037806D01*
X014617Y037832D01*
X014552Y037854D01*
X014486Y037873D01*
X014418Y037889D01*
X014350Y037900D01*
X014282Y037908D01*
X014213Y037912D01*
X014144Y037911D01*
X014075Y037907D01*
X014006Y037900D01*
X013938Y037888D01*
X013871Y037873D01*
X013804Y037853D01*
X013739Y037830D01*
X013676Y037804D01*
X013613Y037774D01*
X013553Y037741D01*
X013495Y037704D01*
X013438Y037664D01*
X013384Y037621D01*
X013333Y037575D01*
X013284Y037526D01*
X013238Y037474D01*
X013195Y037420D01*
X013155Y037364D01*
X013119Y037305D01*
X013085Y037245D01*
X013055Y037183D01*
X013029Y037119D01*
X013006Y037054D01*
X012987Y036987D01*
X012972Y036920D01*
X012960Y036852D01*
X012952Y036783D01*
X012948Y036715D01*
X012948Y036645D01*
X012952Y036577D01*
X012960Y036508D01*
X012972Y036440D01*
X012987Y036373D01*
X013006Y036306D01*
X013029Y036241D01*
X013055Y036177D01*
X013085Y036115D01*
X013119Y036055D01*
X013155Y035996D01*
X013195Y035940D01*
X013238Y035886D01*
X013284Y035834D01*
X013333Y035785D01*
X013384Y035739D01*
X013438Y035696D01*
X013495Y035656D01*
X013553Y035619D01*
X013613Y035586D01*
X013676Y035556D01*
X013739Y035530D01*
X013804Y035507D01*
X013871Y035487D01*
X013938Y035472D01*
X014006Y035460D01*
X014075Y035453D01*
X014144Y035449D01*
X014213Y035448D01*
X014282Y035452D01*
X014350Y035460D01*
X014418Y035471D01*
X014486Y035487D01*
X014552Y035506D01*
X014617Y035528D01*
X014681Y035554D01*
X014743Y035584D01*
X014804Y035618D01*
X014862Y035654D01*
X014919Y035694D01*
X014973Y035737D01*
X015024Y035783D01*
X015073Y035832D01*
X015119Y035883D01*
X015163Y035937D01*
X015155Y035942D01*
X015112Y035888D01*
X015066Y035837D01*
X015016Y035788D01*
X014965Y035742D01*
X014910Y035699D01*
X014853Y035659D01*
X014795Y035623D01*
X014734Y035589D01*
X014671Y035560D01*
X014607Y035534D01*
X014541Y035512D01*
X014474Y035493D01*
X014407Y035478D01*
X014338Y035467D01*
X014269Y035460D01*
X014200Y035457D01*
X014131Y035458D01*
X014061Y035463D01*
X013993Y035471D01*
X013925Y035484D01*
X013857Y035500D01*
X013791Y035521D01*
X013726Y035544D01*
X013662Y035572D01*
X013600Y035603D01*
X013540Y035638D01*
X013482Y035676D01*
X013426Y035717D01*
X013373Y035761D01*
X013322Y035808D01*
X013274Y035858D01*
X013229Y035911D01*
X013187Y035966D01*
X013148Y036023D01*
X013113Y036083D01*
X013081Y036144D01*
X013052Y036207D01*
X013027Y036272D01*
X013006Y036338D01*
X012988Y036405D01*
X012975Y036473D01*
X012965Y036542D01*
X012959Y036611D01*
X012957Y036680D01*
X012959Y036749D01*
X012965Y036818D01*
X012975Y036887D01*
X012988Y036955D01*
X013006Y037022D01*
X013027Y037088D01*
X013052Y037153D01*
X013081Y037216D01*
X013113Y037277D01*
X013148Y037337D01*
X013187Y037394D01*
X013229Y037449D01*
X013274Y037502D01*
X013322Y037552D01*
X013373Y037599D01*
X013426Y037643D01*
X013482Y037684D01*
X013540Y037722D01*
X013600Y037757D01*
X013662Y037788D01*
X013726Y037816D01*
X013791Y037839D01*
X013857Y037860D01*
X013925Y037876D01*
X013993Y037889D01*
X014061Y037897D01*
X014131Y037902D01*
X014200Y037903D01*
X014269Y037900D01*
X014338Y037893D01*
X014407Y037882D01*
X014474Y037867D01*
X014541Y037848D01*
X014607Y037826D01*
X014671Y037800D01*
X014734Y037771D01*
X014795Y037737D01*
X014853Y037701D01*
X014910Y037661D01*
X014965Y037618D01*
X015016Y037572D01*
X015066Y037523D01*
X015112Y037472D01*
X015155Y037418D01*
X015148Y037412D01*
X015105Y037466D01*
X015059Y037517D01*
X015010Y037566D01*
X014959Y037611D01*
X014905Y037654D01*
X014848Y037693D01*
X014790Y037730D01*
X014730Y037763D01*
X014667Y037792D01*
X014604Y037818D01*
X014538Y037840D01*
X014472Y037858D01*
X014405Y037873D01*
X014337Y037884D01*
X014268Y037891D01*
X014200Y037894D01*
X014131Y037893D01*
X014062Y037888D01*
X013994Y037880D01*
X013926Y037867D01*
X013860Y037851D01*
X013794Y037831D01*
X013729Y037807D01*
X013666Y037780D01*
X013605Y037749D01*
X013545Y037715D01*
X013487Y037677D01*
X013432Y037636D01*
X013379Y037592D01*
X013329Y037545D01*
X013281Y037496D01*
X013236Y037444D01*
X013194Y037389D01*
X013156Y037332D01*
X013121Y037273D01*
X013089Y037212D01*
X013060Y037149D01*
X013036Y037085D01*
X013014Y037019D01*
X012997Y036953D01*
X012984Y036885D01*
X012974Y036817D01*
X012968Y036749D01*
X012966Y036680D01*
X012968Y036611D01*
X012974Y036543D01*
X012984Y036475D01*
X012997Y036407D01*
X013014Y036341D01*
X013036Y036275D01*
X013060Y036211D01*
X013089Y036148D01*
X013121Y036087D01*
X013156Y036028D01*
X013194Y035971D01*
X013236Y035916D01*
X013281Y035864D01*
X013329Y035815D01*
X013379Y035768D01*
X013432Y035724D01*
X013487Y035683D01*
X013545Y035645D01*
X013605Y035611D01*
X013666Y035580D01*
X013729Y035553D01*
X013794Y035529D01*
X013860Y035509D01*
X013926Y035493D01*
X013994Y035480D01*
X014062Y035472D01*
X014131Y035467D01*
X014200Y035466D01*
X014268Y035469D01*
X014337Y035476D01*
X014405Y035487D01*
X014472Y035502D01*
X014538Y035520D01*
X014604Y035542D01*
X014667Y035568D01*
X014730Y035597D01*
X014790Y035630D01*
X014848Y035667D01*
X014905Y035706D01*
X014959Y035749D01*
X015010Y035794D01*
X015059Y035843D01*
X015105Y035894D01*
X015148Y035948D01*
X007358Y033462D02*
X007345Y033373D01*
X007345Y033374D02*
X007278Y033381D01*
X007209Y033385D01*
X007141Y033384D01*
X007073Y033380D01*
X007005Y033372D01*
X006938Y033360D01*
X006871Y033345D01*
X006806Y033325D01*
X006742Y033302D01*
X006679Y033276D01*
X006617Y033246D01*
X006558Y033212D01*
X006501Y033175D01*
X006445Y033135D01*
X006392Y033092D01*
X006342Y033046D01*
X006294Y032997D01*
X006249Y032945D01*
X006207Y032891D01*
X006169Y032835D01*
X006133Y032777D01*
X006101Y032717D01*
X006072Y032655D01*
X006047Y032591D01*
X006026Y032526D01*
X006008Y032460D01*
X005994Y032394D01*
X005984Y032326D01*
X005978Y032258D01*
X005975Y032190D01*
X005976Y032122D01*
X005982Y032053D01*
X005991Y031986D01*
X006004Y031919D01*
X006020Y031852D01*
X006041Y031787D01*
X006065Y031723D01*
X006093Y031661D01*
X006124Y031600D01*
X006158Y031541D01*
X006196Y031484D01*
X006237Y031430D01*
X006281Y031378D01*
X006328Y031328D01*
X006378Y031281D01*
X006430Y031237D01*
X006484Y031196D01*
X006541Y031158D01*
X006600Y031124D01*
X006661Y031093D01*
X006723Y031065D01*
X006787Y031041D01*
X006852Y031020D01*
X006919Y031004D01*
X006986Y030991D01*
X007053Y030982D01*
X007122Y030976D01*
X007190Y030975D01*
X007258Y030978D01*
X007326Y030984D01*
X007394Y030994D01*
X007460Y031008D01*
X007526Y031026D01*
X007591Y031047D01*
X007655Y031072D01*
X007717Y031101D01*
X007777Y031133D01*
X007835Y031169D01*
X007891Y031207D01*
X007945Y031249D01*
X007997Y031294D01*
X008046Y031342D01*
X008092Y031392D01*
X008135Y031445D01*
X008175Y031501D01*
X008212Y031558D01*
X008246Y031617D01*
X008276Y031679D01*
X008302Y031742D01*
X008325Y031806D01*
X008345Y031871D01*
X008360Y031938D01*
X008372Y032005D01*
X008380Y032073D01*
X008384Y032141D01*
X008385Y032209D01*
X008381Y032278D01*
X008374Y032345D01*
X008462Y032358D01*
X008463Y032358D01*
X008471Y032288D01*
X008474Y032217D01*
X008475Y032146D01*
X008471Y032075D01*
X008463Y032004D01*
X008451Y031934D01*
X008436Y031865D01*
X008417Y031797D01*
X008394Y031729D01*
X008368Y031664D01*
X008338Y031599D01*
X008304Y031537D01*
X008267Y031476D01*
X008227Y031418D01*
X008183Y031361D01*
X008137Y031308D01*
X008088Y031257D01*
X008036Y031208D01*
X007981Y031163D01*
X007924Y031120D01*
X007865Y031081D01*
X007804Y031045D01*
X007741Y031013D01*
X007676Y030984D01*
X007610Y030958D01*
X007542Y030937D01*
X007474Y030919D01*
X007404Y030905D01*
X007334Y030894D01*
X007263Y030888D01*
X007192Y030885D01*
X007121Y030886D01*
X007050Y030891D01*
X006980Y030901D01*
X006910Y030913D01*
X006841Y030930D01*
X006773Y030951D01*
X006707Y030975D01*
X006641Y031002D01*
X006578Y031034D01*
X006516Y031068D01*
X006456Y031106D01*
X006398Y031148D01*
X006343Y031192D01*
X006290Y031240D01*
X006240Y031290D01*
X006192Y031343D01*
X006148Y031398D01*
X006106Y031456D01*
X006068Y031516D01*
X006034Y031578D01*
X006002Y031641D01*
X005975Y031707D01*
X005951Y031773D01*
X005930Y031841D01*
X005913Y031910D01*
X005901Y031980D01*
X005891Y032050D01*
X005886Y032121D01*
X005885Y032192D01*
X005888Y032263D01*
X005894Y032334D01*
X005905Y032404D01*
X005919Y032474D01*
X005937Y032542D01*
X005958Y032610D01*
X005984Y032676D01*
X006013Y032741D01*
X006045Y032804D01*
X006081Y032865D01*
X006120Y032924D01*
X006163Y032981D01*
X006208Y033036D01*
X006257Y033088D01*
X006308Y033137D01*
X006361Y033183D01*
X006418Y033227D01*
X006476Y033267D01*
X006537Y033304D01*
X006599Y033338D01*
X006664Y033368D01*
X006729Y033394D01*
X006797Y033417D01*
X006865Y033436D01*
X006934Y033451D01*
X007004Y033463D01*
X007075Y033471D01*
X007146Y033475D01*
X007217Y033474D01*
X007288Y033471D01*
X007358Y033463D01*
X007357Y033454D01*
X007286Y033462D01*
X007215Y033466D01*
X007144Y033465D01*
X007072Y033461D01*
X007002Y033454D01*
X006931Y033442D01*
X006862Y033426D01*
X006793Y033406D01*
X006726Y033383D01*
X006660Y033356D01*
X006596Y033326D01*
X006533Y033291D01*
X006473Y033254D01*
X006414Y033213D01*
X006358Y033169D01*
X006305Y033122D01*
X006254Y033072D01*
X006206Y033019D01*
X006161Y032964D01*
X006119Y032906D01*
X006080Y032847D01*
X006045Y032785D01*
X006013Y032721D01*
X005985Y032655D01*
X005961Y032588D01*
X005940Y032520D01*
X005923Y032451D01*
X005910Y032381D01*
X005901Y032310D01*
X005895Y032239D01*
X005894Y032168D01*
X005897Y032097D01*
X005903Y032026D01*
X005914Y031955D01*
X005928Y031885D01*
X005946Y031817D01*
X005968Y031749D01*
X005994Y031682D01*
X006024Y031617D01*
X006057Y031554D01*
X006093Y031493D01*
X006133Y031434D01*
X006176Y031377D01*
X006222Y031322D01*
X006271Y031271D01*
X006322Y031222D01*
X006377Y031176D01*
X006434Y031133D01*
X006493Y031093D01*
X006554Y031057D01*
X006617Y031024D01*
X006682Y030994D01*
X006749Y030968D01*
X006817Y030946D01*
X006885Y030928D01*
X006955Y030914D01*
X007026Y030903D01*
X007097Y030897D01*
X007168Y030894D01*
X007239Y030895D01*
X007310Y030901D01*
X007381Y030910D01*
X007451Y030923D01*
X007520Y030940D01*
X007588Y030961D01*
X007655Y030985D01*
X007721Y031013D01*
X007785Y031045D01*
X007847Y031080D01*
X007906Y031119D01*
X007964Y031161D01*
X008019Y031206D01*
X008072Y031254D01*
X008122Y031305D01*
X008169Y031358D01*
X008213Y031414D01*
X008254Y031473D01*
X008291Y031533D01*
X008326Y031596D01*
X008356Y031660D01*
X008383Y031726D01*
X008406Y031793D01*
X008426Y031862D01*
X008442Y031931D01*
X008454Y032002D01*
X008461Y032072D01*
X008465Y032144D01*
X008466Y032215D01*
X008462Y032286D01*
X008454Y032357D01*
X008445Y032356D01*
X008453Y032285D01*
X008457Y032215D01*
X008456Y032144D01*
X008453Y032073D01*
X008445Y032003D01*
X008433Y031933D01*
X008417Y031864D01*
X008398Y031796D01*
X008375Y031729D01*
X008348Y031664D01*
X008318Y031600D01*
X008284Y031538D01*
X008246Y031477D01*
X008206Y031419D01*
X008162Y031364D01*
X008115Y031311D01*
X008066Y031260D01*
X008013Y031212D01*
X007959Y031168D01*
X007901Y031126D01*
X007842Y031088D01*
X007780Y031053D01*
X007717Y031021D01*
X007652Y030993D01*
X007585Y030969D01*
X007518Y030948D01*
X007449Y030932D01*
X007379Y030919D01*
X007309Y030910D01*
X007239Y030904D01*
X007168Y030903D01*
X007097Y030906D01*
X007027Y030912D01*
X006957Y030923D01*
X006887Y030937D01*
X006819Y030955D01*
X006752Y030977D01*
X006686Y031003D01*
X006621Y031032D01*
X006559Y031064D01*
X006498Y031101D01*
X006439Y031140D01*
X006382Y031183D01*
X006328Y031228D01*
X006277Y031277D01*
X006228Y031328D01*
X006183Y031382D01*
X006140Y031439D01*
X006101Y031498D01*
X006064Y031559D01*
X006032Y031621D01*
X006003Y031686D01*
X005977Y031752D01*
X005955Y031819D01*
X005937Y031887D01*
X005923Y031957D01*
X005912Y032027D01*
X005906Y032097D01*
X005903Y032168D01*
X005904Y032239D01*
X005910Y032309D01*
X005919Y032379D01*
X005932Y032449D01*
X005948Y032518D01*
X005969Y032585D01*
X005993Y032652D01*
X006021Y032717D01*
X006053Y032780D01*
X006088Y032842D01*
X006126Y032901D01*
X006168Y032959D01*
X006212Y033013D01*
X006260Y033066D01*
X006311Y033115D01*
X006364Y033162D01*
X006419Y033206D01*
X006477Y033246D01*
X006538Y033284D01*
X006600Y033318D01*
X006664Y033348D01*
X006729Y033375D01*
X006796Y033398D01*
X006864Y033417D01*
X006933Y033433D01*
X007003Y033445D01*
X007073Y033453D01*
X007144Y033456D01*
X007215Y033457D01*
X007285Y033453D01*
X007356Y033445D01*
X007354Y033436D01*
X007284Y033444D01*
X007213Y033448D01*
X007142Y033447D01*
X007071Y033443D01*
X007000Y033435D01*
X006930Y033423D01*
X006861Y033407D01*
X006793Y033387D01*
X006726Y033364D01*
X006660Y033336D01*
X006596Y033306D01*
X006534Y033271D01*
X006474Y033233D01*
X006416Y033192D01*
X006360Y033148D01*
X006308Y033100D01*
X006257Y033050D01*
X006210Y032997D01*
X006166Y032941D01*
X006125Y032883D01*
X006087Y032823D01*
X006053Y032761D01*
X006022Y032697D01*
X005995Y032631D01*
X005971Y032564D01*
X005952Y032496D01*
X005936Y032426D01*
X005924Y032356D01*
X005916Y032286D01*
X005912Y032215D01*
X005913Y032144D01*
X005917Y032073D01*
X005925Y032002D01*
X005936Y031932D01*
X005952Y031863D01*
X005972Y031794D01*
X005996Y031727D01*
X006023Y031662D01*
X006054Y031598D01*
X006088Y031536D01*
X006126Y031475D01*
X006167Y031417D01*
X006211Y031362D01*
X006259Y031309D01*
X006309Y031259D01*
X006362Y031211D01*
X006417Y031167D01*
X006475Y031126D01*
X006536Y031088D01*
X006598Y031054D01*
X006662Y031023D01*
X006727Y030996D01*
X006794Y030972D01*
X006863Y030952D01*
X006932Y030936D01*
X007002Y030925D01*
X007073Y030917D01*
X007144Y030913D01*
X007215Y030912D01*
X007286Y030916D01*
X007356Y030924D01*
X007426Y030936D01*
X007496Y030952D01*
X007564Y030971D01*
X007631Y030995D01*
X007697Y031022D01*
X007761Y031053D01*
X007823Y031087D01*
X007883Y031125D01*
X007941Y031166D01*
X007997Y031210D01*
X008050Y031257D01*
X008100Y031308D01*
X008148Y031360D01*
X008192Y031416D01*
X008233Y031474D01*
X008271Y031534D01*
X008306Y031596D01*
X008336Y031660D01*
X008364Y031726D01*
X008387Y031793D01*
X008407Y031861D01*
X008423Y031930D01*
X008435Y032000D01*
X008443Y032071D01*
X008447Y032142D01*
X008448Y032213D01*
X008444Y032284D01*
X008436Y032354D01*
X008427Y032353D01*
X008435Y032283D01*
X008439Y032213D01*
X008438Y032142D01*
X008434Y032072D01*
X008426Y032001D01*
X008414Y031932D01*
X008398Y031863D01*
X008379Y031795D01*
X008355Y031729D01*
X008328Y031664D01*
X008298Y031600D01*
X008263Y031538D01*
X008226Y031479D01*
X008185Y031421D01*
X008141Y031366D01*
X008094Y031314D01*
X008044Y031264D01*
X007991Y031217D01*
X007936Y031173D01*
X007878Y031132D01*
X007818Y031095D01*
X007757Y031061D01*
X007693Y031030D01*
X007628Y031003D01*
X007561Y030980D01*
X007493Y030961D01*
X007424Y030945D01*
X007355Y030933D01*
X007285Y030925D01*
X007214Y030921D01*
X007144Y030922D01*
X007073Y030926D01*
X007003Y030933D01*
X006934Y030945D01*
X006865Y030961D01*
X006797Y030981D01*
X006731Y031004D01*
X006665Y031031D01*
X006602Y031062D01*
X006540Y031096D01*
X006480Y031133D01*
X006423Y031174D01*
X006368Y031218D01*
X006315Y031265D01*
X006265Y031315D01*
X006218Y031368D01*
X006174Y031423D01*
X006133Y031480D01*
X006096Y031540D01*
X006062Y031602D01*
X006031Y031665D01*
X006004Y031731D01*
X005981Y031797D01*
X005961Y031865D01*
X005945Y031934D01*
X005933Y032003D01*
X005926Y032073D01*
X005922Y032144D01*
X005921Y032214D01*
X005925Y032285D01*
X005933Y032355D01*
X005945Y032424D01*
X005961Y032493D01*
X005980Y032561D01*
X006003Y032628D01*
X006030Y032693D01*
X006061Y032757D01*
X006095Y032818D01*
X006132Y032878D01*
X006173Y032936D01*
X006217Y032991D01*
X006264Y033044D01*
X006314Y033094D01*
X006366Y033141D01*
X006421Y033185D01*
X006479Y033226D01*
X006538Y033263D01*
X006600Y033298D01*
X006664Y033328D01*
X006729Y033355D01*
X006795Y033379D01*
X006863Y033398D01*
X006932Y033414D01*
X007001Y033426D01*
X007072Y033434D01*
X007142Y033438D01*
X007213Y033439D01*
X007283Y033435D01*
X007353Y033427D01*
X007352Y033418D01*
X007282Y033426D01*
X007212Y033430D01*
X007142Y033429D01*
X007072Y033425D01*
X007003Y033417D01*
X006934Y033405D01*
X006865Y033390D01*
X006798Y033370D01*
X006732Y033347D01*
X006667Y033320D01*
X006604Y033290D01*
X006543Y033256D01*
X006484Y033218D01*
X006427Y033178D01*
X006372Y033134D01*
X006320Y033087D01*
X006270Y033037D01*
X006224Y032985D01*
X006180Y032930D01*
X006140Y032873D01*
X006103Y032814D01*
X006069Y032752D01*
X006038Y032689D01*
X006012Y032625D01*
X005989Y032558D01*
X005969Y032491D01*
X005954Y032423D01*
X005942Y032354D01*
X005934Y032284D01*
X005930Y032214D01*
X005931Y032144D01*
X005934Y032074D01*
X005942Y032005D01*
X005954Y031935D01*
X005970Y031867D01*
X005989Y031800D01*
X006012Y031734D01*
X006039Y031669D01*
X006070Y031606D01*
X006104Y031545D01*
X006141Y031485D01*
X006181Y031428D01*
X006225Y031373D01*
X006272Y031321D01*
X006321Y031272D01*
X006373Y031225D01*
X006428Y031181D01*
X006485Y031141D01*
X006545Y031104D01*
X006606Y031070D01*
X006669Y031039D01*
X006734Y031012D01*
X006800Y030989D01*
X006867Y030970D01*
X006935Y030954D01*
X007005Y030942D01*
X007074Y030934D01*
X007144Y030931D01*
X007214Y030930D01*
X007284Y030934D01*
X007354Y030942D01*
X007423Y030954D01*
X007491Y030969D01*
X007558Y030989D01*
X007625Y031012D01*
X007689Y031038D01*
X007752Y031069D01*
X007814Y031103D01*
X007873Y031140D01*
X007930Y031180D01*
X007985Y031224D01*
X008037Y031270D01*
X008087Y031320D01*
X008134Y031372D01*
X008178Y031427D01*
X008218Y031484D01*
X008256Y031543D01*
X008290Y031604D01*
X008320Y031667D01*
X008347Y031732D01*
X008370Y031798D01*
X008390Y031865D01*
X008405Y031934D01*
X008417Y032003D01*
X008425Y032072D01*
X008429Y032142D01*
X008430Y032212D01*
X008426Y032282D01*
X008418Y032352D01*
X008409Y032351D01*
X008417Y032281D01*
X008421Y032212D01*
X008420Y032142D01*
X008416Y032073D01*
X008408Y032004D01*
X008397Y031935D01*
X008381Y031868D01*
X008362Y031801D01*
X008339Y031735D01*
X008312Y031671D01*
X008282Y031608D01*
X008248Y031548D01*
X008211Y031489D01*
X008170Y031432D01*
X008127Y031378D01*
X008080Y031326D01*
X008031Y031277D01*
X007979Y031231D01*
X007925Y031187D01*
X007868Y031147D01*
X007809Y031110D01*
X007748Y031077D01*
X007686Y031047D01*
X007621Y031020D01*
X007556Y030997D01*
X007489Y030978D01*
X007421Y030963D01*
X007352Y030951D01*
X007283Y030943D01*
X007214Y030939D01*
X007144Y030940D01*
X007075Y030943D01*
X007006Y030951D01*
X006937Y030963D01*
X006869Y030978D01*
X006803Y030998D01*
X006737Y031021D01*
X006673Y031047D01*
X006610Y031078D01*
X006549Y031111D01*
X006490Y031148D01*
X006434Y031189D01*
X006379Y031232D01*
X006327Y031278D01*
X006278Y031327D01*
X006232Y031379D01*
X006189Y031434D01*
X006148Y031490D01*
X006111Y031549D01*
X006078Y031610D01*
X006047Y031673D01*
X006021Y031737D01*
X005998Y031803D01*
X005978Y031869D01*
X005963Y031937D01*
X005951Y032006D01*
X005943Y032075D01*
X005940Y032144D01*
X005939Y032214D01*
X005943Y032283D01*
X005951Y032352D01*
X005963Y032421D01*
X005978Y032489D01*
X005997Y032556D01*
X006020Y032621D01*
X006047Y032686D01*
X006077Y032748D01*
X006110Y032809D01*
X006147Y032868D01*
X006187Y032925D01*
X006231Y032979D01*
X006277Y033031D01*
X006326Y033080D01*
X006378Y033127D01*
X006432Y033170D01*
X006489Y033211D01*
X006548Y033248D01*
X006608Y033282D01*
X006671Y033312D01*
X006735Y033339D01*
X006801Y033362D01*
X006868Y033381D01*
X006935Y033397D01*
X007004Y033408D01*
X007073Y033416D01*
X007142Y033420D01*
X007212Y033421D01*
X007281Y033417D01*
X007351Y033409D01*
X007349Y033400D01*
X007281Y033408D01*
X007212Y033412D01*
X007143Y033411D01*
X007074Y033407D01*
X007005Y033400D01*
X006937Y033388D01*
X006870Y033372D01*
X006804Y033353D01*
X006738Y033330D01*
X006675Y033304D01*
X006613Y033274D01*
X006552Y033240D01*
X006494Y033203D01*
X006438Y033163D01*
X006384Y033120D01*
X006332Y033074D01*
X006283Y033025D01*
X006238Y032973D01*
X006195Y032919D01*
X006155Y032863D01*
X006118Y032805D01*
X006085Y032744D01*
X006055Y032682D01*
X006029Y032618D01*
X006006Y032553D01*
X005987Y032487D01*
X005971Y032419D01*
X005960Y032351D01*
X005952Y032283D01*
X005948Y032214D01*
X005949Y032145D01*
X005952Y032076D01*
X005960Y032007D01*
X005972Y031939D01*
X005987Y031872D01*
X006006Y031805D01*
X006029Y031740D01*
X006056Y031676D01*
X006086Y031614D01*
X006119Y031554D01*
X006156Y031495D01*
X006196Y031439D01*
X006239Y031385D01*
X006285Y031334D01*
X006334Y031285D01*
X006385Y031239D01*
X006439Y031196D01*
X006495Y031156D01*
X006554Y031119D01*
X006614Y031086D01*
X006676Y031056D01*
X006740Y031029D01*
X006805Y031006D01*
X006872Y030987D01*
X006939Y030972D01*
X007007Y030960D01*
X007076Y030952D01*
X007145Y030949D01*
X007214Y030948D01*
X007283Y030952D01*
X007351Y030960D01*
X007419Y030971D01*
X007487Y030987D01*
X007553Y031006D01*
X007618Y031029D01*
X007682Y031055D01*
X007744Y031085D01*
X007805Y031118D01*
X007863Y031155D01*
X007919Y031195D01*
X007973Y031238D01*
X008025Y031283D01*
X008074Y031332D01*
X008120Y031384D01*
X008163Y031438D01*
X008203Y031494D01*
X008240Y031552D01*
X008274Y031613D01*
X008304Y031675D01*
X008330Y031738D01*
X008353Y031804D01*
X008372Y031870D01*
X008388Y031937D01*
X008400Y032005D01*
X008407Y032074D01*
X008411Y032143D01*
X008412Y032212D01*
X008408Y032281D01*
X008400Y032349D01*
X008391Y032348D01*
X008399Y032279D01*
X008403Y032210D01*
X008402Y032141D01*
X008398Y032071D01*
X008390Y032003D01*
X008378Y031934D01*
X008362Y031867D01*
X008343Y031800D01*
X008319Y031735D01*
X008292Y031671D01*
X008262Y031609D01*
X008227Y031549D01*
X008190Y031490D01*
X008149Y031434D01*
X008106Y031381D01*
X008059Y031329D01*
X008009Y031281D01*
X007957Y031235D01*
X007902Y031193D01*
X007845Y031154D01*
X007786Y031118D01*
X007725Y031085D01*
X007662Y031056D01*
X007597Y031030D01*
X007532Y031009D01*
X007465Y030991D01*
X007397Y030976D01*
X007328Y030966D01*
X007259Y030960D01*
X007190Y030957D01*
X007121Y030958D01*
X007052Y030964D01*
X006983Y030973D01*
X006915Y030986D01*
X006848Y031003D01*
X006781Y031024D01*
X006717Y031048D01*
X006653Y031076D01*
X006592Y031108D01*
X006532Y031143D01*
X006474Y031181D01*
X006419Y031223D01*
X006366Y031268D01*
X006315Y031315D01*
X006268Y031366D01*
X006223Y031419D01*
X006181Y031474D01*
X006143Y031532D01*
X006108Y031592D01*
X006076Y031653D01*
X006048Y031717D01*
X006024Y031781D01*
X006003Y031848D01*
X005986Y031915D01*
X005973Y031983D01*
X005964Y032052D01*
X005958Y032121D01*
X005957Y032190D01*
X005960Y032259D01*
X005966Y032328D01*
X005976Y032397D01*
X005991Y032465D01*
X006009Y032532D01*
X006030Y032597D01*
X006056Y032662D01*
X006085Y032725D01*
X006118Y032786D01*
X006154Y032845D01*
X006193Y032902D01*
X006235Y032957D01*
X006281Y033009D01*
X006329Y033059D01*
X006381Y033106D01*
X006434Y033149D01*
X006490Y033190D01*
X006549Y033227D01*
X006609Y033262D01*
X006671Y033292D01*
X006735Y033319D01*
X006800Y033343D01*
X006867Y033362D01*
X006934Y033378D01*
X007003Y033390D01*
X007071Y033398D01*
X007141Y033402D01*
X007210Y033403D01*
X007279Y033399D01*
X007348Y033391D01*
X007347Y033382D01*
X007278Y033390D01*
X007210Y033394D01*
X007141Y033393D01*
X007072Y033389D01*
X007004Y033381D01*
X006936Y033369D01*
X006869Y033354D01*
X006803Y033334D01*
X006738Y033311D01*
X006675Y033284D01*
X006613Y033254D01*
X006553Y033220D01*
X006495Y033183D01*
X006440Y033142D01*
X006386Y033099D01*
X006336Y033052D01*
X006288Y033003D01*
X006242Y032951D01*
X006200Y032897D01*
X006161Y032840D01*
X006125Y032781D01*
X006093Y032721D01*
X006064Y032658D01*
X006039Y032594D01*
X006017Y032529D01*
X005999Y032463D01*
X005985Y032395D01*
X005975Y032327D01*
X005969Y032259D01*
X005966Y032190D01*
X005967Y032121D01*
X005973Y032052D01*
X005982Y031984D01*
X005995Y031917D01*
X006012Y031850D01*
X006032Y031784D01*
X006057Y031720D01*
X006084Y031657D01*
X006116Y031596D01*
X006151Y031537D01*
X006189Y031479D01*
X006230Y031424D01*
X006274Y031372D01*
X006322Y031322D01*
X006372Y031274D01*
X006424Y031230D01*
X006479Y031189D01*
X006537Y031151D01*
X006596Y031116D01*
X006657Y031084D01*
X006720Y031057D01*
X006784Y031032D01*
X006850Y031012D01*
X006917Y030995D01*
X006984Y030982D01*
X007052Y030973D01*
X007121Y030967D01*
X007190Y030966D01*
X007259Y030969D01*
X007327Y030975D01*
X007395Y030985D01*
X007463Y030999D01*
X007529Y031017D01*
X007594Y031039D01*
X007658Y031064D01*
X007721Y031093D01*
X007781Y031125D01*
X007840Y031161D01*
X007897Y031200D01*
X007951Y031242D01*
X008003Y031288D01*
X008052Y031336D01*
X008099Y031386D01*
X008142Y031440D01*
X008183Y031495D01*
X008220Y031553D01*
X008254Y031613D01*
X008284Y031675D01*
X008311Y031738D01*
X008334Y031803D01*
X008354Y031869D01*
X008369Y031936D01*
X008381Y032004D01*
X008389Y032072D01*
X008393Y032141D01*
X008394Y032210D01*
X008390Y032278D01*
X008382Y032347D01*
X003900Y027212D02*
X003954Y027140D01*
X003953Y027141D02*
X003900Y027098D01*
X003849Y027053D01*
X003801Y027004D01*
X003756Y026953D01*
X003713Y026899D01*
X003674Y026843D01*
X003638Y026785D01*
X003605Y026725D01*
X003576Y026664D01*
X003551Y026600D01*
X003529Y026536D01*
X003510Y026470D01*
X003496Y026403D01*
X003485Y026336D01*
X003478Y026268D01*
X003475Y026200D01*
X003476Y026131D01*
X003481Y026063D01*
X003489Y025995D01*
X003502Y025928D01*
X003518Y025862D01*
X003538Y025797D01*
X003561Y025732D01*
X003588Y025670D01*
X003619Y025609D01*
X003653Y025550D01*
X003690Y025492D01*
X003731Y025437D01*
X003775Y025385D01*
X003821Y025335D01*
X003870Y025288D01*
X003922Y025243D01*
X003976Y025202D01*
X004033Y025163D01*
X004092Y025128D01*
X004152Y025097D01*
X004214Y025069D01*
X004278Y025044D01*
X004343Y025023D01*
X004409Y025006D01*
X004476Y024992D01*
X004544Y024983D01*
X004612Y024977D01*
X004680Y024975D01*
X004748Y024977D01*
X004816Y024983D01*
X004884Y024992D01*
X004951Y025006D01*
X005017Y025023D01*
X005082Y025044D01*
X005146Y025069D01*
X005208Y025097D01*
X005268Y025128D01*
X005327Y025163D01*
X005384Y025202D01*
X005438Y025243D01*
X005490Y025288D01*
X005539Y025335D01*
X005585Y025385D01*
X005629Y025437D01*
X005670Y025492D01*
X005707Y025550D01*
X005741Y025609D01*
X005772Y025670D01*
X005799Y025732D01*
X005822Y025797D01*
X005842Y025862D01*
X005858Y025928D01*
X005871Y025995D01*
X005879Y026063D01*
X005884Y026131D01*
X005885Y026200D01*
X005882Y026268D01*
X005875Y026336D01*
X005864Y026403D01*
X005850Y026470D01*
X005831Y026536D01*
X005809Y026600D01*
X005784Y026664D01*
X005755Y026725D01*
X005722Y026785D01*
X005686Y026843D01*
X005647Y026899D01*
X005604Y026953D01*
X005559Y027004D01*
X005511Y027053D01*
X005460Y027098D01*
X005407Y027141D01*
X005460Y027212D01*
X005461Y027213D01*
X005516Y027169D01*
X005569Y027121D01*
X005620Y027071D01*
X005667Y027018D01*
X005711Y026963D01*
X005753Y026905D01*
X005791Y026845D01*
X005826Y026784D01*
X005857Y026720D01*
X005885Y026655D01*
X005909Y026588D01*
X005930Y026520D01*
X005946Y026451D01*
X005959Y026381D01*
X005968Y026311D01*
X005974Y026240D01*
X005975Y026169D01*
X005972Y026098D01*
X005966Y026027D01*
X005956Y025957D01*
X005942Y025888D01*
X005924Y025819D01*
X005902Y025751D01*
X005877Y025685D01*
X005848Y025620D01*
X005815Y025557D01*
X005779Y025496D01*
X005740Y025437D01*
X005698Y025380D01*
X005653Y025325D01*
X005604Y025273D01*
X005553Y025224D01*
X005500Y025177D01*
X005443Y025134D01*
X005385Y025094D01*
X005324Y025057D01*
X005262Y025023D01*
X005198Y024993D01*
X005132Y024966D01*
X005065Y024943D01*
X004996Y024924D01*
X004927Y024909D01*
X004857Y024897D01*
X004786Y024889D01*
X004715Y024885D01*
X004645Y024885D01*
X004574Y024889D01*
X004503Y024897D01*
X004433Y024909D01*
X004364Y024924D01*
X004295Y024943D01*
X004228Y024966D01*
X004162Y024993D01*
X004098Y025023D01*
X004036Y025057D01*
X003975Y025094D01*
X003917Y025134D01*
X003860Y025177D01*
X003807Y025224D01*
X003756Y025273D01*
X003707Y025325D01*
X003662Y025380D01*
X003620Y025437D01*
X003581Y025496D01*
X003545Y025557D01*
X003512Y025620D01*
X003483Y025685D01*
X003458Y025751D01*
X003436Y025819D01*
X003418Y025888D01*
X003404Y025957D01*
X003394Y026027D01*
X003388Y026098D01*
X003385Y026169D01*
X003386Y026240D01*
X003392Y026311D01*
X003401Y026381D01*
X003414Y026451D01*
X003430Y026520D01*
X003451Y026588D01*
X003475Y026655D01*
X003503Y026720D01*
X003534Y026784D01*
X003569Y026845D01*
X003607Y026905D01*
X003649Y026963D01*
X003693Y027018D01*
X003740Y027071D01*
X003791Y027121D01*
X003844Y027169D01*
X003899Y027213D01*
X003904Y027206D01*
X003849Y027161D01*
X003796Y027114D01*
X003745Y027063D01*
X003698Y027010D01*
X003653Y026954D01*
X003612Y026896D01*
X003574Y026836D01*
X003539Y026774D01*
X003508Y026710D01*
X003481Y026644D01*
X003457Y026577D01*
X003437Y026508D01*
X003420Y026439D01*
X003408Y026369D01*
X003399Y026298D01*
X003395Y026227D01*
X003394Y026156D01*
X003398Y026085D01*
X003405Y026014D01*
X003416Y025943D01*
X003431Y025874D01*
X003450Y025805D01*
X003473Y025737D01*
X003499Y025671D01*
X003529Y025606D01*
X003563Y025544D01*
X003599Y025483D01*
X003640Y025424D01*
X003683Y025367D01*
X003730Y025313D01*
X003779Y025262D01*
X003832Y025214D01*
X003886Y025168D01*
X003944Y025126D01*
X004003Y025087D01*
X004065Y025051D01*
X004128Y025018D01*
X004193Y024990D01*
X004260Y024964D01*
X004328Y024943D01*
X004397Y024925D01*
X004467Y024912D01*
X004538Y024902D01*
X004609Y024896D01*
X004680Y024894D01*
X004751Y024896D01*
X004822Y024902D01*
X004893Y024912D01*
X004963Y024925D01*
X005032Y024943D01*
X005100Y024964D01*
X005167Y024990D01*
X005232Y025018D01*
X005295Y025051D01*
X005357Y025087D01*
X005416Y025126D01*
X005474Y025168D01*
X005528Y025214D01*
X005581Y025262D01*
X005630Y025313D01*
X005677Y025367D01*
X005720Y025424D01*
X005761Y025483D01*
X005797Y025544D01*
X005831Y025606D01*
X005861Y025671D01*
X005887Y025737D01*
X005910Y025805D01*
X005929Y025874D01*
X005944Y025943D01*
X005955Y026014D01*
X005962Y026085D01*
X005966Y026156D01*
X005965Y026227D01*
X005961Y026298D01*
X005952Y026369D01*
X005940Y026439D01*
X005923Y026508D01*
X005903Y026577D01*
X005879Y026644D01*
X005852Y026710D01*
X005821Y026774D01*
X005786Y026836D01*
X005748Y026896D01*
X005707Y026954D01*
X005662Y027010D01*
X005615Y027063D01*
X005564Y027114D01*
X005511Y027161D01*
X005456Y027206D01*
X005450Y027199D01*
X005505Y027154D01*
X005558Y027107D01*
X005608Y027057D01*
X005655Y027004D01*
X005699Y026949D01*
X005741Y026891D01*
X005778Y026832D01*
X005813Y026770D01*
X005844Y026706D01*
X005871Y026641D01*
X005895Y026574D01*
X005915Y026506D01*
X005931Y026437D01*
X005943Y026368D01*
X005952Y026297D01*
X005956Y026227D01*
X005957Y026156D01*
X005953Y026085D01*
X005946Y026015D01*
X005935Y025945D01*
X005920Y025876D01*
X005901Y025808D01*
X005879Y025740D01*
X005853Y025675D01*
X005823Y025610D01*
X005790Y025548D01*
X005753Y025488D01*
X005713Y025429D01*
X005670Y025373D01*
X005624Y025319D01*
X005574Y025269D01*
X005523Y025220D01*
X005468Y025175D01*
X005411Y025133D01*
X005352Y025094D01*
X005291Y025059D01*
X005228Y025026D01*
X005163Y024998D01*
X005097Y024973D01*
X005029Y024952D01*
X004961Y024934D01*
X004891Y024921D01*
X004821Y024911D01*
X004751Y024905D01*
X004680Y024903D01*
X004609Y024905D01*
X004539Y024911D01*
X004469Y024921D01*
X004399Y024934D01*
X004331Y024952D01*
X004263Y024973D01*
X004197Y024998D01*
X004132Y025026D01*
X004069Y025059D01*
X004008Y025094D01*
X003949Y025133D01*
X003892Y025175D01*
X003837Y025220D01*
X003786Y025269D01*
X003736Y025319D01*
X003690Y025373D01*
X003647Y025429D01*
X003607Y025488D01*
X003570Y025548D01*
X003537Y025610D01*
X003507Y025675D01*
X003481Y025740D01*
X003459Y025808D01*
X003440Y025876D01*
X003425Y025945D01*
X003414Y026015D01*
X003407Y026085D01*
X003403Y026156D01*
X003404Y026227D01*
X003408Y026297D01*
X003417Y026368D01*
X003429Y026437D01*
X003445Y026506D01*
X003465Y026574D01*
X003489Y026641D01*
X003516Y026706D01*
X003547Y026770D01*
X003582Y026832D01*
X003619Y026891D01*
X003661Y026949D01*
X003705Y027004D01*
X003752Y027057D01*
X003802Y027107D01*
X003855Y027154D01*
X003910Y027199D01*
X003915Y027191D01*
X003860Y027147D01*
X003807Y027099D01*
X003757Y027049D01*
X003709Y026996D01*
X003665Y026940D01*
X003624Y026882D01*
X003587Y026822D01*
X003552Y026760D01*
X003522Y026696D01*
X003495Y026630D01*
X003471Y026563D01*
X003452Y026495D01*
X003436Y026425D01*
X003424Y026355D01*
X003416Y026285D01*
X003412Y026214D01*
X003413Y026143D01*
X003417Y026072D01*
X003425Y026001D01*
X003437Y025931D01*
X003453Y025862D01*
X003472Y025794D01*
X003496Y025726D01*
X003523Y025661D01*
X003554Y025597D01*
X003588Y025535D01*
X003626Y025475D01*
X003668Y025417D01*
X003712Y025361D01*
X003759Y025308D01*
X003810Y025258D01*
X003863Y025211D01*
X003918Y025166D01*
X003976Y025125D01*
X004036Y025088D01*
X004099Y025053D01*
X004163Y025022D01*
X004228Y024995D01*
X004295Y024972D01*
X004364Y024952D01*
X004433Y024936D01*
X004503Y024924D01*
X004574Y024916D01*
X004644Y024912D01*
X004716Y024912D01*
X004786Y024916D01*
X004857Y024924D01*
X004927Y024936D01*
X004996Y024952D01*
X005065Y024972D01*
X005132Y024995D01*
X005197Y025022D01*
X005261Y025053D01*
X005324Y025088D01*
X005384Y025125D01*
X005442Y025166D01*
X005497Y025211D01*
X005550Y025258D01*
X005601Y025308D01*
X005648Y025361D01*
X005692Y025417D01*
X005734Y025475D01*
X005772Y025535D01*
X005806Y025597D01*
X005837Y025661D01*
X005864Y025726D01*
X005888Y025794D01*
X005907Y025862D01*
X005923Y025931D01*
X005935Y026001D01*
X005943Y026072D01*
X005947Y026143D01*
X005948Y026214D01*
X005944Y026285D01*
X005936Y026355D01*
X005924Y026425D01*
X005908Y026495D01*
X005889Y026563D01*
X005865Y026630D01*
X005838Y026696D01*
X005808Y026760D01*
X005773Y026822D01*
X005736Y026882D01*
X005695Y026940D01*
X005651Y026996D01*
X005603Y027049D01*
X005553Y027099D01*
X005500Y027147D01*
X005445Y027191D01*
X005439Y027184D01*
X005494Y027140D01*
X005547Y027093D01*
X005597Y027043D01*
X005644Y026990D01*
X005688Y026935D01*
X005728Y026877D01*
X005766Y026818D01*
X005800Y026756D01*
X005830Y026692D01*
X005857Y026627D01*
X005880Y026560D01*
X005900Y026492D01*
X005915Y026424D01*
X005927Y026354D01*
X005935Y026284D01*
X005939Y026213D01*
X005938Y026143D01*
X005934Y026072D01*
X005926Y026002D01*
X005914Y025933D01*
X005899Y025864D01*
X005879Y025796D01*
X005856Y025730D01*
X005829Y025665D01*
X005798Y025601D01*
X005764Y025539D01*
X005726Y025480D01*
X005685Y025422D01*
X005641Y025367D01*
X005594Y025314D01*
X005544Y025265D01*
X005492Y025218D01*
X005436Y025174D01*
X005379Y025133D01*
X005319Y025095D01*
X005257Y025061D01*
X005194Y025031D01*
X005129Y025004D01*
X005062Y024980D01*
X004994Y024961D01*
X004925Y024945D01*
X004856Y024933D01*
X004786Y024925D01*
X004715Y024921D01*
X004645Y024921D01*
X004574Y024925D01*
X004504Y024933D01*
X004435Y024945D01*
X004366Y024961D01*
X004298Y024980D01*
X004231Y025004D01*
X004166Y025031D01*
X004103Y025061D01*
X004041Y025095D01*
X003981Y025133D01*
X003924Y025174D01*
X003868Y025218D01*
X003816Y025265D01*
X003766Y025314D01*
X003719Y025367D01*
X003675Y025422D01*
X003634Y025480D01*
X003596Y025539D01*
X003562Y025601D01*
X003531Y025665D01*
X003504Y025730D01*
X003481Y025796D01*
X003461Y025864D01*
X003446Y025933D01*
X003434Y026002D01*
X003426Y026072D01*
X003422Y026143D01*
X003421Y026213D01*
X003425Y026284D01*
X003433Y026354D01*
X003445Y026424D01*
X003460Y026492D01*
X003480Y026560D01*
X003503Y026627D01*
X003530Y026692D01*
X003560Y026756D01*
X003594Y026818D01*
X003632Y026877D01*
X003672Y026935D01*
X003716Y026990D01*
X003763Y027043D01*
X003813Y027093D01*
X003866Y027140D01*
X003921Y027184D01*
X003926Y027177D01*
X003871Y027133D01*
X003819Y027086D01*
X003770Y027037D01*
X003723Y026984D01*
X003680Y026930D01*
X003639Y026872D01*
X003602Y026813D01*
X003568Y026752D01*
X003538Y026688D01*
X003511Y026624D01*
X003488Y026557D01*
X003469Y026490D01*
X003454Y026422D01*
X003442Y026353D01*
X003434Y026283D01*
X003430Y026213D01*
X003431Y026143D01*
X003435Y026073D01*
X003443Y026004D01*
X003454Y025935D01*
X003470Y025866D01*
X003489Y025799D01*
X003513Y025733D01*
X003540Y025668D01*
X003570Y025605D01*
X003604Y025544D01*
X003641Y025485D01*
X003682Y025427D01*
X003726Y025373D01*
X003772Y025321D01*
X003822Y025271D01*
X003874Y025224D01*
X003929Y025181D01*
X003986Y025140D01*
X004045Y025103D01*
X004107Y025069D01*
X004170Y025039D01*
X004235Y025012D01*
X004301Y024989D01*
X004368Y024970D01*
X004436Y024954D01*
X004505Y024942D01*
X004575Y024934D01*
X004645Y024930D01*
X004715Y024930D01*
X004785Y024934D01*
X004855Y024942D01*
X004924Y024954D01*
X004992Y024970D01*
X005059Y024989D01*
X005125Y025012D01*
X005190Y025039D01*
X005253Y025069D01*
X005315Y025103D01*
X005374Y025140D01*
X005431Y025181D01*
X005486Y025224D01*
X005538Y025271D01*
X005588Y025321D01*
X005634Y025373D01*
X005678Y025427D01*
X005719Y025485D01*
X005756Y025544D01*
X005790Y025605D01*
X005820Y025668D01*
X005847Y025733D01*
X005871Y025799D01*
X005890Y025866D01*
X005906Y025935D01*
X005917Y026004D01*
X005925Y026073D01*
X005929Y026143D01*
X005930Y026213D01*
X005926Y026283D01*
X005918Y026353D01*
X005906Y026422D01*
X005891Y026490D01*
X005872Y026557D01*
X005849Y026624D01*
X005822Y026688D01*
X005792Y026752D01*
X005758Y026813D01*
X005721Y026872D01*
X005680Y026930D01*
X005637Y026984D01*
X005590Y027037D01*
X005541Y027086D01*
X005489Y027133D01*
X005434Y027177D01*
X005429Y027170D01*
X005483Y027126D01*
X005535Y027080D01*
X005584Y027031D01*
X005630Y026979D01*
X005673Y026924D01*
X005713Y026867D01*
X005750Y026808D01*
X005784Y026747D01*
X005814Y026685D01*
X005840Y026620D01*
X005863Y026555D01*
X005882Y026488D01*
X005898Y026420D01*
X005909Y026351D01*
X005917Y026282D01*
X005921Y026213D01*
X005920Y026143D01*
X005916Y026074D01*
X005909Y026005D01*
X005897Y025936D01*
X005881Y025869D01*
X005862Y025802D01*
X005839Y025736D01*
X005812Y025672D01*
X005782Y025609D01*
X005748Y025548D01*
X005711Y025490D01*
X005671Y025433D01*
X005628Y025379D01*
X005581Y025327D01*
X005532Y025278D01*
X005480Y025231D01*
X005426Y025188D01*
X005369Y025148D01*
X005310Y025111D01*
X005249Y025077D01*
X005186Y025047D01*
X005122Y025020D01*
X005057Y024997D01*
X004990Y024978D01*
X004922Y024963D01*
X004853Y024951D01*
X004784Y024943D01*
X004715Y024939D01*
X004645Y024939D01*
X004576Y024943D01*
X004507Y024951D01*
X004438Y024963D01*
X004370Y024978D01*
X004303Y024997D01*
X004238Y025020D01*
X004174Y025047D01*
X004111Y025077D01*
X004050Y025111D01*
X003991Y025148D01*
X003934Y025188D01*
X003880Y025231D01*
X003828Y025278D01*
X003779Y025327D01*
X003732Y025379D01*
X003689Y025433D01*
X003649Y025490D01*
X003612Y025548D01*
X003578Y025609D01*
X003548Y025672D01*
X003521Y025736D01*
X003498Y025802D01*
X003479Y025869D01*
X003463Y025936D01*
X003451Y026005D01*
X003444Y026074D01*
X003440Y026143D01*
X003439Y026213D01*
X003443Y026282D01*
X003451Y026351D01*
X003462Y026420D01*
X003478Y026488D01*
X003497Y026555D01*
X003520Y026620D01*
X003546Y026685D01*
X003576Y026747D01*
X003610Y026808D01*
X003647Y026867D01*
X003687Y026924D01*
X003730Y026979D01*
X003776Y027031D01*
X003825Y027080D01*
X003877Y027126D01*
X003931Y027170D01*
X003937Y027163D01*
X003883Y027119D01*
X003832Y027073D01*
X003783Y027024D01*
X003737Y026973D01*
X003694Y026919D01*
X003654Y026862D01*
X003618Y026804D01*
X003584Y026743D01*
X003554Y026681D01*
X003528Y026617D01*
X003506Y026552D01*
X003487Y026486D01*
X003471Y026418D01*
X003460Y026350D01*
X003452Y026282D01*
X003448Y026213D01*
X003449Y026144D01*
X003453Y026075D01*
X003460Y026006D01*
X003472Y025938D01*
X003487Y025871D01*
X003507Y025804D01*
X003530Y025739D01*
X003556Y025676D01*
X003586Y025613D01*
X003619Y025553D01*
X003656Y025495D01*
X003696Y025438D01*
X003739Y025384D01*
X003785Y025333D01*
X003834Y025284D01*
X003886Y025238D01*
X003940Y025195D01*
X003996Y025155D01*
X004055Y025119D01*
X004115Y025085D01*
X004177Y025055D01*
X004241Y025029D01*
X004306Y025006D01*
X004373Y024987D01*
X004440Y024972D01*
X004508Y024960D01*
X004577Y024952D01*
X004645Y024948D01*
X004715Y024948D01*
X004783Y024952D01*
X004852Y024960D01*
X004920Y024972D01*
X004987Y024987D01*
X005054Y025006D01*
X005119Y025029D01*
X005183Y025055D01*
X005245Y025085D01*
X005305Y025119D01*
X005364Y025155D01*
X005420Y025195D01*
X005474Y025238D01*
X005526Y025284D01*
X005575Y025333D01*
X005621Y025384D01*
X005664Y025438D01*
X005704Y025495D01*
X005741Y025553D01*
X005774Y025613D01*
X005804Y025676D01*
X005830Y025739D01*
X005853Y025804D01*
X005873Y025871D01*
X005888Y025938D01*
X005900Y026006D01*
X005907Y026075D01*
X005911Y026144D01*
X005912Y026213D01*
X005908Y026282D01*
X005900Y026350D01*
X005889Y026418D01*
X005873Y026486D01*
X005854Y026552D01*
X005832Y026617D01*
X005806Y026681D01*
X005776Y026743D01*
X005742Y026804D01*
X005706Y026862D01*
X005666Y026919D01*
X005623Y026973D01*
X005577Y027024D01*
X005528Y027073D01*
X005477Y027119D01*
X005423Y027163D01*
X005418Y027155D01*
X005472Y027112D01*
X005523Y027066D01*
X005572Y027016D01*
X005618Y026965D01*
X005661Y026910D01*
X005701Y026853D01*
X005737Y026795D01*
X005771Y026734D01*
X005800Y026671D01*
X005826Y026607D01*
X005848Y026541D01*
X005867Y026474D01*
X005882Y026407D01*
X005893Y026338D01*
X005900Y026269D01*
X005903Y026200D01*
X005902Y026131D01*
X005897Y026061D01*
X005889Y025993D01*
X005876Y025925D01*
X005860Y025857D01*
X005839Y025791D01*
X005816Y025726D01*
X005788Y025662D01*
X005757Y025600D01*
X005722Y025540D01*
X005684Y025482D01*
X005643Y025426D01*
X005599Y025373D01*
X005552Y025322D01*
X005502Y025274D01*
X005449Y025229D01*
X005394Y025187D01*
X005337Y025148D01*
X005277Y025113D01*
X005216Y025081D01*
X005153Y025052D01*
X005088Y025027D01*
X005022Y025006D01*
X004955Y024988D01*
X004887Y024975D01*
X004818Y024965D01*
X004749Y024959D01*
X004680Y024957D01*
X004611Y024959D01*
X004542Y024965D01*
X004473Y024975D01*
X004405Y024988D01*
X004338Y025006D01*
X004272Y025027D01*
X004207Y025052D01*
X004144Y025081D01*
X004083Y025113D01*
X004023Y025148D01*
X003966Y025187D01*
X003911Y025229D01*
X003858Y025274D01*
X003808Y025322D01*
X003761Y025373D01*
X003717Y025426D01*
X003676Y025482D01*
X003638Y025540D01*
X003603Y025600D01*
X003572Y025662D01*
X003544Y025726D01*
X003521Y025791D01*
X003500Y025857D01*
X003484Y025925D01*
X003471Y025993D01*
X003463Y026061D01*
X003458Y026131D01*
X003457Y026200D01*
X003460Y026269D01*
X003467Y026338D01*
X003478Y026407D01*
X003493Y026474D01*
X003512Y026541D01*
X003534Y026607D01*
X003560Y026671D01*
X003589Y026734D01*
X003623Y026795D01*
X003659Y026853D01*
X003699Y026910D01*
X003742Y026965D01*
X003788Y027016D01*
X003837Y027066D01*
X003888Y027112D01*
X003942Y027155D01*
X003948Y027148D01*
X003894Y027105D01*
X003843Y027059D01*
X003794Y027010D01*
X003749Y026959D01*
X003706Y026905D01*
X003667Y026848D01*
X003630Y026790D01*
X003597Y026730D01*
X003568Y026667D01*
X003542Y026604D01*
X003520Y026538D01*
X003502Y026472D01*
X003487Y026405D01*
X003476Y026337D01*
X003469Y026268D01*
X003466Y026200D01*
X003467Y026131D01*
X003472Y026062D01*
X003480Y025994D01*
X003493Y025926D01*
X003509Y025860D01*
X003529Y025794D01*
X003553Y025729D01*
X003580Y025666D01*
X003611Y025605D01*
X003645Y025545D01*
X003683Y025487D01*
X003724Y025432D01*
X003768Y025379D01*
X003815Y025329D01*
X003864Y025281D01*
X003916Y025236D01*
X003971Y025194D01*
X004028Y025156D01*
X004087Y025121D01*
X004148Y025089D01*
X004211Y025060D01*
X004275Y025036D01*
X004341Y025014D01*
X004407Y024997D01*
X004475Y024984D01*
X004543Y024974D01*
X004611Y024968D01*
X004680Y024966D01*
X004749Y024968D01*
X004817Y024974D01*
X004885Y024984D01*
X004953Y024997D01*
X005019Y025014D01*
X005085Y025036D01*
X005149Y025060D01*
X005212Y025089D01*
X005273Y025121D01*
X005332Y025156D01*
X005389Y025194D01*
X005444Y025236D01*
X005496Y025281D01*
X005545Y025329D01*
X005592Y025379D01*
X005636Y025432D01*
X005677Y025487D01*
X005715Y025545D01*
X005749Y025605D01*
X005780Y025666D01*
X005807Y025729D01*
X005831Y025794D01*
X005851Y025860D01*
X005867Y025926D01*
X005880Y025994D01*
X005888Y026062D01*
X005893Y026131D01*
X005894Y026200D01*
X005891Y026268D01*
X005884Y026337D01*
X005873Y026405D01*
X005858Y026472D01*
X005840Y026538D01*
X005818Y026604D01*
X005792Y026667D01*
X005763Y026730D01*
X005730Y026790D01*
X005693Y026848D01*
X005654Y026905D01*
X005611Y026959D01*
X005566Y027010D01*
X005517Y027059D01*
X005466Y027105D01*
X005412Y027148D01*
D15*
X005075Y027745D02*
X005075Y028045D01*
X005075Y027895D02*
X005525Y027895D01*
X005300Y028205D02*
X005300Y028506D01*
X005525Y028431D02*
X005075Y028431D01*
X005300Y028205D01*
X004445Y028216D02*
X004445Y027915D01*
X003995Y027915D01*
X003995Y028216D01*
X003995Y028376D02*
X003995Y028601D01*
X004070Y028676D01*
X004370Y028676D01*
X004445Y028601D01*
X004445Y028376D01*
X003995Y028376D01*
X004220Y028066D02*
X004220Y027915D01*
X004445Y027755D02*
X004445Y027455D01*
X003995Y027455D01*
X003995Y028836D02*
X003995Y029136D01*
X004070Y029136D01*
X004370Y028836D01*
X004445Y028836D01*
X007915Y033248D02*
X008128Y033460D01*
X008241Y033573D02*
X007922Y033892D01*
X008135Y034104D01*
X008248Y034217D02*
X008407Y034377D01*
X008513Y034377D01*
X008726Y034164D01*
X008726Y034058D01*
X008566Y033899D01*
X008248Y034217D01*
X008188Y033839D02*
X008082Y033733D01*
X008241Y033573D02*
X008453Y033786D01*
X008626Y033690D02*
X008414Y033477D01*
X008520Y033583D02*
X008839Y033265D01*
X009005Y033537D02*
X009111Y033537D01*
X009217Y033644D01*
X009217Y033750D01*
X009164Y033803D01*
X009058Y033803D01*
X008899Y033644D01*
X009005Y033537D01*
X008899Y033644D02*
X008899Y033856D01*
X008952Y034015D01*
X008892Y034224D02*
X009104Y034437D01*
X008998Y034331D02*
X008680Y034649D01*
X008680Y034437D01*
X007597Y033566D02*
X007915Y033248D01*
X011395Y035335D02*
X011395Y035785D01*
X011245Y035785D02*
X011545Y035785D01*
X011705Y035710D02*
X011780Y035785D01*
X011931Y035785D01*
X012006Y035710D01*
X012006Y035635D01*
X011931Y035560D01*
X012006Y035485D01*
X012006Y035410D01*
X011931Y035335D01*
X011780Y035335D01*
X011705Y035410D01*
X011856Y035560D02*
X011931Y035560D01*
X013830Y035780D02*
X021030Y035780D01*
X021030Y018580D01*
X013830Y018580D01*
X013830Y035780D01*
X015455Y036915D02*
X015755Y036915D01*
X015915Y036915D02*
X015915Y037365D01*
X016216Y037365D01*
X016376Y037365D02*
X016376Y036915D01*
X016601Y036915D01*
X016676Y036990D01*
X016676Y037290D01*
X016601Y037365D01*
X016376Y037365D01*
X016066Y037140D02*
X015915Y037140D01*
X015915Y036915D02*
X016216Y036915D01*
X016836Y036990D02*
X016911Y036915D01*
X017061Y036915D01*
X017136Y036990D01*
X017136Y037140D01*
X017061Y037215D01*
X016986Y037215D01*
X016836Y037140D01*
X016836Y037365D01*
X017136Y037365D01*
X015455Y037365D02*
X015455Y036915D01*
X021955Y036915D02*
X022255Y036915D01*
X022415Y036915D02*
X022415Y037365D01*
X022716Y037365D01*
X022876Y037365D02*
X023101Y037365D01*
X023176Y037290D01*
X023176Y036990D01*
X023101Y036915D01*
X022876Y036915D01*
X022876Y037365D01*
X022566Y037140D02*
X022415Y037140D01*
X022415Y036915D02*
X022716Y036915D01*
X023336Y036990D02*
X023411Y036915D01*
X023561Y036915D01*
X023636Y036990D01*
X023636Y037065D01*
X023561Y037140D01*
X023336Y037140D01*
X023336Y036990D01*
X023336Y037140D02*
X023486Y037290D01*
X023636Y037365D01*
X023181Y035785D02*
X023030Y035785D01*
X022955Y035710D01*
X022795Y035785D02*
X022495Y035785D01*
X022645Y035785D02*
X022645Y035335D01*
X022955Y035335D02*
X023256Y035635D01*
X023256Y035710D01*
X023181Y035785D01*
X023256Y035335D02*
X022955Y035335D01*
X021955Y036915D02*
X021955Y037365D01*
X025583Y033840D02*
X025265Y033521D01*
X025537Y033355D02*
X025537Y033249D01*
X025644Y033143D01*
X025750Y033143D01*
X025856Y033249D01*
X025856Y033355D01*
X025803Y033408D01*
X025644Y033461D01*
X025803Y033620D01*
X026015Y033408D01*
X025690Y033734D02*
X025477Y033946D01*
X028748Y030945D02*
X028960Y030732D01*
X029073Y030619D02*
X029286Y030407D01*
X029399Y030294D02*
X029558Y030134D01*
X029664Y030134D01*
X029877Y030347D01*
X029877Y030453D01*
X029717Y030612D01*
X029399Y030294D01*
X029339Y030672D02*
X029233Y030778D01*
X029392Y030938D02*
X029073Y030619D01*
X029392Y030938D02*
X029604Y030725D01*
X029990Y030233D02*
X030096Y030233D01*
X030202Y030127D01*
X030202Y030021D01*
X030149Y029968D01*
X029724Y029968D01*
X029937Y029756D01*
X029785Y029255D02*
X029785Y028955D01*
X029785Y029105D02*
X029335Y029105D01*
X029485Y028955D01*
X029335Y028794D02*
X029335Y028494D01*
X029335Y028644D02*
X029785Y028644D01*
X028748Y030945D02*
X029066Y031263D01*
X030490Y024795D02*
X030415Y024720D01*
X030415Y024570D01*
X030490Y024495D01*
X030565Y024495D01*
X030640Y024570D01*
X030640Y024720D01*
X030715Y024795D01*
X030790Y024795D01*
X030865Y024720D01*
X030865Y024570D01*
X030790Y024495D01*
X030715Y024495D01*
X030640Y024570D01*
X030640Y024720D02*
X030565Y024795D01*
X030490Y024795D01*
X030490Y024334D02*
X030415Y024259D01*
X030415Y024034D01*
X030865Y024034D01*
X030865Y024259D01*
X030790Y024334D01*
X030490Y024334D01*
X030415Y023874D02*
X030415Y023574D01*
X030865Y023574D01*
X030865Y023874D01*
X030640Y023724D02*
X030640Y023574D01*
X030865Y023414D02*
X030865Y023113D01*
X030415Y023113D01*
X024308Y017989D02*
X024308Y015430D01*
X022930Y015430D01*
X022930Y017989D01*
X024308Y017989D01*
X024296Y017973D02*
X024147Y017804D01*
X024143Y017800D01*
X024107Y017800D01*
X024103Y017800D02*
X023194Y017800D01*
X023194Y015650D01*
X022922Y015430D01*
X023198Y015650D02*
X024150Y015654D01*
X024296Y015442D01*
X024143Y015658D02*
X024147Y017654D01*
X024147Y017784D01*
X024147Y017654D02*
X024147Y017643D01*
X023194Y017800D02*
X023194Y017812D01*
X022938Y017973D01*
X023505Y022955D02*
X023355Y023105D01*
X023805Y023105D01*
X023805Y022955D02*
X023805Y023255D01*
X021930Y026955D02*
X022005Y027030D01*
X022005Y027180D01*
X021930Y027255D01*
X021780Y027255D01*
X021705Y027180D01*
X021705Y027105D01*
X021780Y026955D01*
X021555Y026955D01*
X021555Y027255D01*
X011808Y017989D02*
X011808Y015430D01*
X010430Y015430D01*
X010430Y017989D01*
X011808Y017989D01*
X011796Y017973D02*
X011647Y017804D01*
X011643Y017800D01*
X011607Y017800D01*
X011603Y017800D02*
X010694Y017800D01*
X010694Y015650D01*
X010422Y015430D01*
X010698Y015650D02*
X011650Y015654D01*
X011796Y015442D01*
X011643Y015658D02*
X011647Y017654D01*
X011647Y017784D01*
X011647Y017654D02*
X011647Y017643D01*
X010694Y017800D02*
X010694Y017812D01*
X010438Y017973D01*
X010030Y020955D02*
X010030Y021105D01*
X010030Y021030D02*
X009580Y021030D01*
X009580Y020955D02*
X009580Y021105D01*
X009655Y021262D02*
X009955Y021262D01*
X010030Y021337D01*
X010030Y021487D01*
X009955Y021562D01*
X010030Y021722D02*
X010030Y022023D01*
X010030Y021872D02*
X009580Y021872D01*
X009730Y021722D01*
X009655Y021562D02*
X009580Y021487D01*
X009580Y021337D01*
X009655Y021262D01*
X010078Y004361D02*
X011849Y004361D01*
X011849Y003377D01*
X012046Y003377D01*
X012046Y002983D01*
X011849Y002983D01*
X011849Y001999D01*
X010078Y001999D01*
X010078Y004361D01*
X012578Y004361D02*
X012578Y001999D01*
X014349Y001999D01*
X014349Y002983D01*
X014546Y002983D01*
X014546Y003377D01*
X014349Y003377D01*
X014349Y004361D01*
X012578Y004361D01*
X015380Y002480D02*
X015380Y002280D01*
X015580Y002280D01*
X015580Y001080D01*
X015380Y001080D01*
X015380Y000880D01*
X017580Y000880D01*
X017680Y000980D01*
X017780Y000880D01*
X019980Y000880D01*
X019980Y001080D01*
X019780Y001080D01*
X019780Y002280D01*
X019980Y002280D01*
X019980Y002480D01*
X017780Y002480D01*
X017680Y002380D01*
X017580Y002480D01*
X015380Y002480D01*
X016780Y002080D02*
X016780Y001280D01*
X018580Y001280D01*
X018580Y002080D01*
X016780Y002080D01*
X016880Y002080D02*
X016880Y001280D01*
X016980Y001280D02*
X016980Y002080D01*
X017080Y002080D02*
X017080Y001280D01*
X017180Y001280D02*
X017180Y002080D01*
X017280Y002080D02*
X017280Y001280D01*
X017380Y001280D02*
X017380Y002080D01*
X017480Y002080D02*
X017480Y001280D01*
X020380Y002380D02*
X020380Y003780D01*
X020980Y003780D01*
X020980Y002380D01*
X020380Y002380D01*
D16*
X023244Y017670D02*
X023246Y017686D01*
X023252Y017702D01*
X023261Y017715D01*
X023273Y017726D01*
X023288Y017734D01*
X023304Y017738D01*
X023320Y017738D01*
X023336Y017734D01*
X023351Y017726D01*
X023363Y017715D01*
X023372Y017702D01*
X023378Y017686D01*
X023380Y017670D01*
X023378Y017654D01*
X023372Y017638D01*
X023363Y017625D01*
X023351Y017614D01*
X023336Y017606D01*
X023320Y017602D01*
X023304Y017602D01*
X023288Y017606D01*
X023273Y017614D01*
X023261Y017625D01*
X023252Y017638D01*
X023246Y017654D01*
X023244Y017670D01*
X010744Y017670D02*
X010746Y017686D01*
X010752Y017702D01*
X010761Y017715D01*
X010773Y017726D01*
X010788Y017734D01*
X010804Y017738D01*
X010820Y017738D01*
X010836Y017734D01*
X010851Y017726D01*
X010863Y017715D01*
X010872Y017702D01*
X010878Y017686D01*
X010880Y017670D01*
X010878Y017654D01*
X010872Y017638D01*
X010863Y017625D01*
X010851Y017614D01*
X010836Y017606D01*
X010820Y017602D01*
X010804Y017602D01*
X010788Y017606D01*
X010773Y017614D01*
X010761Y017625D01*
X010752Y017638D01*
X010746Y017654D01*
X010744Y017670D01*
D17*
X011086Y017644D02*
X011086Y017703D01*
X011115Y017733D01*
X011145Y017733D01*
X011174Y017703D01*
X011174Y017644D01*
X011145Y017615D01*
X011115Y017615D01*
X011086Y017644D01*
X011174Y017644D02*
X011204Y017615D01*
X011233Y017615D01*
X011263Y017644D01*
X011263Y017703D01*
X011233Y017733D01*
X011204Y017733D01*
X011174Y017703D01*
X011086Y017552D02*
X011086Y017434D01*
X011086Y017493D02*
X011263Y017493D01*
X011263Y017370D02*
X011263Y017252D01*
X011263Y017311D02*
X011086Y017311D01*
X011145Y017252D01*
X011115Y017189D02*
X011233Y017071D01*
X011263Y017100D01*
X011263Y017159D01*
X011233Y017189D01*
X011115Y017189D01*
X011086Y017159D01*
X011086Y017100D01*
X011115Y017071D01*
X011233Y017071D01*
X011263Y017008D02*
X011145Y017008D01*
X011086Y016949D01*
X011145Y016890D01*
X011263Y016890D01*
X011233Y016826D02*
X011263Y016797D01*
X011263Y016738D01*
X011233Y016708D01*
X011233Y016645D02*
X011263Y016616D01*
X011263Y016557D01*
X011233Y016527D01*
X011115Y016527D01*
X011086Y016557D01*
X011086Y016616D01*
X011115Y016645D01*
X011115Y016708D02*
X011086Y016738D01*
X011086Y016797D01*
X011115Y016826D01*
X011145Y016826D01*
X011174Y016797D01*
X011204Y016826D01*
X011233Y016826D01*
X011174Y016797D02*
X011174Y016767D01*
X011174Y016890D02*
X011174Y017008D01*
X011174Y016464D02*
X011174Y016346D01*
X011086Y016346D02*
X011263Y016346D01*
X011263Y016283D02*
X011086Y016283D01*
X011145Y016224D01*
X011086Y016165D01*
X011263Y016165D01*
X011263Y016101D02*
X011086Y015983D01*
X011086Y015920D02*
X011115Y015920D01*
X011233Y015802D01*
X011263Y015802D01*
X011263Y015920D01*
X011263Y015983D02*
X011086Y016101D01*
X011086Y015920D02*
X011086Y015802D01*
X011086Y016464D02*
X011263Y016464D01*
X023586Y016464D02*
X023763Y016464D01*
X023733Y016527D02*
X023763Y016557D01*
X023763Y016616D01*
X023733Y016645D01*
X023733Y016708D02*
X023763Y016738D01*
X023763Y016797D01*
X023733Y016826D01*
X023704Y016826D01*
X023674Y016797D01*
X023674Y016767D01*
X023674Y016797D02*
X023645Y016826D01*
X023615Y016826D01*
X023586Y016797D01*
X023586Y016738D01*
X023615Y016708D01*
X023615Y016645D02*
X023586Y016616D01*
X023586Y016557D01*
X023615Y016527D01*
X023733Y016527D01*
X023674Y016464D02*
X023674Y016346D01*
X023586Y016346D02*
X023763Y016346D01*
X023763Y016283D02*
X023586Y016283D01*
X023645Y016224D01*
X023586Y016165D01*
X023763Y016165D01*
X023763Y016101D02*
X023586Y015983D01*
X023586Y015920D02*
X023615Y015920D01*
X023733Y015802D01*
X023763Y015802D01*
X023763Y015920D01*
X023763Y015983D02*
X023586Y016101D01*
X023586Y015920D02*
X023586Y015802D01*
X023645Y016890D02*
X023586Y016949D01*
X023645Y017008D01*
X023763Y017008D01*
X023733Y017071D02*
X023615Y017189D01*
X023733Y017189D01*
X023763Y017159D01*
X023763Y017100D01*
X023733Y017071D01*
X023615Y017071D01*
X023586Y017100D01*
X023586Y017159D01*
X023615Y017189D01*
X023645Y017252D02*
X023586Y017311D01*
X023763Y017311D01*
X023763Y017252D02*
X023763Y017370D01*
X023763Y017493D02*
X023586Y017493D01*
X023586Y017434D02*
X023586Y017552D01*
X023615Y017615D02*
X023645Y017615D01*
X023674Y017644D01*
X023674Y017703D01*
X023704Y017733D01*
X023733Y017733D01*
X023763Y017703D01*
X023763Y017644D01*
X023733Y017615D01*
X023704Y017615D01*
X023674Y017644D01*
X023674Y017703D02*
X023645Y017733D01*
X023615Y017733D01*
X023586Y017703D01*
X023586Y017644D01*
X023615Y017615D01*
X023674Y017008D02*
X023674Y016890D01*
X023645Y016890D02*
X023763Y016890D01*
D18*
X029430Y025180D02*
X030930Y025180D01*
X027857Y030443D02*
X028917Y031503D01*
X021680Y035930D02*
X021680Y037430D01*
X015180Y037430D02*
X015180Y035930D01*
X008417Y032357D02*
X007357Y033417D01*
X005430Y027180D02*
X003930Y027180D01*
X009454Y008452D02*
X015406Y008452D01*
X015406Y004908D01*
X013296Y004908D01*
X013296Y005499D01*
X011564Y005499D01*
X011564Y004908D01*
X009454Y004908D01*
X009454Y008412D01*
X011180Y005587D02*
X011680Y005587D01*
X011564Y004908D02*
X013296Y004908D01*
X016390Y005330D02*
X016390Y004030D01*
X018970Y004030D01*
X018970Y005330D01*
X016390Y005330D01*
X019454Y004908D02*
X019454Y008412D01*
X019454Y008452D02*
X025406Y008452D01*
X025406Y004908D01*
X023296Y004908D01*
X023296Y005499D01*
X021564Y005499D01*
X021564Y004908D01*
X019454Y004908D01*
X021180Y005587D02*
X021680Y005587D01*
X021564Y004908D02*
X023296Y004908D01*
D19*
X024388Y023181D03*
X024968Y023181D03*
X024968Y024681D03*
X024388Y024681D03*
X024388Y026181D03*
X024968Y026181D03*
X024968Y027681D03*
X024388Y027681D03*
X024388Y029181D03*
X024968Y029181D03*
X024968Y030681D03*
X024388Y030681D03*
X011968Y031181D03*
X011388Y031181D03*
X011388Y032681D03*
X011968Y032681D03*
X011968Y029681D03*
X011388Y029681D03*
X011388Y028181D03*
X011968Y028181D03*
M02*
