%
M48
M72
T01C0.0200
T02C0.0236
T03C0.0240
T04C0.0315
T05C0.0320
T06C0.0354
T07C0.0400
%
T01
X19180Y14380
X22380Y22180
X26380Y26380
X18980Y27980
X16780Y30780
X15780Y32180
X15380Y30780
X14380Y31780
X13980Y33780
X18180Y32180
X13780Y27780
X12580Y26580
X14780Y24780
X13780Y23780
X13780Y22180
T02
X16780Y4380
X17180Y4980
X18780Y13980
X19980Y14180
X18555Y19180
X18930Y19680
X17180Y20180
X16180Y20680
X15180Y21180
X18930Y26180
X16180Y29180
X18555Y30180
X15380Y14380
X9180Y26680
T03
X12380Y8380
X11780Y9580
X16180Y9980
X18380Y13380
X20780Y14180
X21780Y15380
X21780Y16180
X21980Y16980
X21980Y17780
X21180Y17780
X19980Y15980
X16580Y17780
X15580Y16380
X15180Y16780
X15180Y17380
X14580Y15980
X13180Y16380
X13180Y17180
X12980Y15180
X11380Y15780
X9380Y16980
X9380Y22780
X8180Y28580
X7780Y31580
X10380Y31780
X10980Y30580
X11780Y30380
X11380Y28980
X12180Y28780
X15380Y29380
X17380Y28780
X19380Y28780
X21180Y28580
X22180Y28380
X23180Y27980
X20980Y25780
X19980Y22780
X21780Y22180
X19380Y20780
X25580Y25980
X18180Y31180
X18580Y32580
X19780Y32980
X21180Y32380
X22180Y33980
X25980Y31780
X13580Y37980
X10980Y33980
X12780Y32780
X23180Y8180
T04
X11180Y2786
X11180Y3574
X13680Y3574
X13680Y2786
T05
X4680Y25680
X4680Y26680
X6180Y27930
X6180Y28930
X6826Y31826
X7534Y32534
X9326Y32826
X10034Y33534
X11430Y34680
X12430Y34680
X13680Y36680
X14680Y36680
X20180Y36680
X21180Y36680
X22680Y34680
X23680Y34680
X24826Y33034
X25534Y32326
X27326Y32034
X28034Y31326
X28680Y29180
X28680Y28180
X30180Y26680
X30180Y25680
T06
X16680Y1680
X17680Y1680
X18680Y1680
T07
X11430Y7180
X11430Y6180
X12430Y6180
X12430Y7180
X13430Y7180
X13430Y6180
X21430Y6180
X21430Y7180
X22430Y7180
X22430Y6180
X23430Y6180
X23430Y7180
X22680Y23180
X22680Y24180
X22680Y25180
X22680Y26180
X22680Y27180
M30
